<svg width="361" height="144" viewBox="0 0 361 144" fill="none" xmlns="http://www.w3.org/2000/svg">
<path d="M36.6019 26.4845L15.1893 11.714C13.0194 10.2173 13.757 7.10088 16.4628 6.36802L39.2206 0.191307C39.7027 0.0173566 40.2193 -0.0391112 40.7276 0.0265948C41.2358 0.0923008 41.7211 0.278283 42.1432 0.569108C42.5651 0.859932 42.9117 1.24721 43.154 1.6988C43.3963 2.15038 43.5275 2.65326 43.5366 3.16568L42.1878 24.1116C42.0279 26.5978 38.7718 27.9812 36.6019 26.4845Z" fill="white"/>
<path d="M29.8105 30.1304L17.1957 5.46055C16.9073 4.89618 16.7804 4.26312 16.829 3.63121C16.8775 2.9993 17.0997 2.39308 17.4709 1.8794C17.8421 1.36572 18.348 0.96454 18.9327 0.720098C19.5175 0.475655 20.1584 0.397452 20.7847 0.494119L44.1632 4.10227C44.7014 4.18535 45.2122 4.395 45.6537 4.71398C46.0951 5.03297 46.4545 5.45218 46.7024 5.93714C46.9502 6.4221 47.0794 6.95895 47.0793 7.50358C47.0792 8.04819 46.9498 8.58502 46.7019 9.0699L35.9323 30.1316C35.6431 30.6943 35.2044 31.1665 34.6643 31.4961C34.1242 31.8257 33.5038 32 32.8711 31.9999C32.2383 31.9997 31.6179 31.8252 31.078 31.4955C30.538 31.1656 30.0995 30.6933 29.8105 30.1304Z" fill="white"/>
<path d="M37.5 8.72693L33.0112 8L27.5 9.57011L29.6998 14.0856L34.851 17.8153C34.9647 17.8966 35.0897 17.959 35.2216 18L37.1782 13.9852L37.5 8.72693Z" fill="#0F172A"/>
<path d="M65.4854 19.5352C65.4854 19.2305 65.4385 18.957 65.3447 18.7148C65.2588 18.4648 65.0947 18.2383 64.8525 18.0352C64.6104 17.8242 64.2705 17.6172 63.833 17.4141C63.3955 17.2109 62.8291 17 62.1338 16.7812C61.3604 16.5312 60.626 16.25 59.9307 15.9375C59.2432 15.625 58.6338 15.2617 58.1025 14.8477C57.5791 14.4258 57.165 13.9375 56.8604 13.3828C56.5635 12.8281 56.415 12.1836 56.415 11.4492C56.415 10.7383 56.5713 10.0938 56.8838 9.51562C57.1963 8.92969 57.6338 8.42969 58.1963 8.01562C58.7588 7.59375 59.4229 7.26953 60.1885 7.04297C60.9619 6.81641 61.8096 6.70312 62.7314 6.70312C63.9893 6.70312 65.0869 6.92969 66.0244 7.38281C66.9619 7.83594 67.6885 8.45703 68.2041 9.24609C68.7275 10.0352 68.9893 10.9375 68.9893 11.9531H65.4971C65.4971 11.4531 65.3916 11.0156 65.1807 10.6406C64.9775 10.2578 64.665 9.95703 64.2432 9.73828C63.8291 9.51953 63.3057 9.41016 62.6729 9.41016C62.0635 9.41016 61.5557 9.50391 61.1494 9.69141C60.7432 9.87109 60.4385 10.1172 60.2354 10.4297C60.0322 10.7344 59.9307 11.0781 59.9307 11.4609C59.9307 11.75 60.001 12.0117 60.1416 12.2461C60.29 12.4805 60.5088 12.6992 60.7979 12.9023C61.0869 13.1055 61.4424 13.2969 61.8643 13.4766C62.2861 13.6562 62.7744 13.832 63.3291 14.0039C64.2588 14.2852 65.0752 14.6016 65.7783 14.9531C66.4893 15.3047 67.083 15.6992 67.5596 16.1367C68.0361 16.5742 68.3955 17.0703 68.6377 17.625C68.8799 18.1797 69.001 18.8086 69.001 19.5117C69.001 20.2539 68.8564 20.918 68.5674 21.5039C68.2783 22.0898 67.8604 22.5859 67.3135 22.9922C66.7666 23.3984 66.1143 23.707 65.3564 23.918C64.5986 24.1289 63.751 24.2344 62.8135 24.2344C61.9697 24.2344 61.1377 24.125 60.3174 23.9062C59.4971 23.6797 58.751 23.3398 58.0791 22.8867C57.415 22.4336 56.8838 21.8555 56.4854 21.1523C56.0869 20.4492 55.8877 19.6172 55.8877 18.6562H59.415C59.415 19.1875 59.4971 19.6367 59.6611 20.0039C59.8252 20.3711 60.0557 20.668 60.3525 20.8945C60.6572 21.1211 61.0166 21.2852 61.4307 21.3867C61.8525 21.4883 62.3135 21.5391 62.8135 21.5391C63.4229 21.5391 63.9229 21.4531 64.3135 21.2812C64.7119 21.1094 65.0049 20.8711 65.1924 20.5664C65.3877 20.2617 65.4854 19.918 65.4854 19.5352ZM74.5557 13.9453V24H71.1689V11.3203H74.3447L74.5557 13.9453ZM74.0869 17.2148H73.1494C73.1494 16.332 73.2549 15.5195 73.4658 14.7773C73.6846 14.0273 74.001 13.3789 74.415 12.832C74.8369 12.2773 75.3564 11.8477 75.9736 11.543C76.5908 11.2383 77.3057 11.0859 78.1182 11.0859C78.6807 11.0859 79.1963 11.1719 79.665 11.3438C80.1338 11.5078 80.5361 11.7695 80.8721 12.1289C81.2158 12.4805 81.4814 12.9414 81.6689 13.5117C81.8564 14.0742 81.9502 14.75 81.9502 15.5391V24H78.5752V15.9141C78.5752 15.3359 78.4971 14.8906 78.3408 14.5781C78.1846 14.2656 77.9619 14.0469 77.6729 13.9219C77.3916 13.7969 77.0518 13.7344 76.6533 13.7344C76.2158 13.7344 75.833 13.8242 75.5049 14.0039C75.1846 14.1836 74.9189 14.4336 74.708 14.7539C74.4971 15.0664 74.3408 15.4336 74.2393 15.8555C74.1377 16.2773 74.0869 16.7305 74.0869 17.2148ZM81.6338 16.8281L80.4268 16.9805C80.4268 16.1523 80.5283 15.3828 80.7314 14.6719C80.9424 13.9609 81.251 13.3359 81.6572 12.7969C82.0713 12.2578 82.583 11.8398 83.1924 11.543C83.8018 11.2383 84.5049 11.0859 85.3018 11.0859C85.9111 11.0859 86.4658 11.1758 86.9658 11.3555C87.4658 11.5273 87.8916 11.8047 88.2432 12.1875C88.6025 12.5625 88.876 13.0547 89.0635 13.6641C89.2588 14.2734 89.3564 15.0195 89.3564 15.9023V24H85.9697V15.9023C85.9697 15.3164 85.8916 14.8711 85.7354 14.5664C85.5869 14.2539 85.3682 14.0391 85.0791 13.9219C84.7979 13.7969 84.4619 13.7344 84.0713 13.7344C83.665 13.7344 83.3096 13.8164 83.0049 13.9805C82.7002 14.1367 82.4463 14.3555 82.2432 14.6367C82.04 14.918 81.8877 15.2461 81.7861 15.6211C81.6846 15.9883 81.6338 16.3906 81.6338 16.8281ZM98.8135 21.1406V15.4922C98.8135 15.0859 98.7471 14.7383 98.6143 14.4492C98.4814 14.1523 98.2744 13.9219 97.9932 13.7578C97.7197 13.5938 97.3643 13.5117 96.9268 13.5117C96.5518 13.5117 96.2275 13.5781 95.9541 13.7109C95.6807 13.8359 95.4697 14.0195 95.3213 14.2617C95.1729 14.4961 95.0986 14.7734 95.0986 15.0938H91.7236C91.7236 14.5547 91.8486 14.043 92.0986 13.5586C92.3486 13.0742 92.7119 12.6484 93.1885 12.2812C93.665 11.9062 94.2314 11.6133 94.8877 11.4023C95.5518 11.1914 96.2939 11.0859 97.1143 11.0859C98.0986 11.0859 98.9736 11.25 99.7393 11.5781C100.505 11.9062 101.106 12.3984 101.544 13.0547C101.989 13.7109 102.212 14.5312 102.212 15.5156V20.9414C102.212 21.6367 102.255 22.207 102.341 22.6523C102.427 23.0898 102.552 23.4727 102.716 23.8008V24H99.3057C99.1416 23.6562 99.0166 23.2266 98.9307 22.7109C98.8525 22.1875 98.8135 21.6641 98.8135 21.1406ZM99.2588 16.2773L99.2822 18.1875H97.3955C96.9502 18.1875 96.5635 18.2383 96.2354 18.3398C95.9072 18.4414 95.6377 18.5859 95.4268 18.7734C95.2158 18.9531 95.0596 19.1641 94.958 19.4062C94.8643 19.6484 94.8174 19.9141 94.8174 20.2031C94.8174 20.4922 94.8838 20.7539 95.0166 20.9883C95.1494 21.2148 95.3408 21.3945 95.5908 21.5273C95.8408 21.6523 96.1338 21.7148 96.4697 21.7148C96.9775 21.7148 97.4189 21.6133 97.7939 21.4102C98.1689 21.207 98.458 20.957 98.6611 20.6602C98.8721 20.3633 98.9814 20.082 98.9893 19.8164L99.8799 21.2461C99.7549 21.5664 99.583 21.8984 99.3643 22.2422C99.1533 22.5859 98.8838 22.9102 98.5557 23.2148C98.2275 23.5117 97.833 23.7578 97.3721 23.9531C96.9111 24.1406 96.3643 24.2344 95.7314 24.2344C94.9268 24.2344 94.1963 24.0742 93.54 23.7539C92.8916 23.4258 92.376 22.9766 91.9932 22.4062C91.6182 21.8281 91.4307 21.1719 91.4307 20.4375C91.4307 19.7734 91.5557 19.1836 91.8057 18.668C92.0557 18.1523 92.4229 17.7188 92.9072 17.3672C93.3994 17.0078 94.0127 16.7383 94.7471 16.5586C95.4814 16.3711 96.333 16.2773 97.3018 16.2773H99.2588ZM108.188 14.0859V24H104.813V11.3203H107.989L108.188 14.0859ZM112.009 11.2383L111.95 14.3672C111.786 14.3438 111.587 14.3242 111.353 14.3086C111.126 14.2852 110.919 14.2734 110.731 14.2734C110.255 14.2734 109.841 14.3359 109.489 14.4609C109.146 14.5781 108.856 14.7539 108.622 14.9883C108.396 15.2227 108.224 15.5078 108.106 15.8438C107.997 16.1797 107.935 16.5625 107.919 16.9922L107.239 16.7812C107.239 15.9609 107.321 15.207 107.485 14.5195C107.649 13.8242 107.888 13.2188 108.2 12.7031C108.521 12.1875 108.911 11.7891 109.372 11.5078C109.833 11.2266 110.36 11.0859 110.954 11.0859C111.142 11.0859 111.333 11.1016 111.528 11.1328C111.724 11.1562 111.884 11.1914 112.009 11.2383ZM120.399 11.3203V13.7109H113.017V11.3203H120.399ZM114.845 8.19141H118.22V20.1797C118.22 20.5469 118.267 20.8281 118.36 21.0234C118.462 21.2188 118.61 21.3555 118.806 21.4336C119.001 21.5039 119.247 21.5391 119.544 21.5391C119.755 21.5391 119.942 21.5312 120.106 21.5156C120.278 21.4922 120.423 21.4688 120.54 21.4453L120.552 23.9297C120.263 24.0234 119.95 24.0977 119.614 24.1523C119.278 24.207 118.907 24.2344 118.501 24.2344C117.759 24.2344 117.11 24.1133 116.556 23.8711C116.009 23.6211 115.587 23.2227 115.29 22.6758C114.993 22.1289 114.845 21.4102 114.845 20.5195V8.19141ZM126.048 6.9375V24H122.532V6.9375H126.048ZM132.845 14.2266V16.9688H125.087V14.2266H132.845ZM133.665 6.9375V9.69141H125.087V6.9375H133.665ZM139.056 11.3203V24H135.669V11.3203H139.056ZM135.458 8.01562C135.458 7.52344 135.63 7.11719 135.974 6.79688C136.317 6.47656 136.778 6.31641 137.356 6.31641C137.927 6.31641 138.384 6.47656 138.728 6.79688C139.079 7.11719 139.255 7.52344 139.255 8.01562C139.255 8.50781 139.079 8.91406 138.728 9.23438C138.384 9.55469 137.927 9.71484 137.356 9.71484C136.778 9.71484 136.317 9.55469 135.974 9.23438C135.63 8.91406 135.458 8.50781 135.458 8.01562ZM145.149 14.0273V24H141.774V11.3203H144.938L145.149 14.0273ZM144.657 17.2148H143.743C143.743 16.2773 143.864 15.4336 144.106 14.6836C144.349 13.9258 144.688 13.2812 145.126 12.75C145.563 12.2109 146.083 11.8008 146.685 11.5195C147.294 11.2305 147.974 11.0859 148.724 11.0859C149.317 11.0859 149.86 11.1719 150.353 11.3438C150.845 11.5156 151.267 11.7891 151.618 12.1641C151.978 12.5391 152.251 13.0352 152.438 13.6523C152.634 14.2695 152.731 15.0234 152.731 15.9141V24H149.333V15.9023C149.333 15.3398 149.255 14.9023 149.099 14.5898C148.942 14.2773 148.712 14.0586 148.407 13.9336C148.11 13.8008 147.743 13.7344 147.306 13.7344C146.853 13.7344 146.458 13.8242 146.122 14.0039C145.794 14.1836 145.521 14.4336 145.302 14.7539C145.091 15.0664 144.931 15.4336 144.821 15.8555C144.712 16.2773 144.657 16.7305 144.657 17.2148ZM162.786 21.2344V6H166.185V24H163.126L162.786 21.2344ZM154.771 17.8125V17.5664C154.771 16.5977 154.88 15.7188 155.099 14.9297C155.317 14.1328 155.638 13.4492 156.06 12.8789C156.481 12.3086 157.001 11.8672 157.618 11.5547C158.235 11.2422 158.938 11.0859 159.728 11.0859C160.47 11.0859 161.118 11.2422 161.673 11.5547C162.235 11.8672 162.712 12.3125 163.103 12.8906C163.501 13.4609 163.821 14.1367 164.063 14.918C164.306 15.6914 164.481 16.5391 164.591 17.4609V18C164.481 18.8828 164.306 19.7031 164.063 20.4609C163.821 21.2188 163.501 21.8828 163.103 22.4531C162.712 23.0156 162.235 23.4531 161.673 23.7656C161.11 24.0781 160.454 24.2344 159.704 24.2344C158.915 24.2344 158.212 24.0742 157.595 23.7539C156.985 23.4336 156.47 22.9844 156.048 22.4062C155.634 21.8281 155.317 21.1484 155.099 20.3672C154.88 19.5859 154.771 18.7344 154.771 17.8125ZM158.146 17.5664V17.8125C158.146 18.3359 158.185 18.8242 158.263 19.2773C158.349 19.7305 158.485 20.1328 158.673 20.4844C158.868 20.8281 159.118 21.0977 159.423 21.293C159.735 21.4805 160.114 21.5742 160.56 21.5742C161.138 21.5742 161.614 21.4453 161.989 21.1875C162.364 20.9219 162.649 20.5586 162.845 20.0977C163.048 19.6367 163.165 19.1055 163.196 18.5039V16.9688C163.173 16.4766 163.103 16.0352 162.985 15.6445C162.876 15.2461 162.712 14.9062 162.493 14.625C162.282 14.3438 162.017 14.125 161.696 13.9688C161.384 13.8125 161.013 13.7344 160.583 13.7344C160.146 13.7344 159.771 13.8359 159.458 14.0391C159.146 14.2344 158.892 14.5039 158.696 14.8477C158.509 15.1914 158.368 15.5977 158.274 16.0664C158.188 16.5273 158.146 17.0273 158.146 17.5664ZM174.657 24.2344C173.673 24.2344 172.79 24.0781 172.009 23.7656C171.228 23.4453 170.563 23.0039 170.017 22.4414C169.478 21.8789 169.063 21.2266 168.774 20.4844C168.485 19.7344 168.341 18.9375 168.341 18.0938V17.625C168.341 16.6641 168.478 15.7852 168.751 14.9883C169.024 14.1914 169.415 13.5 169.923 12.9141C170.438 12.3281 171.063 11.8789 171.798 11.5664C172.532 11.2461 173.36 11.0859 174.282 11.0859C175.181 11.0859 175.978 11.2344 176.673 11.5312C177.368 11.8281 177.95 12.25 178.419 12.7969C178.896 13.3438 179.255 14 179.497 14.7656C179.739 15.5234 179.86 16.3672 179.86 17.2969V18.7031H169.782V16.4531H176.544V16.1953C176.544 15.7266 176.458 15.3086 176.286 14.9414C176.122 14.5664 175.872 14.2695 175.536 14.0508C175.2 13.832 174.771 13.7227 174.247 13.7227C173.802 13.7227 173.419 13.8203 173.099 14.0156C172.778 14.2109 172.517 14.4844 172.313 14.8359C172.118 15.1875 171.97 15.6016 171.868 16.0781C171.774 16.5469 171.728 17.0625 171.728 17.625V18.0938C171.728 18.6016 171.798 19.0703 171.938 19.5C172.087 19.9297 172.294 20.3008 172.56 20.6133C172.833 20.9258 173.161 21.168 173.544 21.3398C173.935 21.5117 174.376 21.5977 174.868 21.5977C175.478 21.5977 176.044 21.4805 176.567 21.2461C177.099 21.0039 177.556 20.6406 177.938 20.1562L179.579 21.9375C179.313 22.3203 178.95 22.6875 178.489 23.0391C178.036 23.3906 177.489 23.6797 176.849 23.9062C176.208 24.125 175.478 24.2344 174.657 24.2344ZM185.157 14.0859V24H181.782V11.3203H184.958L185.157 14.0859ZM188.978 11.2383L188.919 14.3672C188.755 14.3438 188.556 14.3242 188.321 14.3086C188.095 14.2852 187.888 14.2734 187.7 14.2734C187.224 14.2734 186.81 14.3359 186.458 14.4609C186.114 14.5781 185.825 14.7539 185.591 14.9883C185.364 15.2227 185.192 15.5078 185.075 15.8438C184.966 16.1797 184.903 16.5625 184.888 16.9922L184.208 16.7812C184.208 15.9609 184.29 15.207 184.454 14.5195C184.618 13.8242 184.856 13.2188 185.169 12.7031C185.489 12.1875 185.88 11.7891 186.341 11.5078C186.802 11.2266 187.329 11.0859 187.923 11.0859C188.11 11.0859 188.302 11.1016 188.497 11.1328C188.692 11.1562 188.853 11.1914 188.978 11.2383Z" fill="white"/>
<path fill-rule="evenodd" clip-rule="evenodd" d="M230.079 32C238.916 32 246.079 24.8366 246.079 16C246.079 7.16345 238.916 0 230.079 0C221.243 0 214.079 7.16345 214.079 16C214.079 24.8366 221.243 32 230.079 32ZM235.071 7.45348C235.314 6.59044 234.476 6.08011 233.711 6.62504L223.034 14.2317C222.204 14.8226 222.335 16 223.23 16H226.041V15.9782H231.521L227.056 17.5537L225.088 24.5466C224.845 25.4096 225.682 25.9199 226.447 25.375L237.125 17.7684C237.954 17.1774 237.824 16 236.929 16H232.665L235.071 7.45348Z" fill="white"/>
<path d="M267.942 21.2578V24H255.849V21.2578H267.942ZM267.767 8.89453L257.407 24H254.935V21.9844L265.376 6.9375H267.767V8.89453ZM266.56 6.9375V9.69141H254.946V6.9375H266.56ZM269.173 17.7891V17.543C269.173 16.6133 269.306 15.7578 269.571 14.9766C269.837 14.1875 270.224 13.5039 270.731 12.9258C271.239 12.3477 271.864 11.8984 272.606 11.5781C273.349 11.25 274.2 11.0859 275.161 11.0859C276.122 11.0859 276.978 11.25 277.728 11.5781C278.478 11.8984 279.106 12.3477 279.614 12.9258C280.13 13.5039 280.521 14.1875 280.786 14.9766C281.052 15.7578 281.185 16.6133 281.185 17.543V17.7891C281.185 18.7109 281.052 19.5664 280.786 20.3555C280.521 21.1367 280.13 21.8203 279.614 22.4062C279.106 22.9844 278.481 23.4336 277.739 23.7539C276.997 24.0742 276.146 24.2344 275.185 24.2344C274.224 24.2344 273.368 24.0742 272.618 23.7539C271.876 23.4336 271.247 22.9844 270.731 22.4062C270.224 21.8203 269.837 21.1367 269.571 20.3555C269.306 19.5664 269.173 18.7109 269.173 17.7891ZM272.548 17.543V17.7891C272.548 18.3203 272.595 18.8164 272.688 19.2773C272.782 19.7383 272.931 20.1445 273.134 20.4961C273.345 20.8398 273.618 21.1094 273.954 21.3047C274.29 21.5 274.7 21.5977 275.185 21.5977C275.653 21.5977 276.056 21.5 276.392 21.3047C276.728 21.1094 276.997 20.8398 277.2 20.4961C277.403 20.1445 277.552 19.7383 277.646 19.2773C277.747 18.8164 277.798 18.3203 277.798 17.7891V17.543C277.798 17.0273 277.747 16.543 277.646 16.0898C277.552 15.6289 277.399 15.2227 277.188 14.8711C276.985 14.5117 276.716 14.2305 276.38 14.0273C276.044 13.8242 275.638 13.7227 275.161 13.7227C274.685 13.7227 274.278 13.8242 273.942 14.0273C273.614 14.2305 273.345 14.5117 273.134 14.8711C272.931 15.2227 272.782 15.6289 272.688 16.0898C272.595 16.543 272.548 17.0273 272.548 17.543ZM282.72 17.7891V17.543C282.72 16.6133 282.853 15.7578 283.118 14.9766C283.384 14.1875 283.771 13.5039 284.278 12.9258C284.786 12.3477 285.411 11.8984 286.153 11.5781C286.896 11.25 287.747 11.0859 288.708 11.0859C289.669 11.0859 290.524 11.25 291.274 11.5781C292.024 11.8984 292.653 12.3477 293.161 12.9258C293.677 13.5039 294.067 14.1875 294.333 14.9766C294.599 15.7578 294.731 16.6133 294.731 17.543V17.7891C294.731 18.7109 294.599 19.5664 294.333 20.3555C294.067 21.1367 293.677 21.8203 293.161 22.4062C292.653 22.9844 292.028 23.4336 291.286 23.7539C290.544 24.0742 289.692 24.2344 288.731 24.2344C287.771 24.2344 286.915 24.0742 286.165 23.7539C285.423 23.4336 284.794 22.9844 284.278 22.4062C283.771 21.8203 283.384 21.1367 283.118 20.3555C282.853 19.5664 282.72 18.7109 282.72 17.7891ZM286.095 17.543V17.7891C286.095 18.3203 286.142 18.8164 286.235 19.2773C286.329 19.7383 286.478 20.1445 286.681 20.4961C286.892 20.8398 287.165 21.1094 287.501 21.3047C287.837 21.5 288.247 21.5977 288.731 21.5977C289.2 21.5977 289.603 21.5 289.938 21.3047C290.274 21.1094 290.544 20.8398 290.747 20.4961C290.95 20.1445 291.099 19.7383 291.192 19.2773C291.294 18.8164 291.345 18.3203 291.345 17.7891V17.543C291.345 17.0273 291.294 16.543 291.192 16.0898C291.099 15.6289 290.946 15.2227 290.735 14.8711C290.532 14.5117 290.263 14.2305 289.927 14.0273C289.591 13.8242 289.185 13.7227 288.708 13.7227C288.231 13.7227 287.825 13.8242 287.489 14.0273C287.161 14.2305 286.892 14.5117 286.681 14.8711C286.478 15.2227 286.329 15.6289 286.235 16.0898C286.142 16.543 286.095 17.0273 286.095 17.543ZM300.181 13.9453V24H296.794V11.3203H299.97L300.181 13.9453ZM299.712 17.2148H298.774C298.774 16.332 298.88 15.5195 299.091 14.7773C299.31 14.0273 299.626 13.3789 300.04 12.832C300.462 12.2773 300.981 11.8477 301.599 11.543C302.216 11.2383 302.931 11.0859 303.743 11.0859C304.306 11.0859 304.821 11.1719 305.29 11.3438C305.759 11.5078 306.161 11.7695 306.497 12.1289C306.841 12.4805 307.106 12.9414 307.294 13.5117C307.481 14.0742 307.575 14.75 307.575 15.5391V24H304.2V15.9141C304.2 15.3359 304.122 14.8906 303.966 14.5781C303.81 14.2656 303.587 14.0469 303.298 13.9219C303.017 13.7969 302.677 13.7344 302.278 13.7344C301.841 13.7344 301.458 13.8242 301.13 14.0039C300.81 14.1836 300.544 14.4336 300.333 14.7539C300.122 15.0664 299.966 15.4336 299.864 15.8555C299.763 16.2773 299.712 16.7305 299.712 17.2148ZM307.259 16.8281L306.052 16.9805C306.052 16.1523 306.153 15.3828 306.356 14.6719C306.567 13.9609 306.876 13.3359 307.282 12.7969C307.696 12.2578 308.208 11.8398 308.817 11.543C309.427 11.2383 310.13 11.0859 310.927 11.0859C311.536 11.0859 312.091 11.1758 312.591 11.3555C313.091 11.5273 313.517 11.8047 313.868 12.1875C314.228 12.5625 314.501 13.0547 314.688 13.6641C314.884 14.2734 314.981 15.0195 314.981 15.9023V24H311.595V15.9023C311.595 15.3164 311.517 14.8711 311.36 14.5664C311.212 14.2539 310.993 14.0391 310.704 13.9219C310.423 13.7969 310.087 13.7344 309.696 13.7344C309.29 13.7344 308.935 13.8164 308.63 13.9805C308.325 14.1367 308.071 14.3555 307.868 14.6367C307.665 14.918 307.513 15.2461 307.411 15.6211C307.31 15.9883 307.259 16.3906 307.259 16.8281ZM323.431 24.2344C322.446 24.2344 321.563 24.0781 320.782 23.7656C320.001 23.4453 319.337 23.0039 318.79 22.4414C318.251 21.8789 317.837 21.2266 317.548 20.4844C317.259 19.7344 317.114 18.9375 317.114 18.0938V17.625C317.114 16.6641 317.251 15.7852 317.524 14.9883C317.798 14.1914 318.188 13.5 318.696 12.9141C319.212 12.3281 319.837 11.8789 320.571 11.5664C321.306 11.2461 322.134 11.0859 323.056 11.0859C323.954 11.0859 324.751 11.2344 325.446 11.5312C326.142 11.8281 326.724 12.25 327.192 12.7969C327.669 13.3438 328.028 14 328.271 14.7656C328.513 15.5234 328.634 16.3672 328.634 17.2969V18.7031H318.556V16.4531H325.317V16.1953C325.317 15.7266 325.231 15.3086 325.06 14.9414C324.896 14.5664 324.646 14.2695 324.31 14.0508C323.974 13.832 323.544 13.7227 323.021 13.7227C322.575 13.7227 322.192 13.8203 321.872 14.0156C321.552 14.2109 321.29 14.4844 321.087 14.8359C320.892 15.1875 320.743 15.6016 320.642 16.0781C320.548 16.5469 320.501 17.0625 320.501 17.625V18.0938C320.501 18.6016 320.571 19.0703 320.712 19.5C320.86 19.9297 321.067 20.3008 321.333 20.6133C321.606 20.9258 321.935 21.168 322.317 21.3398C322.708 21.5117 323.149 21.5977 323.642 21.5977C324.251 21.5977 324.817 21.4805 325.341 21.2461C325.872 21.0039 326.329 20.6406 326.712 20.1562L328.353 21.9375C328.087 22.3203 327.724 22.6875 327.263 23.0391C326.81 23.3906 326.263 23.6797 325.622 23.9062C324.981 24.125 324.251 24.2344 323.431 24.2344ZM333.931 14.0859V24H330.556V11.3203H333.731L333.931 14.0859ZM337.751 11.2383L337.692 14.3672C337.528 14.3438 337.329 14.3242 337.095 14.3086C336.868 14.2852 336.661 14.2734 336.474 14.2734C335.997 14.2734 335.583 14.3359 335.231 14.4609C334.888 14.5781 334.599 14.7539 334.364 14.9883C334.138 15.2227 333.966 15.5078 333.849 15.8438C333.739 16.1797 333.677 16.5625 333.661 16.9922L332.981 16.7812C332.981 15.9609 333.063 15.207 333.228 14.5195C333.392 13.8242 333.63 13.2188 333.942 12.7031C334.263 12.1875 334.653 11.7891 335.114 11.5078C335.575 11.2266 336.103 11.0859 336.696 11.0859C336.884 11.0859 337.075 11.1016 337.271 11.1328C337.466 11.1562 337.626 11.1914 337.751 11.2383ZM342.72 14.0859V24H339.345V11.3203H342.521L342.72 14.0859ZM346.54 11.2383L346.481 14.3672C346.317 14.3438 346.118 14.3242 345.884 14.3086C345.657 14.2852 345.45 14.2734 345.263 14.2734C344.786 14.2734 344.372 14.3359 344.021 14.4609C343.677 14.5781 343.388 14.7539 343.153 14.9883C342.927 15.2227 342.755 15.5078 342.638 15.8438C342.528 16.1797 342.466 16.5625 342.45 16.9922L341.771 16.7812C341.771 15.9609 341.853 15.207 342.017 14.5195C342.181 13.8242 342.419 13.2188 342.731 12.7031C343.052 12.1875 343.442 11.7891 343.903 11.5078C344.364 11.2266 344.892 11.0859 345.485 11.0859C345.673 11.0859 345.864 11.1016 346.06 11.1328C346.255 11.1562 346.415 11.1914 346.54 11.2383Z" fill="white"/>
<path fill-rule="evenodd" clip-rule="evenodd" d="M51.7861 72.3482L51.7877 72.1879L51.7909 72.0275L51.7957 71.8671L51.8022 71.7067L51.8103 71.5463L51.8201 71.3859L51.8315 71.2256L51.8445 71.0653L51.8593 70.905L51.8756 70.7448L51.8937 70.5848L51.9133 70.4248L51.9346 70.265L51.9576 70.1053L51.9822 69.9458L52.0084 69.7865L52.0363 69.6273L52.0659 69.4684L52.097 69.3097L52.1298 69.1512L52.1643 68.993L52.2004 68.835L52.2381 68.6774L52.2775 68.5201L52.3184 68.3631L52.361 68.2064L52.4053 68.0501L52.4511 67.8942L52.4986 67.7386L52.5477 67.5835L52.5983 67.4288L52.6506 67.2745L52.7045 67.1206L52.76 66.9673L52.8171 66.8144L52.8758 66.662L52.936 66.5102L52.9979 66.3588L53.0613 66.2081L53.1263 66.0578L53.1928 65.9082L53.2609 65.7591L53.3306 65.6107L53.4018 65.4629L53.4746 65.3157L53.5489 65.1692L53.6247 65.0234L53.7021 64.8782L53.7809 64.7338L53.8613 64.59L53.9432 64.447L54.0266 64.3047L54.1114 64.1632L54.1978 64.0225L54.2856 63.8826L54.3749 63.7434L54.4657 63.6052L54.5579 63.4677L54.6515 63.3311L54.7466 63.1954L54.8432 63.0605L54.9411 62.9266L55.0405 62.7934L55.1412 62.6614L55.2434 62.5302L55.3469 62.3999L55.4518 62.2706L55.5581 62.1423L55.6657 62.015L55.7747 61.8887L55.885 61.7634L55.9966 61.6391L56.1096 61.5159L56.2238 61.3938L56.3394 61.2727L56.4562 61.1527L56.5743 61.0338L56.6937 60.9161L56.8143 60.7994L56.9362 60.6839L57.0593 60.5695L57.1836 60.4563L57.3092 60.3443L57.4359 60.2335L57.5638 60.1239L57.6929 60.0154L57.8231 59.9082L57.9545 59.8023L58.087 59.6976L58.2207 59.5941L58.3554 59.4919L58.4913 59.391L58.6283 59.2914L58.7663 59.1931L58.9053 59.0962L59.0455 59.0005L59.1866 58.9062L59.3288 58.8132L59.472 58.7216L59.6162 58.6314L59.7613 58.5425L59.9075 58.455L60.0545 58.3689L60.2025 58.2843L60.3515 58.201L60.5013 58.1192L60.6521 58.0388L60.8037 57.9599L60.9561 57.8824L61.1095 57.8064L61.2637 57.7319L61.4187 57.6588L61.5745 57.5873L61.7311 57.5172L61.8885 57.4486L62.0466 57.3816L62.2055 57.3161L62.3651 57.2521L62.5254 57.1897L62.6865 57.1288L62.8481 57.0695L63.0105 57.0117L63.1736 56.9555L63.3373 56.9009L63.5015 56.8479L63.6664 56.7964L63.8319 56.7466L63.998 56.6983L64.1645 56.6517L64.3317 56.6067L64.4994 56.5633L64.6676 56.5215L64.8362 56.4814L65.0054 56.4429L65.175 56.406L65.345 56.3708L65.5155 56.3373L65.6864 56.3054L65.8577 56.2751L66.0293 56.2466L66.2013 56.2197L66.3737 56.1945L66.5463 56.171L66.7193 56.1491L66.8925 56.1289L67.0661 56.1105L67.2398 56.0937L67.4138 56.0786L67.5881 56.0652L67.7625 56.0536L68.7004 56L68.7539 60.5189L68.7845 60.5186L68.9141 60.5184L69.0436 60.5195L69.1731 60.5218L69.3028 60.5255L69.4324 60.5304L69.5621 60.5366L69.6917 60.544L69.8214 60.5528L69.951 60.5628L70.0807 60.5741L70.2102 60.5867L70.3397 60.6005L70.4691 60.6156L70.5985 60.6321L70.7277 60.6497L70.8568 60.6687L70.9857 60.689L71.1146 60.7105L71.2433 60.7333L71.3718 60.7573L71.5001 60.7827L71.6282 60.8093L71.7562 60.8372L71.8839 60.8664L72.0113 60.8968L72.1386 60.9285L72.2656 60.9614L72.3922 60.9957L72.5186 61.0312L72.6448 61.0679L72.7705 61.1059L72.896 61.1452L73.0211 61.1857L73.1459 61.2274L73.2703 61.2704L73.3943 61.3147L73.518 61.3602L73.6412 61.4069L73.764 61.4548L73.8864 61.504L74.0083 61.5544L74.1297 61.6061L74.2508 61.6589L74.3713 61.713L74.4913 61.7683L74.6109 61.8248L74.7299 61.8824L74.8484 61.9413L74.9663 62.0014L75.0837 62.0627L75.2005 62.1251L75.3167 62.1888L75.4323 62.2536L75.5473 62.3195L75.6617 62.3867L75.7755 62.455L75.8886 62.5244L76.0011 62.595L76.1129 62.6667L76.224 62.7395L76.3344 62.8135L76.4441 62.8886L76.5531 62.9648L76.6614 63.0422L76.7689 63.1206L76.8757 63.2001L76.9817 63.2807L77.0869 63.3624L77.1914 63.4452L77.295 63.529L77.3979 63.6138L77.4999 63.6998L77.6011 63.7868L77.7015 63.8748L77.801 63.9638L77.8996 64.0539L77.9973 64.145L78.0942 64.2371L78.1902 64.3302L78.2853 64.4242L78.3794 64.5193L78.4726 64.6154L78.5649 64.7123L78.6562 64.8102L78.7466 64.9091L78.836 65.009L78.9244 65.1097L79.0118 65.2114L79.0982 65.3139L79.1837 65.4174L79.2681 65.5218L79.3514 65.627L79.4337 65.733L79.515 65.84L79.5953 65.9478L79.6744 66.0565L79.7525 66.166L79.8294 66.2763L79.9053 66.3874L79.9801 66.4993L80.0538 66.612L80.1264 66.7255L80.1977 66.8398L80.2681 66.9547L80.3372 67.0705L80.4052 67.187L80.472 67.3042L80.5377 67.4221L80.6021 67.5407L80.6654 67.66L80.7275 67.78L80.7884 67.9006L80.8481 68.0219L80.9065 68.1439L80.9638 68.2665L81.0198 68.3897L81.0746 68.5135L81.1281 68.6379L81.1804 68.763L81.2314 68.8885L81.2812 69.0146L81.3297 69.1413L81.3769 69.2686L81.4228 69.3962L81.4674 69.5246L81.5108 69.6533L81.5529 69.7826L81.5936 69.9122L81.633 70.0424L81.6711 70.173L81.7079 70.3041L81.7433 70.4356L81.7775 70.5675L81.8102 70.6998L81.8417 70.8325L81.8718 70.9655L81.9005 71.099L81.928 71.2326L81.954 71.3668L81.9786 71.5012L82.002 71.6359L82.0239 71.7709L82.0445 71.9062L82.0637 72.0418L82.0814 72.1775L82.0978 72.3136L82.1129 72.4498L82.1265 72.5863L82.1387 72.723L82.1496 72.8598L82.159 72.9969L82.167 73.1341L82.1737 73.2714L82.1789 73.4089L82.1827 73.5464L82.1852 73.6841L82.1861 73.8218L82.1857 73.9597L82.1839 74.0976L82.1806 74.2356L82.176 74.3735L82.1699 74.5115L82.1625 74.6495L82.1535 74.7875L82.1432 74.9255L82.1314 75.0634L82.1182 75.2014L82.1037 75.3392L82.0876 75.4769L82.0701 75.6146L82.0513 75.7521L82.031 75.8895L82.0093 76.0268L81.9862 76.1639L81.9617 76.3009L81.9357 76.4377L81.9084 76.5743L81.8796 76.7107L81.8493 76.8469L81.8177 76.9829L81.7848 77.1186L81.7503 77.254L81.7145 77.3891L81.6773 77.524L81.6386 77.6586L81.5986 77.7928L81.5572 77.9268L81.5143 78.0603L81.4701 78.1936L81.4245 78.3264L81.3775 78.4589L81.3292 78.591L81.2794 78.7226L81.2283 78.8538L81.1758 78.9846L81.122 79.1149L81.0668 79.2447L81.0102 79.3742L80.9523 79.503L80.893 79.6314L80.8324 79.7592L80.7705 79.8865L80.7071 80.0133L80.6425 80.1394L80.5765 80.2651L80.5093 80.3901L80.4407 80.5146L80.3709 80.6383L80.2997 80.7615L80.2272 80.8841L80.1534 81.0059L80.0784 81.1272L80.002 81.2477L79.9244 81.3675L79.8456 81.4866L79.7654 81.605L79.6841 81.7227L79.6014 81.8397L79.5176 81.9558L79.4325 82.0713L79.3461 82.1859L79.2586 82.2998L79.1699 82.4127L79.08 82.525L78.9889 82.6363L78.8965 82.7468L78.803 82.8565L78.7084 82.9653L78.6125 83.0732L78.5156 83.1802L78.4175 83.2864L78.3183 83.3916L78.2179 83.4959L78.1165 83.5992L78.0138 83.7016L77.9101 83.803L77.8054 83.9035L77.6996 84.003L77.5927 84.1015L77.4847 84.199L77.3757 84.2954L77.2657 84.3909L77.1545 84.4854L77.0425 84.5787L76.9293 84.671L76.8153 84.7622L76.7001 84.8524L76.5841 84.9414L76.467 85.0294L76.349 85.1162L76.2301 85.202L76.1102 85.2866L75.9894 85.3701L75.8677 85.4524L75.7452 85.5335L75.6217 85.6135L75.4973 85.6924L75.3721 85.77L75.2461 85.8465L75.1191 85.9217L74.9913 85.9958L74.8629 86.0686L74.7334 86.1401L74.6033 86.2105L74.4724 86.2795L74.3407 86.3474L74.2082 86.414L74.075 86.4793L73.9411 86.5433L73.8065 86.6061L73.6711 86.6675L73.5351 86.7277L73.3984 86.7865L73.261 86.844L73.123 86.9002L72.9844 86.9551L72.8451 87.0086L72.7052 87.0609L72.5647 87.1117L72.4236 87.1612L72.282 87.2093L72.1398 87.2561L71.997 87.3014L71.8537 87.3454L71.71 87.3881L71.5657 87.4293L71.4209 87.4691L71.2757 87.5076L71.13 87.5446L70.9839 87.5802L70.8373 87.6144L70.6903 87.6471L70.5429 87.6785L70.3952 87.7084L70.247 87.7369L70.0985 87.7639L69.9497 87.7894L69.8005 87.8136L69.6511 87.8363L69.5013 87.8575L69.3513 87.8773L69.2009 87.8956L69.0503 87.9124L68.8995 87.9278L68.7485 87.9417L68.5973 87.9541L68.4458 87.965L68.2942 87.9745L68.1424 87.9825L67.9905 87.989L67.8385 87.9939L67.6862 87.9974L67.534 87.9994L67.3816 88L67.2292 87.999L67.0767 87.9966L66.9241 87.9926L66.7716 87.9871L66.619 87.9802L66.4665 87.9718L66.314 87.9618L66.1614 87.9503L66.009 87.9374L65.8566 87.9229L65.7043 87.907L65.5521 87.8895L65.4001 87.8706L65.2481 87.8501L65.0963 87.8281L64.9446 87.8046L64.7932 87.7797L64.6419 87.7533L64.4908 87.7253L64.34 87.6958L64.1893 87.665L64.039 87.6325L63.8889 87.5986L63.7391 87.5632L63.5896 87.5263L63.4404 87.4879L63.2915 87.4481L63.143 87.4068L62.9949 87.364L62.847 87.3198L62.6997 87.274L62.5527 87.2268L62.4061 87.1782L62.26 87.128L62.1143 87.0764L61.9691 87.0234L61.8244 86.969L61.6801 86.913L61.5365 86.8557L61.3933 86.7969L61.2506 86.7366L61.1085 86.675L60.967 86.612L60.8261 86.5475L60.6857 86.4816L60.5461 86.4143L60.407 86.3456L60.2685 86.2755L60.1308 86.2041L59.9937 86.1312L59.8573 86.057L59.7216 85.9814L59.5866 85.9045L59.4524 85.8262L59.3189 85.7465L59.1861 85.6655L59.0541 85.5831L58.9229 85.4995L58.7926 85.4145L58.663 85.3282L58.5343 85.2406L58.4065 85.1517L58.2794 85.0615L58.1533 84.97L58.028 84.8773L57.9036 84.7832L57.7802 84.6879L57.6577 84.5914L57.5361 84.4936L57.4154 84.3946L57.2958 84.2944L57.1771 84.193L57.0594 84.0903L56.9427 83.9864L56.827 83.8814L56.7123 83.7752L56.5987 83.6678L56.4862 83.5593L56.3747 83.4495L56.2643 83.3387L56.1549 83.2268L56.0467 83.1137L55.9396 82.9995L55.8336 82.8842L55.7288 82.7678L55.6251 82.6504L55.5226 82.5319L55.4212 82.4123L55.3211 82.2918L55.2221 82.1701L55.1243 82.0474L55.0278 81.9238L54.9325 81.7991L54.8384 81.6734L54.7456 81.5468L54.654 81.4192L54.5637 81.2906L54.4747 81.1612L54.3869 81.0308L54.3005 80.8994L54.2154 80.7673L54.1316 80.6342L54.0491 80.5002L53.968 80.3654L53.8883 80.2296L53.8098 80.0931L53.7328 79.9558L53.6571 79.8176L53.5828 79.6786L53.5099 79.5388L53.4385 79.3983L53.3684 79.257L53.2997 79.115L53.2325 78.9722L53.1667 78.8288L53.1024 78.6846L53.0395 78.5398L52.9781 78.3942L52.9181 78.248L52.8596 78.1011L52.8026 77.9536L52.7471 77.8055L52.6931 77.6568L52.6405 77.5075L52.5895 77.3577L52.54 77.2072L52.4921 77.0562L52.4456 76.9047L52.4007 76.7527L52.3573 76.6002L52.3155 76.4471L52.2752 76.2937L52.2365 76.1398L52.1994 75.9854L52.1638 75.8306L52.1298 75.6753L52.0974 75.5197L52.0665 75.3637L52.0372 75.2074L52.0096 75.0506L51.9835 74.8936L51.959 74.7362L51.9361 74.5786L51.9149 74.4206L51.8952 74.2623L51.8772 74.1038L51.8608 73.9451L51.846 73.7862L51.8328 73.627L51.8212 73.4677L51.8113 73.3082L51.803 73.1485L51.7964 72.9886L51.7914 72.8287L51.788 72.6686L51.7862 72.5085L51.7861 72.3482ZM67.2886 60.6136L67.2521 57.5334L67.2175 57.5368L67.0585 57.5537L66.8998 57.5722L66.7413 57.5922L66.5833 57.6137L66.4256 57.6368L66.268 57.6614L66.1109 57.6876L65.9539 57.7153L65.7977 57.7444L65.6413 57.7752L65.4861 57.8074L65.3305 57.8412L65.1758 57.8764L65.0213 57.9132L64.8674 57.9513L64.714 57.9911L64.5609 58.0323L64.4084 58.075L64.2565 58.1191L64.1049 58.1648L63.9541 58.2118L63.8037 58.2604L63.6541 58.3103L63.5048 58.3618L63.3562 58.4146L63.2084 58.4689L63.0609 58.5246L62.9143 58.5817L62.7685 58.6402L62.623 58.7002L62.4783 58.7615L62.3343 58.8242L62.1911 58.8883L62.0486 58.9537L61.9069 59.0205L61.7657 59.0887L61.6256 59.1582L61.4861 59.2291L61.3475 59.3012L61.2097 59.3748L61.0728 59.4495L60.9365 59.5257L60.801 59.6031L60.6668 59.6817L60.5329 59.7618L60.4004 59.843L60.2687 59.9254L60.1377 60.0092L60.0077 60.0943L59.8786 60.1805L59.7508 60.2678L59.6234 60.3566L59.4973 60.4464L59.3722 60.5374L59.248 60.6296L59.1249 60.723L59.0029 60.8175L58.8816 60.9133L58.7617 61.01L58.6426 61.108L58.5247 61.207L58.4078 61.3072L58.2921 61.4084L58.1773 61.5108L58.0638 61.6142L57.9513 61.7187L57.84 61.8241L57.7298 61.9307L57.6208 62.0382L57.513 62.1468L57.4061 62.2565L57.3007 62.367L57.1964 62.4784L57.0931 62.5911L56.9912 62.7046L56.8906 62.8188L56.791 62.9342L56.6928 63.0504L56.5958 63.1676L56.5 63.2856L56.4055 63.4046L56.3122 63.5243L56.2203 63.6449L56.1296 63.7663L56.0401 63.8887L55.9521 64.0117L55.8653 64.1357L55.7798 64.2603L55.6957 64.3858L55.6128 64.512L55.5313 64.639L55.4512 64.7666L55.3724 64.895L55.295 65.024L55.2189 65.1538L55.1442 65.2844L55.0709 65.4154L54.9989 65.5472L54.9284 65.6797L54.8592 65.8127L54.7914 65.9464L54.7251 66.0806L54.6601 66.2154L54.5966 66.3507L54.5345 66.4867L54.4738 66.6231L54.4145 66.7602L54.3567 66.8977L54.3003 67.0356L54.2454 67.1741L54.1919 67.313L54.1398 67.4524L54.0892 67.5922L54.0401 67.7324L53.9924 67.8731L53.9462 68.0142L53.9015 68.1556L53.8582 68.2973L53.8164 68.4395L53.7761 68.5819L53.7373 68.7247L53.7 68.8678L53.6641 69.0112L53.6297 69.1548L53.5968 69.2987L53.5655 69.4429L53.5356 69.5873L53.5072 69.7318L53.4802 69.8766L53.4548 70.0216L53.4309 70.1668L53.4085 70.3121L53.3876 70.4575L53.3682 70.6031L53.3503 70.7488L53.3339 70.8946L53.319 71.0405L53.3056 71.1864L53.2937 71.3323L53.2833 71.4784L53.2744 71.6245L53.267 71.7705L53.2611 71.9166L53.2567 72.0626L53.2538 72.2086L53.2524 72.3545L53.2525 72.5004L53.2541 72.6462L53.2571 72.7919L53.2617 72.9375L53.2678 73.083L53.2753 73.2283L53.2843 73.3734L53.2948 73.5185L53.3068 73.6633L53.3203 73.8079L53.3352 73.9524L53.3517 74.0966L53.3695 74.2406L53.3889 74.3842L53.4097 74.5277L53.432 74.6709L53.4557 74.8137L53.4809 74.9562L53.5075 75.0985L53.5355 75.2403L53.565 75.3819L53.5959 75.523L53.6283 75.6638L53.6621 75.8042L53.6973 75.9442L53.7339 76.0838L53.7719 76.2229L53.8114 76.3616L53.8522 76.4998L53.8944 76.6376L53.938 76.7749L53.983 76.9116L54.0294 77.0478L54.0771 77.1835L54.1262 77.3187L54.1767 77.4533L54.2285 77.5874L54.2817 77.7208L54.3362 77.8537L54.392 77.9859L54.4491 78.1175L54.5076 78.2486L54.5674 78.379L54.6285 78.5086L54.6908 78.6377L54.7545 78.766L54.8194 78.8937L54.8856 79.0206L54.9531 79.1469L55.0219 79.2724L55.0918 79.3971L55.163 79.5211L55.2355 79.6444L55.3092 79.7668L55.384 79.8885L55.4601 80.0094L55.5374 80.1294L55.6159 80.2486L55.6955 80.367L55.7764 80.4846L55.8583 80.6013L55.9415 80.7171L56.0257 80.8321L56.1111 80.9462L56.1976 81.0593L56.2853 81.1715L56.374 81.2828L56.4638 81.3932L56.5547 81.5027L56.6467 81.6112L56.7397 81.7187L56.8338 81.8253L56.9289 81.9309L57.0251 82.0354L57.1222 82.139L57.2204 82.2416L57.3196 82.3432L57.4197 82.4438L57.5209 82.5432L57.623 82.6417L57.726 82.739L57.83 82.8354L57.9349 82.9307L58.0407 83.0249L58.1474 83.1179L58.2551 83.2099L58.3637 83.3008L58.4729 83.3906L58.5833 83.4793L58.6943 83.5667L58.8062 83.6531L58.9189 83.7384L59.0325 83.8225L59.1469 83.9054L59.262 83.9871L59.3778 84.0677L59.4945 84.1471L59.6119 84.2253L59.7301 84.3023L59.8489 84.3782L59.9685 84.4527L60.0889 84.5262L60.2097 84.5983L60.3314 84.6693L60.4537 84.739L60.5766 84.8074L60.7001 84.8746L60.8244 84.9406L60.9491 85.0054L61.0745 85.0689L61.2005 85.131L61.327 85.192L61.4541 85.2517L61.5817 85.3101L61.7097 85.3671L61.8385 85.423L61.9676 85.4774L62.0973 85.5307L62.2273 85.5826L62.3579 85.6332L62.4889 85.6826L62.6203 85.7306L62.7521 85.7772L62.8845 85.8226L63.0171 85.8666L63.1501 85.9094L63.2834 85.9507L63.4173 85.9908L63.5513 86.0295L63.6857 86.0669L63.8204 86.103L63.9553 86.1377L64.0906 86.171L64.2261 86.203L64.3619 86.2338L64.4979 86.263L64.6341 86.291L64.7705 86.3177L64.9072 86.343L65.044 86.3669L65.1809 86.3894L65.3181 86.4106L65.4553 86.4305L65.5928 86.449L65.7302 86.4662L65.8678 86.4819L66.0055 86.4963L66.1433 86.5094L66.2811 86.5211L66.4189 86.5315L66.5568 86.5405L66.6947 86.5482L66.8325 86.5544L66.9704 86.5594L67.1082 86.563L67.2461 86.5651L67.3837 86.566L67.5214 86.5655L67.659 86.5637L67.7965 86.5606L67.9338 86.556L68.0711 86.5502L68.2082 86.543L68.3451 86.5344L68.4819 86.5246L68.6185 86.5134L68.7549 86.5008L68.8911 86.4869L69.0271 86.4717L69.1628 86.4552L69.2983 86.4374L69.4335 86.4182L69.5685 86.3977L69.7031 86.3759L69.8375 86.3528L69.9716 86.3284L70.1053 86.3027L70.2386 86.2758L70.3717 86.2474L70.5043 86.2179L70.6365 86.187L70.7685 86.1549L70.8999 86.1215L71.0309 86.0868L71.1615 86.0509L71.2917 86.0137L71.4214 85.9752L71.5507 85.9355L71.6794 85.8946L71.8077 85.8524L71.9355 85.809L72.0626 85.7644L72.1894 85.7185L72.3156 85.6714L72.4412 85.6231L72.5662 85.5737L72.6906 85.523L72.8145 85.4711L72.9377 85.4181L73.0604 85.3638L73.1823 85.3085L73.3037 85.2519L73.4245 85.1942L73.5445 85.1354L73.6639 85.0753L73.7825 85.0142L73.9005 84.9519L74.0179 84.8885L74.1344 84.824L74.2502 84.7584L74.3653 84.6918L74.4797 84.6239L74.5932 84.5551L74.7061 84.4851L74.8181 84.4142L74.9293 84.3421L75.0397 84.269L75.1494 84.1947L75.2581 84.1197L75.366 84.0434L75.4731 83.9662L75.5793 83.8881L75.6848 83.8088L75.7892 83.7287L75.8929 83.6474L75.9956 83.5654L76.0973 83.4823L76.1984 83.3982L76.2984 83.3132L76.3973 83.2274L76.4955 83.1405L76.5926 83.0528L76.6889 82.9642L76.7841 82.8746L76.8783 82.7843L76.9717 82.693L77.064 82.6008L77.1553 82.5078L77.2456 82.414L77.3348 82.3194L77.4229 82.2241L77.5103 82.1276L77.5964 82.0306L77.6816 81.9327L77.7656 81.8342L77.8486 81.7347L77.9305 81.6346L78.0113 81.5338L78.0912 81.4321L78.1698 81.3298L78.2475 81.2267L78.3239 81.123L78.3993 81.0186L78.4737 80.9134L78.5467 80.8078L78.6188 80.7013L78.6896 80.5943L78.7593 80.4866L78.8281 80.3782L78.8954 80.2694L78.9617 80.1599L79.0269 80.0496L79.0907 79.9391L79.1535 79.8278L79.2152 79.716L79.2755 79.6038L79.3348 79.4909L79.3929 79.3774L79.4496 79.2639L79.5053 79.1494L79.5597 79.0346L79.6129 78.9194L79.6649 78.8037L79.7157 78.6875L79.7653 78.571L79.8137 78.4539L79.8608 78.3365L79.9066 78.219L79.9513 78.1006L79.9946 77.9822L80.0369 77.8632L80.0778 77.744L80.1175 77.6244L80.1558 77.5048L80.1931 77.3843L80.2289 77.264L80.2636 77.1433L80.297 77.0224L80.3292 76.901L80.36 76.7797L80.3897 76.6579L80.418 76.5359L80.4451 76.4138L80.4709 76.2914L80.4954 76.1691L80.5187 76.0462L80.5407 75.9237L80.5614 75.8006L80.5809 75.6775L80.599 75.5544L80.616 75.431L80.6316 75.3078L80.646 75.1841L80.659 75.0608L80.6709 74.9371L80.6813 74.8137L80.6906 74.6898L80.6986 74.5665L80.7053 74.4427L80.7108 74.3189L80.7149 74.1954L80.7179 74.0721L80.7195 73.9483L80.7199 73.8248L80.719 73.7014L80.7169 73.5782L80.7134 73.4549L80.7087 73.3321L80.7028 73.2088L80.6956 73.0861L80.6871 72.9634L80.6774 72.841L80.6665 72.7185L80.6543 72.5965L80.6409 72.4744L80.6261 72.3527L80.6102 72.2311L80.5931 72.1099L80.5746 71.9886L80.555 71.8679L80.5342 71.7476L80.5121 71.6272L80.4888 71.5072L80.4643 71.3877L80.4385 71.2681L80.4117 71.1494L80.3835 71.0305L80.3543 70.9124L80.3237 70.7942L80.292 70.6768L80.2591 70.5596L80.225 70.4426L80.1898 70.3264L80.1534 70.2106L80.1157 70.0948L80.0771 69.9799L80.0371 69.8651L79.9961 69.751L79.9539 69.6372L79.9106 69.5242L79.8661 69.4113L79.8205 69.299L79.7738 69.1875L79.7261 69.0765L79.6769 68.9656L79.6271 68.8558L79.5758 68.746L79.5237 68.6373L79.4704 68.529L79.4159 68.421L79.3605 68.314L79.304 68.2074L79.2463 68.1014L79.1879 67.9963L79.1281 67.8915L79.0675 67.7876L79.0057 67.6842L78.9431 67.5818L78.8792 67.4796L78.8145 67.3784L78.7487 67.2777L78.682 67.1778L78.6144 67.0789L78.5456 66.9803L78.4759 66.8826L78.4053 66.7857L78.3337 66.6896L78.2613 66.5941L78.1878 66.4995L78.1135 66.4056L78.0382 66.3126L77.9621 66.2203L77.8849 66.1288L77.8069 66.0382L77.7281 65.9483L77.6485 65.8594L77.568 65.7712L77.4864 65.6838L77.4044 65.5975L77.321 65.5118L77.2373 65.4272L77.1525 65.3433L77.0671 65.2604L76.9805 65.1782L76.8937 65.0972L76.8057 65.0169L76.7169 64.9375L76.6277 64.8592L76.5377 64.7818L76.4465 64.705L76.3549 64.6294L76.2627 64.5548L76.1697 64.4811L76.0759 64.4083L75.9817 64.3367L75.8864 64.2657L75.7908 64.196L75.6944 64.1272L75.5973 64.0593L75.4997 63.9925L75.4012 63.9265L75.3026 63.8618L75.2029 63.7979L75.1029 63.7351L75.0021 63.6733L74.9009 63.6125L74.7992 63.5528L74.697 63.4942L74.5939 63.4364L74.4908 63.3799L74.3868 63.3243L74.2824 63.2698L74.1776 63.2165L74.0721 63.1641L73.9663 63.1127L73.8601 63.0626L73.7533 63.0134L73.6462 62.9654L73.5386 62.9183L73.4272 62.871L73.3224 62.8277L73.2133 62.7838L73.1045 62.7414L72.9947 62.6997L72.8849 62.6594L72.7747 62.62L72.6642 62.5818L72.5533 62.5446L72.4422 62.5087L72.3307 62.4738L72.2189 62.4401L72.1071 62.4075L71.9948 62.376L71.8821 62.3455L71.7695 62.3163L71.6567 62.2882L71.5432 62.2611L71.4301 62.2353L71.3164 62.2105L71.2027 62.1869L71.0886 62.1643L70.9747 62.143L70.8605 62.1227L70.7463 62.1037L70.6316 62.0857L70.5172 62.0689L70.4025 62.0532L70.2877 62.0386L70.1729 62.0252L70.0581 62.0129L69.9433 62.0018L69.8283 61.9917L69.7133 61.9829L69.5981 61.9751L69.4833 61.9685L69.3685 61.963L69.2532 61.9586L69.1385 61.9554L69.0237 61.9533L68.9089 61.9524L68.7939 61.9525L68.7709 61.9528L68.8071 65.0106L68.8723 65.0102L68.9562 65.0107L69.0401 65.012L69.1241 65.0142L69.2082 65.0171L69.2923 65.021L69.3764 65.0256L69.4605 65.031L69.5447 65.0374L69.6289 65.0445L69.713 65.0525L69.7971 65.0613L69.8813 65.071L69.9653 65.0814L70.0493 65.0927L70.1333 65.105L70.2173 65.1179L70.3011 65.1318L70.3849 65.1465L70.4686 65.162L70.5522 65.1784L70.6357 65.1956L70.7192 65.2136L70.8025 65.2325L70.8856 65.2522L70.9686 65.2728L71.0514 65.2942L71.1341 65.3164L71.2167 65.3394L71.2991 65.3634L71.3813 65.3881L71.4633 65.4136L71.5451 65.44L71.6267 65.4672L71.7081 65.4953L71.7893 65.5242L71.8702 65.5538L71.9509 65.5843L72.0313 65.6157L72.1115 65.6478L72.1914 65.6808L72.271 65.7146L72.3504 65.7492L72.4294 65.7846L72.5081 65.8208L72.5865 65.8578L72.6647 65.8957L72.7425 65.9343L72.8199 65.9738L72.897 66.014L72.9737 66.055L73.0501 66.0968L73.1261 66.1394L73.2017 66.1827L73.277 66.2269L73.3519 66.2718L73.4263 66.3175L73.5003 66.364L73.5739 66.4113L73.6471 66.4593L73.7198 66.508L73.7921 66.5575L73.864 66.6078L73.9353 66.6588L74.0062 66.7106L74.0766 66.7631L74.1466 66.8163L74.216 66.8703L74.2849 66.925L74.3533 66.9804L74.4213 67.0366L74.4886 67.0934L74.5555 67.151L74.6218 67.2092L74.6876 67.2682L74.7528 67.3278L74.8173 67.3882L74.8814 67.4492L74.9449 67.5109L75.0077 67.5733L75.0701 67.6363L75.1317 67.7001L75.1929 67.7644L75.2533 67.8294L75.3131 67.8951L75.3723 67.9614L75.4309 68.0283L75.4888 68.0959L75.5461 68.1641L75.6027 68.2329L75.6586 68.3023L75.7139 68.3723L75.7685 68.443L75.8224 68.5142L75.8756 68.586L75.9281 68.6583L75.9799 68.7313L76.0309 68.8048L76.0813 68.8789L76.1309 68.9535L76.1798 69.0286L76.228 69.1044L76.2754 69.1806L76.3221 69.2574L76.3681 69.3346L76.4132 69.4125L76.4576 69.4907L76.5012 69.5695L76.544 69.6488L76.5861 69.7286L76.6273 69.8088L76.6677 69.8895L76.7074 69.9707L76.7463 70.0523L76.7843 70.1343L76.8215 70.2169L76.8579 70.2998L76.8935 70.3831L76.9282 70.4669L76.9621 70.551L76.9952 70.6356L77.0273 70.7205L77.0587 70.8058L77.0892 70.8915L77.1189 70.9776L77.1477 71.064L77.1755 71.1508L77.2025 71.2378L77.2287 71.3253L77.254 71.413L77.2784 71.5011L77.3018 71.5895L77.3245 71.6782L77.3461 71.7671L77.3669 71.8563L77.3869 71.9458L77.4058 72.0356L77.4239 72.1256L77.441 72.2158L77.4573 72.3064L77.4726 72.3971L77.487 72.488L77.5005 72.5792L77.513 72.6705L77.5246 72.762L77.5353 72.8538L77.545 72.9457L77.5538 73.0377L77.5617 73.1299L77.5686 73.2222L77.5746 73.3147L77.5796 73.4073L77.5837 73.5L77.5868 73.5929L77.5889 73.6858L77.5901 73.7788L77.5904 73.8719L77.5897 73.965L77.588 74.0582L77.5853 74.1515L77.5817 74.2449L77.5772 74.3382L77.5717 74.4315L77.5652 74.525L77.5577 74.6183L77.5493 74.7117L77.5399 74.805L77.5295 74.8983L77.5182 74.9917L77.5059 75.0849L77.4926 75.1781L77.4784 75.2712L77.4632 75.3642L77.447 75.4572L77.4298 75.5501L77.4117 75.6429L77.3926 75.7355L77.3725 75.8281L77.3516 75.9205L77.3296 76.0127L77.3066 76.1048L77.2827 76.1968L77.2578 76.2886L77.232 76.3802L77.2052 76.4715L77.1774 76.5627L77.1487 76.6538L77.1189 76.7446L77.0883 76.835L77.0567 76.9254L77.0242 77.0154L76.9907 77.1052L76.9562 77.1947L76.9209 77.284L76.8845 77.373L76.8473 77.4617L76.809 77.55L76.7699 77.6381L76.7298 77.7258L76.6888 77.8132L76.6469 77.9002L76.604 77.987L76.5601 78.0733L76.5154 78.1593L76.4698 78.2448L76.4233 78.33L76.3758 78.4148L76.3275 78.4992L76.2782 78.5831L76.2281 78.6667L76.177 78.7498L76.1251 78.8325L76.0722 78.9146L76.0185 78.9964L75.9639 79.0776L75.9085 79.1584L75.8521 79.2387L75.7949 79.3185L75.7369 79.3978L75.678 79.4766L75.6182 79.5548L75.5576 79.6325L75.4961 79.7096L75.4338 79.7862L75.3707 79.8622L75.3068 79.9378L75.242 80.0126L75.1764 80.087L75.11 80.1606L75.0428 80.2338L74.9748 80.3062L74.9061 80.3782L74.8365 80.4494L74.7661 80.52L74.6949 80.5899L74.6231 80.6593L74.5504 80.7279L74.477 80.7958L74.4029 80.8632L74.3279 80.9298L74.2523 80.9957L74.1759 81.061L74.0989 81.1254L74.021 81.1893L73.9425 81.2523L73.8633 81.3146L73.7833 81.3762L73.7028 81.4371L73.6215 81.4972L73.5395 81.5566L73.4569 81.6152L73.3737 81.673L73.2897 81.73L73.2051 81.7862L73.1199 81.8417L73.0341 81.8963L72.9477 81.9502L72.8605 82.0031L72.7729 82.0554L72.6846 82.1067L72.5958 82.1572L72.5064 82.2069L72.4164 82.2558L72.3258 82.3038L72.2347 82.3509L72.143 82.3971L72.0509 82.4425L71.9581 82.487L71.8649 82.5306L71.7711 82.5734L71.6769 82.6152L71.5821 82.6562L71.4869 82.6962L71.3912 82.7353L71.295 82.7735L71.1984 82.8108L71.1013 82.8472L71.0038 82.8826L70.9059 82.9171L70.8075 82.9506L70.7088 82.9833L70.6096 83.0149L70.5101 83.0456L70.4101 83.0754L70.3098 83.1041L70.2092 83.1319L70.1081 83.1587L70.0068 83.1846L69.9051 83.2094L69.8031 83.2334L69.7007 83.2562L69.5981 83.2782L69.4952 83.299L69.392 83.319L69.2885 83.3379L69.1848 83.3558L69.0808 83.3727L68.9766 83.3886L68.8721 83.4034L68.7674 83.4173L68.6625 83.4302L68.5575 83.4419L68.4522 83.4527L68.3468 83.4625L68.2412 83.4712L68.1354 83.4789L68.0295 83.4855L67.9234 83.4911L67.8173 83.4957L67.7109 83.4992L67.6045 83.5017L67.4981 83.5031L67.3914 83.5035L67.2848 83.5029L67.1781 83.5011L67.0713 83.4984L66.9645 83.4946L66.8577 83.4897L66.7509 83.4838L66.6441 83.4768L66.5372 83.4688L66.4304 83.4597L66.3236 83.4495L66.2168 83.4383L66.1101 83.4261L66.0034 83.4128L65.8968 83.3984L65.7903 83.383L65.6839 83.3665L65.5776 83.349L65.4713 83.3303L65.3653 83.3107L65.2593 83.29L65.1536 83.2682L65.0479 83.2454L64.9425 83.2215L64.8372 83.1966L64.7321 83.1706L64.6272 83.1435L64.5225 83.1154L64.418 83.0863L64.3138 83.0562L64.2098 83.025L64.1061 82.9927L64.0026 82.9594L63.8995 82.925L63.7965 82.8897L63.694 82.8533L63.5917 82.8158L63.4897 82.7774L63.3881 82.7378L63.2869 82.6974L63.1859 82.6558L63.0853 82.6132L62.9852 82.5697L62.8854 82.525L62.786 82.4794L62.687 82.4329L62.5885 82.3853L62.4903 82.3366L62.3925 82.287L62.2953 82.2365L62.1985 82.1849L62.1022 82.1323L62.0064 82.0788L61.911 82.0242L61.8161 81.9688L61.7218 81.9123L61.628 81.8549L61.5347 81.7966L61.442 81.7372L61.3498 81.677L61.2582 81.6157L61.1672 81.5535L61.0767 81.4905L60.9869 81.4265L60.8976 81.3615L60.8089 81.2957L60.7209 81.2289L60.6335 81.1612L60.5468 81.0926L60.4607 81.0231L60.3753 80.9528L60.2905 80.8815L60.2064 80.8094L60.123 80.7364L60.0403 80.6626L59.9583 80.5878L59.8771 80.5123L59.7965 80.4359L59.7167 80.3586L59.6377 80.2806L59.5594 80.2017L59.4819 80.1219L59.4051 80.0414L59.3291 79.9601L59.254 79.878L59.1796 79.795L59.106 79.7114L59.0333 79.6269L58.9613 79.5417L58.8902 79.4557L58.8199 79.3689L58.7505 79.2814L58.682 79.1932L58.6143 79.1042L58.5475 79.0146L58.4815 78.9242L58.4165 78.8331L58.3524 78.7414L58.2891 78.6489L58.2268 78.5558L58.1654 78.462L58.1049 78.3675L58.0454 78.2724L57.9868 78.1766L57.9291 78.0802L57.8724 77.9833L57.8167 77.8856L57.7619 77.7874L57.7082 77.6886L57.6554 77.5892L57.6036 77.4892L57.5528 77.3886L57.503 77.2875L57.4542 77.1858L57.4064 77.0837L57.3596 76.9809L57.3139 76.8777L57.2692 76.7739L57.2256 76.6696L57.183 76.5649L57.1414 76.4597L57.1009 76.3539L57.0615 76.2478L57.0231 76.1412L56.9858 76.0341L56.9496 75.9266L56.9145 75.8187L56.8805 75.7104L56.8475 75.6018L56.8157 75.4926L56.7849 75.3832L56.7553 75.2734L56.7268 75.1631L56.6994 75.0526L56.6731 74.9418L56.6479 74.8306L56.6239 74.719L56.601 74.6073L56.5792 74.4952L56.5586 74.3828L56.5391 74.2702L56.5207 74.1573L56.5035 74.0442L56.4875 73.9308L56.4726 73.8172L56.4589 73.7034L56.4463 73.5894L56.4349 73.4752L56.4247 73.3608L56.4157 73.2462L56.4078 73.1316L56.4011 73.0167L56.3955 72.9018L56.3912 72.7867L56.388 72.6715L56.386 72.5562L56.3852 72.4408L56.3855 72.3254L56.3871 72.2098L56.3898 72.0943L56.3938 71.9787L56.3989 71.863L56.4052 71.7474L56.4127 71.6318L56.4214 71.5162L56.4313 71.4005L56.4424 71.285L56.4547 71.1694L56.4682 71.0539L56.4828 70.9385L56.4987 70.8231L56.5158 70.7078L56.534 70.5927L56.5535 70.4777L56.5741 70.3628L56.5959 70.248L56.6189 70.1334L56.6432 70.019L56.6686 69.9046L56.6952 69.7906L56.7229 69.6766L56.7519 69.563L56.782 69.4495L56.8134 69.3362L56.8459 69.2233L56.8796 69.1106L56.9144 68.9981L56.9505 68.8858L56.9877 68.774L57.0261 68.6624L57.0657 68.5511L57.1064 68.4402L57.1483 68.3295L57.1913 68.2193L57.2355 68.1094L57.2808 67.9998L57.3273 67.8907L57.375 67.7819L57.4238 67.6736L57.4737 67.5657L57.5248 67.4582L57.577 67.3511L57.6303 67.2446L57.6848 67.1384L57.7404 67.0328L57.7971 66.9276L57.8549 66.823L57.9138 66.7188L57.9738 66.6151L58.0349 66.5121L58.0971 66.4095L58.1604 66.3075L58.2248 66.2061L58.2902 66.1052L58.3568 66.005L58.4243 65.9053L58.493 65.8062L58.5627 65.7078L58.6334 65.6099L58.7053 65.5128L58.7781 65.4162L58.852 65.3204L58.9269 65.2252L59.0028 65.1307L59.0797 65.037L59.1576 64.9438L59.2365 64.8514L59.3165 64.7598L59.3973 64.6689L59.4793 64.5787L59.5621 64.4893L59.6459 64.4006L59.7307 64.3127L59.8164 64.2257L59.903 64.1394L59.9906 64.0538L60.0792 63.9692L60.1686 63.8853L60.2589 63.8023L60.3502 63.7201L60.4424 63.6388L60.5353 63.5583L60.6293 63.4787L60.7241 63.4L60.8197 63.3222L60.9161 63.2452L61.0135 63.1692L61.1117 63.0941L61.2106 63.0199L61.3105 62.9466L61.411 62.8743L61.5124 62.803L61.6146 62.7326L61.7176 62.6631L61.8213 62.5947L61.9258 62.5272L62.031 62.4607L62.137 62.3952L62.2437 62.3307L62.3512 62.2673L62.4593 62.2048L62.5681 62.1434L62.6777 62.083L62.7878 62.0237L62.8987 61.9654L63.0102 61.9082L63.1224 61.852L63.2352 61.7969L63.3486 61.7429L63.4627 61.6899L63.5773 61.6381L63.6926 61.5874L63.8085 61.5377L63.9249 61.4892L64.0418 61.4418L64.1593 61.3955L64.2773 61.3504L64.3959 61.3064L64.515 61.2635L64.6346 61.2218L64.7547 61.1812L64.8753 61.1418L64.9962 61.1035L65.1177 61.0664L65.2397 61.0305L65.3621 60.9958L65.4848 60.9622L65.608 60.9299L65.7316 60.8987L65.8556 60.8687L65.9799 60.84L66.1046 60.8124L66.2297 60.7861L66.355 60.7609L66.4808 60.737L66.6068 60.7143L66.7331 60.6928L66.8597 60.6726L66.9866 60.6536L67.1137 60.6358L67.2411 60.6193L67.2886 60.6136ZM67.3424 65.1489L67.3057 62.0575L67.2013 62.0721L67.0891 62.0889L66.9768 62.1069L66.8652 62.1258L66.7534 62.146L66.6422 62.1671L66.5313 62.1894L66.4207 62.2127L66.3104 62.2371L66.2003 62.2625L66.0905 62.289L65.9813 62.3166L65.8721 62.3453L65.7672 62.3739L65.6554 62.4057L65.5475 62.4374L65.4401 62.4702L65.3332 62.504L65.2265 62.5389L65.1203 62.5748L65.0145 62.6117L64.9093 62.6495L64.8045 62.6885L64.7002 62.7283L64.5963 62.7693L64.4932 62.8111L64.3901 62.8541L64.2877 62.8979L64.1859 62.9427L64.0848 62.9885L63.9839 63.0353L63.8836 63.083L63.7841 63.1316L63.6849 63.1813L63.5866 63.2318L63.4885 63.2834L63.3914 63.3356L63.2945 63.3891L63.1985 63.4432L63.1031 63.4983L63.0082 63.5544L62.9141 63.6113L62.8204 63.6692L62.7277 63.7278L62.6353 63.7874L62.5439 63.8478L62.4531 63.909L62.3629 63.9711L62.2733 64.0342L62.1848 64.0978L62.0967 64.1625L62.0093 64.2279L61.9228 64.2942L61.837 64.3611L61.7518 64.429L61.6676 64.4976L61.5841 64.567L61.5012 64.6373L61.4193 64.7081L61.3381 64.7798L61.2576 64.8523L61.178 64.9254L61.0993 64.9993L61.0211 65.074L60.9441 65.1492L60.8677 65.2252L60.7921 65.302L60.7175 65.3794L60.6437 65.4575L60.5707 65.5362L60.4986 65.6156L60.4273 65.6957L60.3569 65.7765L60.2876 65.8577L60.2189 65.9397L60.1512 66.0223L60.0844 66.1054L60.0185 66.1891L59.9534 66.2736L59.8893 66.3585L59.8261 66.444L59.7639 66.5301L59.7025 66.6167L59.6422 66.7038L59.5828 66.7914L59.5242 66.8797L59.4666 66.9684L59.4101 67.0575L59.3545 67.1472L59.2997 67.2375L59.246 67.3281L59.1933 67.4192L59.1414 67.5108L59.0907 67.6026L59.0409 67.6951L58.9919 67.7881L58.9441 67.8812L58.8973 67.975L58.8514 68.069L58.8065 68.1634L58.7627 68.2582L58.7198 68.3534L58.678 68.4489L58.6371 68.5447L58.5973 68.6409L58.5585 68.7374L58.5207 68.8342L58.4839 68.9314L58.4482 69.0287L58.4134 69.1265L58.3798 69.2243L58.3471 69.3226L58.3155 69.421L58.2849 69.5198L58.2553 69.6186L58.2268 69.7178L58.1993 69.817L58.1729 69.9166L58.1475 70.0163L58.1231 70.1162L58.0998 70.2163L58.0775 70.3165L58.0563 70.4169L58.0361 70.5174L58.0169 70.6179L57.9989 70.7187L57.9818 70.8195L57.9658 70.9205L57.9509 71.0214L57.937 71.1225L57.9241 71.2236L57.9123 71.3248L57.9015 71.426L57.8918 71.5273L57.8832 71.6286L57.8756 71.7298L57.869 71.8311L57.8634 71.9324L57.859 72.0336L57.8555 72.1348L57.8531 72.2359L57.8517 72.337L57.8514 72.4382L57.8521 72.5391L57.8539 72.64L57.8567 72.7408L57.8605 72.8414L57.8653 72.9421L57.8712 73.0426L57.8781 73.1428L57.886 73.243L57.895 73.343L57.9049 73.4429L57.9159 73.5426L57.9279 73.6421L57.9409 73.7414L57.9549 73.8405L57.97 73.9394L57.986 74.038L58.003 74.1365L58.0211 74.2347L58.0401 74.3326L58.0601 74.4303L58.0811 74.5277L58.1031 74.6249L58.126 74.7216L58.15 74.8182L58.1749 74.9144L58.2008 75.0103L58.2276 75.1058L58.2554 75.2011L58.2841 75.296L58.3139 75.3906L58.3445 75.4848L58.3761 75.5786L58.4087 75.6719L58.4421 75.765L58.4765 75.8576L58.5119 75.9498L58.5481 76.0416L58.5853 76.133L58.6233 76.2239L58.6623 76.3144L58.7022 76.4044L58.7429 76.494L58.7846 76.583L58.8272 76.6717L58.8705 76.7598L58.9149 76.8474L58.96 76.9346L59.006 77.0213L59.0529 77.1074L59.1005 77.193L59.1491 77.278L59.1985 77.3625L59.2487 77.4464L59.2997 77.5298L59.3516 77.6126L59.4042 77.6949L59.4577 77.7766L59.5119 77.8576L59.567 77.9382L59.6228 78.018L59.6794 78.0973L59.7368 78.1759L59.7949 78.2539L59.8538 78.3313L59.9135 78.4081L59.9738 78.4842L60.0349 78.5596L60.0968 78.6344L60.1593 78.7086L60.2226 78.7819L60.2866 78.8548L60.3513 78.9268L60.4166 78.9982L60.4826 79.0689L60.5493 79.1389L60.6167 79.2082L60.6848 79.2767L60.7534 79.3446L60.8228 79.4117L60.8928 79.4781L60.9633 79.5437L61.0345 79.6086L61.1063 79.6727L61.1787 79.7361L61.2517 79.7987L61.3253 79.8606L61.3995 79.9217L61.4742 79.9819L61.5495 80.0414L61.6253 80.1002L61.7017 80.1582L61.7787 80.2153L61.8561 80.2716L61.934 80.3271L62.0125 80.3818L62.0914 80.4358L62.1709 80.4889L62.2509 80.5411L62.3313 80.5926L62.4121 80.6432L62.4934 80.693L62.5752 80.7419L62.6574 80.79L62.74 80.8372L62.8231 80.8836L62.9065 80.9291L62.9904 80.9738L63.0746 81.0177L63.1592 81.0606L63.2442 81.1027L63.3297 81.1439L63.4153 81.1843L63.5013 81.2238L63.5878 81.2624L63.6745 81.3001L63.7615 81.3369L63.8489 81.3729L63.9365 81.4079L64.0244 81.4421L64.1126 81.4754L64.2011 81.5078L64.2898 81.5393L64.3788 81.5698L64.4681 81.5996L64.5575 81.6283L64.6472 81.6562L64.7371 81.6832L64.8272 81.7093L64.9174 81.7345L65.0079 81.7587L65.0985 81.7822L65.1893 81.8046L65.2803 81.8261L65.3714 81.8467L65.4627 81.8665L65.5541 81.8853L65.6455 81.9031L65.7372 81.9201L65.8288 81.9362L65.9206 81.9514L66.0125 81.9655L66.1044 81.9789L66.1964 81.9913L66.2884 82.0028L66.3805 82.0134L66.4725 82.023L66.5647 82.0318L66.6569 82.0396L66.749 82.0465L66.8412 82.0526L66.9333 82.0576L67.0253 82.0618L67.1175 82.0651L67.2095 82.0675L67.3014 82.069L67.3933 82.0695L67.4852 82.0692L67.5769 82.0679L67.6686 82.0658L67.7601 82.0628L67.8517 82.0589L67.9429 82.054L68.0341 82.0483L68.1252 82.0417L68.2161 82.0342L68.3069 82.0258L68.3975 82.0165L68.488 82.0063L68.5782 81.9953L68.6683 81.9834L68.7581 81.9706L68.8478 81.957L68.9373 81.9424L69.0264 81.927L69.1154 81.9107L69.2041 81.8936L69.2926 81.8757L69.3809 81.8568L69.4688 81.8371L69.5565 81.8166L69.6438 81.7952L69.7309 81.773L69.8177 81.75L69.9042 81.7261L69.9904 81.7014L70.0762 81.6758L70.1617 81.6495L70.2468 81.6223L70.3317 81.5943L70.4161 81.5655L70.5001 81.5359L70.5838 81.5055L70.6671 81.4743L70.75 81.4423L70.8325 81.4095L70.9146 81.3759L70.9963 81.3416L71.0775 81.3065L71.1584 81.2706L71.2387 81.234L71.3187 81.1966L71.3982 81.1584L71.4771 81.1196L71.5558 81.0798L71.6338 81.0395L71.7115 80.9983L71.7885 80.9566L71.8651 80.914L71.9413 80.8707L72.0168 80.8267L72.0919 80.782L72.1665 80.7366L72.2404 80.6906L72.314 80.6438L72.3868 80.5964L72.4592 80.5482L72.5311 80.4994L72.6023 80.4499L72.6729 80.3999L72.7431 80.349L72.8125 80.2978L72.8815 80.2457L72.9499 80.193L73.0174 80.1398L73.0847 80.0858L73.1513 80.0312L73.2169 79.9762L73.2824 79.9202L73.3469 79.864L73.4109 79.8072L73.4744 79.7495L73.5369 79.6916L73.599 79.633L73.6605 79.5738L73.7211 79.5141L73.7812 79.4538L73.8406 79.393L73.8993 79.3316L73.9573 79.2698L74.0146 79.2074L74.0713 79.1445L74.1272 79.0812L74.1825 79.0172L74.237 78.9529L74.2908 78.8881L74.344 78.8226L74.3963 78.757L74.448 78.6907L74.4989 78.6241L74.5492 78.5569L74.5986 78.4894L74.6473 78.4215L74.6953 78.353L74.7425 78.2842L74.789 78.215L74.8349 78.1454L74.8797 78.0755L74.924 78.0051L74.9674 77.9343L75.0101 77.8633L75.052 77.7918L75.0933 77.7199L75.1335 77.648L75.1732 77.5754L75.212 77.5026L75.2499 77.4296L75.2873 77.356L75.3236 77.2826L75.3593 77.2083L75.3941 77.1343L75.4283 77.0595L75.4614 76.9849L75.494 76.9096L75.5257 76.8344L75.5565 76.7589L75.5865 76.683L75.6158 76.607L75.6441 76.5309L75.6719 76.4543L75.6986 76.3777L75.7246 76.3009L75.7498 76.2238L75.7742 76.1466L75.7978 76.0692L75.8205 75.9918L75.8425 75.914L75.8635 75.8362L75.8838 75.7582L75.9033 75.6802L75.9219 75.6021L75.9397 75.5236L75.9567 75.4452L75.9729 75.3667L75.9882 75.2882L76.0028 75.2096L76.0165 75.1306L76.0293 75.052L76.0414 74.9731L76.0526 74.8942L76.063 74.8154L76.0726 74.7364L76.0814 74.6572L76.0893 74.5786L76.0965 74.4993L76.1029 74.4203L76.1083 74.3415L76.113 74.2625L76.1169 74.1836L76.1199 74.1048L76.1221 74.0258L76.1235 73.9472L76.1241 73.8683L76.1239 73.7897L76.1229 73.711L76.1211 73.6327L76.1185 73.5542L76.115 73.4759L76.1108 73.3979L76.1057 73.3197L76.0999 73.2417L76.0933 73.1641L76.0859 73.0862L76.0777 73.0089L76.0686 72.9314L76.0589 72.8542L76.0483 72.7772L76.0369 72.7002L76.0248 72.6236L76.0119 72.5472L75.9982 72.471L75.9837 72.395L75.9685 72.3189L75.9525 72.2434L75.9357 72.1681L75.9182 72.0929L75.8999 72.0178L75.8809 71.9434L75.8611 71.8688L75.8406 71.7948L75.8193 71.7209L75.7973 71.6474L75.7746 71.5741L75.7511 71.501L75.7269 71.4285L75.7021 71.3562L75.6763 71.2839L75.6501 71.2123L75.6229 71.1409L75.5952 71.0699L75.5667 70.9991L75.5375 70.9286L75.5077 70.8588L75.477 70.789L75.4458 70.7198L75.4139 70.651L75.3813 70.5824L75.3479 70.5142L75.3141 70.4466L75.2793 70.3791L75.2441 70.3123L75.2082 70.2459L75.1716 70.1796L75.1345 70.1141L75.0965 70.0488L75.0581 69.9841L75.0189 69.9196L74.9793 69.8558L74.9388 69.7922L74.8979 69.7294L74.8563 69.6669L74.8141 69.6049L74.7713 69.5432L74.7279 69.4822L74.6841 69.4217L74.6394 69.3614L74.5944 69.3019L74.5486 69.2428L74.5025 69.1843L74.4557 69.1262L74.4083 69.0686L74.3604 69.0116L74.312 68.955L74.2631 68.8992L74.2135 68.8437L74.1636 68.7889L74.113 68.7345L74.0621 68.6809L74.0105 68.6275L73.9585 68.575L73.9059 68.5227L73.8529 68.4713L73.7996 68.4204L73.7457 68.37L73.6912 68.3202L73.6363 68.271L73.581 68.2225L73.5251 68.1743L73.4692 68.1271L73.4125 68.0802L73.3554 68.034L73.298 67.9885L73.2401 67.9434L73.1818 67.899L73.1233 67.8554L73.0641 67.8122L73.0045 67.7696L72.9449 67.7279L72.8845 67.6866L72.8242 67.6462L72.7633 67.6062L72.7021 67.5668L72.6404 67.5281L72.5786 67.4902L72.5162 67.4527L72.4537 67.4161L72.3907 67.3799L72.3277 67.3446L72.2642 67.3099L72.2004 67.2758L72.1363 67.2423L72.0721 67.2097L72.0074 67.1775L71.9425 67.1461L71.8774 67.1154L71.8122 67.0854L71.7463 67.0558L71.6807 67.0272L71.6146 66.9992L71.5482 66.9718L71.4817 66.9451L71.4152 66.9192L71.3483 66.8939L71.281 66.8692L71.2139 66.8454L71.1464 66.8221L71.0787 66.7995L71.0111 66.7777L70.9432 66.7566L70.8753 66.7361L70.8068 66.7162L70.7385 66.6972L70.6701 66.6788L70.6016 66.6611L70.5329 66.6441L70.464 66.6278L70.3952 66.6122L70.3264 66.5973L70.2573 66.583L70.188 66.5694L70.1191 66.5567L70.0497 66.5446L69.9805 66.5331L69.911 66.5223L69.8419 66.5123L69.7722 66.5029L69.703 66.4943L69.6336 66.4863L69.5641 66.479L69.4948 66.4725L69.4253 66.4666L69.3561 66.4614L69.2865 66.4569L69.2172 66.453L69.1481 66.4499L69.0785 66.4474L69.0094 66.4457L68.9403 66.4446L68.8713 66.4442L68.8241 66.4444L68.8598 69.4647L68.8812 69.4648L68.9209 69.4654L68.9606 69.4663L69.0005 69.4676L69.0403 69.4694L69.0802 69.4716L69.1201 69.4742L69.1601 69.4772L69.2001 69.4806L69.2402 69.4845L69.2803 69.4887L69.3204 69.4934L69.3605 69.4985L69.4006 69.504L69.4408 69.5099L69.4809 69.5163L69.5211 69.5231L69.5612 69.5303L69.6013 69.538L69.6414 69.546L69.6815 69.5546L69.7216 69.5634L69.7617 69.5728L69.8016 69.5826L69.8416 69.5927L69.8815 69.6034L69.9213 69.6144L69.9612 69.6258L70.0009 69.6378L70.0406 69.6501L70.0802 69.6629L70.1198 69.6761L70.1593 69.6897L70.1987 69.7037L70.238 69.7182L70.2772 69.733L70.3163 69.7483L70.3553 69.7641L70.3942 69.7802L70.433 69.7968L70.4717 69.8138L70.5103 69.8313L70.5488 69.8491L70.5871 69.8674L70.6253 69.8861L70.6633 69.9052L70.7012 69.9248L70.7389 69.9447L70.7765 69.9651L70.814 69.9859L70.8513 70.0071L70.8884 70.0287L70.9253 70.0507L70.9621 70.0732L70.9986 70.0961L71.035 70.1194L71.0712 70.143L71.1072 70.167L71.143 70.1916L71.1786 70.2165L71.214 70.2418L71.2492 70.2674L71.2841 70.2935L71.3189 70.32L71.3533 70.3469L71.3877 70.3742L71.4217 70.4018L71.4554 70.4298L71.489 70.4583L71.5223 70.4871L71.5553 70.5163L71.5881 70.5459L71.6206 70.5759L71.6529 70.6062L71.6848 70.637L71.7165 70.6681L71.7479 70.6995L71.779 70.7314L71.8099 70.7635L71.8404 70.7961L71.8706 70.829L71.9005 70.8623L71.9302 70.8959L71.9595 70.9299L71.9885 70.9642L72.0172 70.9989L72.0455 71.0339L72.0735 71.0693L72.1012 71.105L72.1285 71.141L72.1556 71.1774L72.1822 71.2141L72.2085 71.251L72.2345 71.2884L72.2601 71.3261L72.2853 71.3641L72.3101 71.4023L72.3347 71.441L72.3588 71.4798L72.3825 71.519L72.4059 71.5586L72.4289 71.5983L72.4515 71.6384L72.4737 71.6788L72.4955 71.7194L72.5169 71.7604L72.5379 71.8016L72.5585 71.843L72.5787 71.8848L72.5985 71.9269L72.6178 71.9691L72.6368 72.0117L72.6553 72.0545L72.6734 72.0975L72.6911 72.1408L72.7083 72.1843L72.7251 72.2281L72.7415 72.2721L72.7574 72.3163L72.7729 72.3608L72.7879 72.4054L72.8025 72.4503L72.8165 72.4954L72.8302 72.5407L72.8434 72.5862L72.8561 72.632L72.8685 72.6778L72.8803 72.7239L72.8916 72.7702L72.9025 72.8167L72.9129 72.8633L72.9228 72.9102L72.9322 72.9571L72.9411 73.0042L72.9496 73.0515L72.9576 73.099L72.9651 73.1465L72.9721 73.1942L72.9785 73.2421L72.9845 73.2901L72.9901 73.3382L72.9951 73.3865L72.9996 73.4348L73.0036 73.4833L73.0071 73.5319L73.0101 73.5806L73.0125 73.6294L73.0145 73.6782L73.016 73.7272L73.0169 73.7762L73.0173 73.8254L73.0172 73.8745L73.0166 73.9238L73.0155 73.9731L73.0138 74.0225L73.0117 74.0719L73.0089 74.1214L73.0057 74.1709L73.002 74.2204L72.9977 74.27L72.9929 74.3196L72.9876 74.3692L72.9817 74.4188L72.9753 74.4685L72.9684 74.5182L72.9609 74.5678L72.9529 74.6174L72.9444 74.667L72.9353 74.7166L72.9257 74.7662L72.9157 74.8157L72.9049 74.8652L72.8937 74.9146L72.8821 74.9641L72.8697 75.0134L72.8569 75.0628L72.8437 75.112L72.8297 75.1612L72.8153 75.2102L72.8004 75.2593L72.7849 75.3082L72.7689 75.357L72.7524 75.4058L72.7353 75.4545L72.7177 75.503L72.6995 75.5514L72.6809 75.5997L72.6617 75.6479L72.6419 75.6959L72.6217 75.7438L72.6009 75.7916L72.5795 75.8393L72.5577 75.8867L72.5353 75.934L72.5123 75.9812L72.4889 76.0282L72.4649 76.075L72.4405 76.1216L72.4154 76.168L72.3899 76.2142L72.3639 76.2603L72.3373 76.3062L72.3102 76.3518L72.2827 76.3972L72.2545 76.4425L72.226 76.4874L72.1969 76.5322L72.1672 76.5767L72.1371 76.621L72.1065 76.665L72.0753 76.7088L72.0437 76.7523L72.0116 76.7956L71.9789 76.8386L71.9458 76.8813L71.9122 76.9238L71.8781 76.9659L71.8436 77.0078L71.8085 77.0494L71.773 77.0906L71.7369 77.1316L71.7005 77.1722L71.6635 77.2126L71.6261 77.2526L71.5882 77.2923L71.5498 77.3318L71.511 77.3708L71.4717 77.4094L71.4321 77.4478L71.3918 77.4858L71.3512 77.5234L71.3101 77.5607L71.2686 77.5977L71.2267 77.6342L71.1843 77.6704L71.1415 77.7062L71.0982 77.7416L71.0545 77.7766L71.0105 77.8112L70.966 77.8454L70.9211 77.8793L70.8757 77.9127L70.8301 77.9457L70.7839 77.9782L70.7374 78.0105L70.6905 78.0422L70.6432 78.0735L70.5955 78.1043L70.5474 78.1348L70.4989 78.1648L70.4501 78.1943L70.4009 78.2234L70.3514 78.252L70.3015 78.2802L70.2512 78.3078L70.2006 78.3351L70.1497 78.3618L70.0984 78.3882L70.0467 78.4139L69.9948 78.4393L69.9425 78.4641L69.8898 78.4884L69.8369 78.5122L69.7837 78.5355L69.7301 78.5584L69.6763 78.5807L69.6221 78.6025L69.5677 78.6238L69.5129 78.6446L69.4579 78.6648L69.4026 78.6846L69.3471 78.7038L69.2913 78.7224L69.2352 78.7406L69.1789 78.7581L69.1223 78.7751L69.0654 78.7917L69.0084 78.8076L68.9511 78.823L68.8936 78.8378L68.8358 78.8522L68.7778 78.8658L68.7197 78.879L68.6613 78.8916L68.6027 78.9037L68.5439 78.9151L68.4849 78.926L68.4258 78.9363L68.3665 78.9461L68.307 78.9552L68.2473 78.9638L68.1876 78.9718L68.1276 78.9792L68.0675 78.986L68.0073 78.9922L67.9469 78.9978L67.8864 79.0028L67.8257 79.0073L67.7649 79.011L67.7041 79.0143L67.6432 79.017L67.5821 79.019L67.5209 79.0203L67.4597 79.0211L67.3985 79.0214L67.3371 79.021L67.2757 79.0199L67.2141 79.0182L67.1526 79.016L67.091 79.0131L67.0293 79.0096L66.9677 79.0055L66.906 79.0008L66.8443 78.9954L66.7825 78.9894L66.7209 78.9829L66.6591 78.9756L66.5974 78.9678L66.5357 78.9593L66.474 78.9502L66.4123 78.9405L66.3507 78.9302L66.2891 78.9192L66.2276 78.9076L66.1661 78.8954L66.1046 78.8826L66.0433 78.8691L65.982 78.855L65.9208 78.8402L65.8596 78.825L65.7985 78.809L65.7377 78.7923L65.6768 78.7751L65.6161 78.7573L65.5555 78.7388L65.495 78.7197L65.4347 78.7L65.3745 78.6797L65.3145 78.6587L65.2545 78.6371L65.1948 78.6149L65.1353 78.5921L65.0758 78.5686L65.0166 78.5446L64.9576 78.5199L64.8988 78.4946L64.8401 78.4687L64.7817 78.4422L64.7235 78.4151L64.6654 78.3874L64.6077 78.359L64.5501 78.3301L64.4929 78.3006L64.4358 78.2704L64.379 78.2397L64.3225 78.2083L64.2662 78.1764L64.2101 78.1438L64.1545 78.1107L64.099 78.077L64.0439 78.0427L63.989 78.0078L63.9345 77.9724L63.8802 77.9363L63.8263 77.8997L63.7728 77.8625L63.7195 77.8247L63.6665 77.7864L63.614 77.7474L63.5617 77.708L63.5099 77.668L63.4584 77.6274L63.4073 77.5862L63.3565 77.5446L63.3061 77.5023L63.2561 77.4595L63.2065 77.4162L63.1573 77.3723L63.1085 77.3279L63.0601 77.283L63.0121 77.2375L62.9645 77.1915L62.9173 77.145L62.8707 77.098L62.8245 77.0505L62.7786 77.0024L62.7333 76.9539L62.6884 76.9048L62.644 76.8553L62.6 76.8053L62.5565 76.7547L62.5135 76.7038L62.4709 76.6522L62.4289 76.6002L62.3874 76.5478L62.3464 76.495L62.3058 76.4416L62.2658 76.3878L62.2264 76.3335L62.1874 76.2788L62.1489 76.2236L62.111 76.168L62.0737 76.112L62.0369 76.0555L62.0006 75.9986L61.9649 75.9414L61.9297 75.8837L61.8951 75.8255L61.8611 75.767L61.8277 75.7081L61.7948 75.6488L61.7625 75.5891L61.7308 75.529L61.6997 75.4686L61.6691 75.4078L61.6392 75.3466L61.6099 75.285L61.5812 75.2232L61.5531 75.161L61.5257 75.0984L61.4988 75.0354L61.4725 74.9722L61.4469 74.9086L61.422 74.8448L61.3977 74.7806L61.3741 74.7161L61.351 74.6513L61.3286 74.5862L61.3069 74.5209L61.2858 74.4552L61.2654 74.3893L61.2457 74.3231L61.2265 74.2566L61.2081 74.1899L61.1905 74.123L61.1733 74.0558L61.157 73.9883L61.1413 73.9207L61.1263 73.8528L61.112 73.7847L61.0984 73.7164L61.0854 73.6479L61.0732 73.5792L61.0617 73.5103L61.0509 73.4413L61.0407 73.372L61.0313 73.3026L61.0226 73.233L61.0146 73.1634L61.0073 73.0934L61.0008 73.0234L60.9949 72.9533L60.9898 72.883L60.9854 72.8126L60.9817 72.7422L60.9788 72.6716L60.9765 72.6009L60.9751 72.5301L60.9744 72.4593L60.9743 72.3883L60.975 72.3173L60.9765 72.2462L60.9787 72.1751L60.9817 72.1039L60.9853 72.0327L60.9897 71.9615L60.9949 71.8902L61.0008 71.819L61.0074 71.7477L61.0148 71.6764L61.0229 71.6051L61.0318 71.5338L61.0414 71.4626L61.0518 71.3914L61.0629 71.3202L61.0749 71.2491L61.0874 71.178L61.1008 71.107L61.1149 71.036L61.1298 70.9651L61.1454 70.8943L61.1617 70.8236L61.1789 70.753L61.1967 70.6825L61.2153 70.6121L61.2347 70.5418L61.2548 70.4717L61.2756 70.4016L61.2972 70.3318L61.3195 70.262L61.3425 70.1924L61.3664 70.123L61.3909 70.0538L61.4162 69.9847L61.4422 69.9158L61.469 69.8472L61.4965 69.7787L61.5248 69.7104L61.5537 69.6424L61.5834 69.5746L61.6139 69.507L61.645 69.4396L61.6769 69.3725L61.7095 69.3057L61.7429 69.239L61.7769 69.1727L61.8117 69.1067L61.8471 69.041L61.8833 68.9755L61.9202 68.9103L61.9578 68.8454L61.9961 68.781L62.0352 68.7167L62.0749 68.6528L62.1153 68.5893L62.1565 68.526L62.1982 68.4631L62.2407 68.4006L62.2839 68.3385L62.3277 68.2767L62.3723 68.2154L62.4175 68.1543L62.4633 68.0937L62.5099 68.0335L62.5571 67.9737L62.605 67.9143L62.6536 67.8553L62.7027 67.7968L62.7525 67.7386L62.803 67.681L62.8541 67.6238L62.9059 67.567L62.9583 67.5107L63.0113 67.4549L63.065 67.3995L63.1193 67.3446L63.1741 67.2902L63.2297 67.2363L63.2857 67.183L63.3425 67.1301L63.3997 67.0777L63.4576 67.0258L63.5161 66.9745L63.5752 66.9238L63.6348 66.8734L63.695 66.8238L63.7557 66.7746L63.8171 66.726L63.8789 66.678L63.9414 66.6306L64.0044 66.5837L64.0679 66.5374L64.132 66.4917L64.1965 66.4466L64.2617 66.402L64.3273 66.3581L64.3934 66.3148L64.4601 66.2722L64.5273 66.2301L64.5949 66.1886L64.663 66.1478L64.7316 66.1077L64.8007 66.0682L64.8702 66.0293L64.9402 65.991L65.0107 65.9535L65.0816 65.9166L65.1529 65.8804L65.2247 65.8449L65.2969 65.81L65.3696 65.7758L65.4426 65.7423L65.5161 65.7095L65.5899 65.6774L65.6642 65.646L65.7389 65.6153L65.8138 65.5854L65.8893 65.5561L65.965 65.5275L66.0411 65.4997L66.1176 65.4726L66.1945 65.4462L66.2716 65.4206L66.3491 65.3958L66.4269 65.3716L66.505 65.3482L66.5834 65.3256L66.6621 65.3038L66.7412 65.2826L66.8205 65.2622L66.9001 65.2426L66.9799 65.2238L67.0601 65.2058L67.1404 65.1886L67.221 65.1721L67.3018 65.1564L67.3424 65.1489ZM68.3359 70.9571L67.4138 71.1774L67.3597 66.6098L67.3162 66.6196L67.2508 66.635L67.1854 66.6511L67.1205 66.6678L67.0557 66.685L66.9913 66.703L66.9269 66.7216L66.8632 66.7406L66.7993 66.7605L66.7361 66.7807L66.6729 66.8018L66.61 66.8234L66.5474 66.8455L66.4851 66.8682L66.4233 66.8915L66.3617 66.9155L66.3003 66.94L66.2393 66.965L66.1785 66.9908L66.1184 67.0169L66.0583 67.0438L65.9988 67.071L65.9393 67.099L65.8805 67.1274L65.8217 67.1565L65.7637 67.186L65.7058 67.2161L65.6484 67.2467L65.5913 67.2778L65.5346 67.3095L65.4783 67.3418L65.4226 67.3744L65.3669 67.4078L65.3118 67.4414L65.2573 67.4757L65.203 67.5104L65.1491 67.5457L65.0957 67.5814L65.0428 67.6177L64.9902 67.6543L64.9382 67.6914L64.8865 67.7291L64.8353 67.7673L64.7845 67.8058L64.7342 67.8449L64.6845 67.8842L64.6352 67.9242L64.5862 67.9646L64.5377 68.0054L64.4899 68.0466L64.4425 68.0882L64.3955 68.1302L64.349 68.1727L64.303 68.2157L64.2576 68.259L64.2126 68.3026L64.1681 68.3467L64.1241 68.3911L64.0807 68.436L64.0378 68.4811L63.9953 68.5269L63.9534 68.5727L63.9121 68.619L63.8712 68.6658L63.8309 68.7126L63.7911 68.7601L63.752 68.8076L63.7132 68.8558L63.6751 68.904L63.6374 68.9527L63.6004 69.0018L63.5639 69.051L63.5279 69.1005L63.4925 69.1503L63.4577 69.2006L63.4233 69.251L63.3897 69.3018L63.3565 69.3526L63.324 69.4038L63.2919 69.4554L63.2605 69.5071L63.2296 69.5593L63.1993 69.6114L63.1696 69.6639L63.1404 69.7166L63.1119 69.7695L63.0839 69.8226L63.0565 69.876L63.0297 69.9297L63.0035 69.9833L62.9778 70.0374L62.9528 70.0914L62.9284 70.1458L62.9045 70.2002L62.8812 70.255L62.8585 70.3097L62.8365 70.3647L62.815 70.4198L62.7941 70.4751L62.7738 70.5304L62.7541 70.586L62.735 70.6417L62.7165 70.6974L62.6986 70.7533L62.6813 70.8094L62.6646 70.8654L62.6486 70.9215L62.6331 70.9778L62.6181 71.0342L62.6039 71.0906L62.5902 71.1471L62.5771 71.2037L62.5646 71.2603L62.5528 71.317L62.5415 71.3737L62.5308 71.4304L62.5207 71.4873L62.5113 71.544L62.5024 71.6008L62.4941 71.6578L62.4864 71.7145L62.4793 71.7714L62.4729 71.8282L62.4669 71.885L62.4617 71.942L62.4569 71.9987L62.4529 72.0555L62.4493 72.1123L62.4464 72.169L62.4441 72.2256L62.4423 72.2822L62.4412 72.3388L62.4405 72.3953L62.4406 72.4517L62.4412 72.508L62.4424 72.5643L62.4441 72.6205L62.4465 72.6766L62.4493 72.7326L62.4529 72.7884L62.4569 72.8442L62.4616 72.8998L62.4668 72.9554L62.4725 73.0109L62.4789 73.066L62.4857 73.1213L62.4932 73.1762L62.5013 73.2311L62.5098 73.2858L62.5189 73.3403L62.5286 73.3948L62.5389 73.449L62.5497 73.503L62.5609 73.5568L62.5729 73.6106L62.5853 73.664L62.5982 73.7174L62.6117 73.7703L62.6257 73.8234L62.6402 73.8759L62.6553 73.9285L62.6709 73.9806L62.6869 74.0327L62.7036 74.0845L62.7207 74.1359L62.7384 74.1874L62.7565 74.2384L62.7752 74.2891L62.7943 74.3398L62.814 74.3901L62.8341 74.4401L62.8548 74.4898L62.8758 74.5393L62.8975 74.5886L62.9196 74.6375L62.9421 74.6862L62.9652 74.7345L62.9886 74.7825L63.0127 74.8304L63.037 74.8778L63.0619 74.9249L63.0873 74.9718L63.1131 75.0182L63.1393 75.0645L63.166 75.1104L63.1931 75.1558L63.2207 75.2011L63.2486 75.246L63.277 75.2905L63.3059 75.3347L63.3351 75.3786L63.3648 75.4222L63.3948 75.4651L63.4253 75.508L63.4561 75.5504L63.4873 75.5924L63.5191 75.6342L63.5511 75.6754L63.5835 75.7163L63.6163 75.7569L63.6495 75.7971L63.6829 75.8368L63.7169 75.8762L63.7512 75.9153L63.7857 75.9538L63.8209 75.9921L63.8561 76.0298L63.8917 76.0673L63.9277 76.1042L63.964 76.1408L64.0007 76.177L64.0377 76.2127L64.0749 76.2481L64.1125 76.283L64.1505 76.3174L64.1887 76.3515L64.2272 76.3851L64.266 76.4183L64.305 76.4511L64.3444 76.4834L64.3841 76.5154L64.4241 76.5468L64.4641 76.5778L64.5046 76.6083L64.5453 76.6385L64.5863 76.6682L64.6275 76.6974L64.6689 76.7262L64.7106 76.7545L64.7525 76.7823L64.7946 76.8097L64.8369 76.8366L64.8797 76.8632L64.9224 76.8891L64.9653 76.9147L65.0086 76.9398L65.0519 76.9644L65.0954 76.9886L65.1393 77.0123L65.1833 77.0355L65.2273 77.0582L65.2716 77.0805L65.3161 77.1023L65.3606 77.1236L65.4055 77.1445L65.4504 77.1649L65.4953 77.1847L65.5406 77.2042L65.586 77.2231L65.6313 77.2416L65.6769 77.2596L65.7226 77.277L65.7685 77.2941L65.8143 77.3106L65.8605 77.3267L65.9065 77.3422L65.9526 77.3574L65.9989 77.372L66.0453 77.3862L66.0917 77.3998L66.1382 77.413L66.1849 77.4256L66.2315 77.4378L66.2781 77.4495L66.3249 77.4608L66.3716 77.4715L66.4184 77.4818L66.4653 77.4916L66.5121 77.5009L66.559 77.5098L66.6059 77.5181L66.6529 77.526L66.6998 77.5334L66.7468 77.5403L66.7936 77.5467L66.8405 77.5526L66.8874 77.5582L66.9344 77.5632L66.9813 77.5677L67.0281 77.5718L67.0749 77.5754L67.1217 77.5785L67.1685 77.5811L67.2151 77.5833L67.2617 77.585L67.3084 77.5862L67.3548 77.587L67.4012 77.5874L67.4476 77.5872L67.4938 77.5866L67.5401 77.5855L67.5863 77.584L67.6322 77.5821L67.6781 77.5796L67.7241 77.5767L67.7697 77.5734L67.8154 77.5696L67.8609 77.5654L67.9063 77.5607L67.9516 77.5555L67.9966 77.55L68.0417 77.544L68.0865 77.5375L68.1312 77.5306L68.1759 77.5234L68.2203 77.5156L68.2645 77.5074L68.3087 77.4988L68.3527 77.4898L68.3964 77.4803L68.4399 77.4705L68.4834 77.4602L68.5267 77.4494L68.5697 77.4384L68.6126 77.4269L68.6553 77.415L68.6979 77.4026L68.7401 77.3898L68.7821 77.3767L68.8241 77.3631L68.8657 77.3492L68.9072 77.335L68.9484 77.3202L68.9893 77.3051L69.0302 77.2896L69.0708 77.2738L69.111 77.2575L69.1511 77.241L69.1909 77.2239L69.2306 77.2066L69.2698 77.1889L69.309 77.1708L69.3478 77.1524L69.3863 77.1336L69.4247 77.1145L69.4626 77.095L69.5005 77.0752L69.538 77.055L69.5752 77.0345L69.6121 77.0137L69.6488 76.9925L69.6852 76.971L69.7212 76.9491L69.7569 76.927L69.7925 76.9045L69.8277 76.8818L69.8626 76.8586L69.8972 76.8353L69.9315 76.8115L69.9655 76.7875L69.9991 76.7633L70.0325 76.7386L70.0655 76.7138L70.0982 76.6886L70.1306 76.6631L70.1628 76.6374L70.1945 76.6114L70.2259 76.5852L70.2569 76.5586L70.2877 76.5318L70.3181 76.5048L70.3482 76.4774L70.378 76.4499L70.4073 76.4222L70.4364 76.3941L70.4651 76.3658L70.4935 76.3373L70.5215 76.3086L70.5491 76.2795L70.5764 76.2504L70.6034 76.2209L70.6299 76.1914L70.6562 76.1614L70.6821 76.1314L70.7075 76.1012L70.7328 76.0706L70.7574 76.0401L70.7819 76.0092L70.806 75.9782L70.8296 75.947L70.8529 75.9156L70.8758 75.8842L70.8984 75.8523L70.9206 75.8204L70.9424 75.7885L70.9638 75.7562L70.9849 75.7238L71.0055 75.6914L71.0258 75.6587L71.0457 75.6259L71.0653 75.593L71.0845 75.5599L71.1032 75.5267L71.1216 75.4934L71.1396 75.4599L71.1572 75.4265L71.1744 75.3928L71.1913 75.359L71.2077 75.3252L71.2238 75.2911L71.2395 75.2571L71.2548 75.223L71.2697 75.1888L71.2842 75.1544L71.2983 75.1201L71.3121 75.0854L71.3254 75.0511L71.3385 75.0162L71.3509 74.9819L71.3632 74.947L71.375 74.9122L71.3864 74.8774L71.3974 74.8426L71.4081 74.8078L71.4184 74.7726L71.4281 74.7378L71.4377 74.7026L71.4468 74.6678L71.4555 74.6326L71.4638 74.5974L71.4717 74.5625L71.4793 74.5276L71.4865 74.4922L71.4933 74.4573L71.4997 74.422L71.5057 74.3871L71.5113 74.3521L71.5166 74.317L71.5215 74.2818L71.526 74.2468L71.5301 74.2119L71.5339 74.1771L71.5373 74.142L71.5403 74.1072L71.5429 74.0723L71.5452 74.0375L71.5471 74.0028L71.5486 73.9682L71.5497 73.9337L71.5505 73.899L71.551 73.8643L71.5511 73.83L71.5508 73.7957L71.5501 73.7614L71.5491 73.7273L71.5477 73.693L71.546 73.6593L71.5439 73.6249L71.5415 73.5914L71.5387 73.5577L71.5356 73.5238L71.5321 73.4902L71.5283 73.457L71.5241 73.4234L71.5196 73.3904L71.5147 73.3572L71.5096 73.3245L71.504 73.2914L71.4981 73.2586L71.492 73.2262L71.4855 73.1938L71.4786 73.1613L71.4714 73.1292L71.464 73.0971L71.4561 73.0653L71.4481 73.0337L71.4395 73.0018L71.4309 72.9706L71.4217 72.9391L71.4124 72.9082L71.4027 72.8772L71.3927 72.8465L71.3824 72.8158L71.3717 72.7853L71.3609 72.7552L71.3497 72.7252L71.3382 72.6951L71.3265 72.6655L71.3144 72.6358L71.3021 72.6067L71.2894 72.5774L71.2766 72.5485L71.2634 72.5198L71.25 72.4912L71.2363 72.4629L71.2223 72.4347L71.2081 72.4067L71.1936 72.379L71.1788 72.3515L71.1638 72.3242L71.1485 72.2971L71.1329 72.2702L71.1173 72.2436L71.1013 72.2172L71.0849 72.1909L71.0685 72.165L71.0517 72.1393L71.0348 72.1138L71.0176 72.0884L71.0002 72.0634L70.9825 72.0386L70.9647 72.014L70.9466 71.9897L70.9283 71.9656L70.9099 71.9418L70.8911 71.9181L70.8722 71.8948L70.8531 71.8717L70.8338 71.8488L70.8143 71.8262L70.7947 71.8038L70.7748 71.7818L70.7547 71.7599L70.7345 71.7382L70.7141 71.717L70.6934 71.6959L70.6726 71.675L70.6517 71.6546L70.6306 71.6343L70.6094 71.6143L70.5878 71.5945L70.5664 71.575L70.5446 71.5558L70.5228 71.5369L70.5007 71.5182L70.4785 71.4998L70.4562 71.4817L70.4338 71.4638L70.4113 71.4462L70.3885 71.4289L70.3657 71.4119L70.3428 71.3951L70.3197 71.3786L70.2965 71.3625L70.2733 71.3465L70.2499 71.3309L70.2264 71.3155L70.2027 71.3004L70.1791 71.2856L70.1552 71.271L70.1313 71.2568L70.1074 71.2429L70.0833 71.2292L70.0591 71.2158L70.0349 71.2026L70.0107 71.1898L69.9863 71.1772L69.962 71.165L69.9373 71.1529L69.9129 71.1412L69.8882 71.1298L69.8636 71.1186L69.8389 71.1078L69.814 71.0971L69.7893 71.0869L69.7644 71.0769L69.7394 71.0671L69.7145 71.0577L69.6896 71.0485L69.6646 71.0396L69.6396 71.031L69.6145 71.0226L69.5896 71.0146L69.5645 71.0067L69.5393 70.9992L69.5144 70.992L69.4891 70.985L69.4641 70.9784L69.439 70.972L69.4139 70.9658L69.3888 70.96L69.3637 70.9544L69.3386 70.9491L69.3136 70.9441L69.2886 70.9393L69.2637 70.9348L69.2385 70.9306L69.2137 70.9266L69.1886 70.923L69.1639 70.9195L69.1389 70.9163L69.1141 70.9134L69.0895 70.9108L69.0647 70.9085L69.0401 70.9063L69.0154 70.9045L68.9909 70.9029L68.9663 70.9015L68.9418 70.9005L68.9176 70.8997L68.8932 70.899L68.8689 70.8987L68.8447 70.8986L68.8206 70.8989L68.7965 70.8993L68.7726 70.8999L68.7487 70.9009L68.725 70.902L68.7012 70.9034L68.6777 70.905L68.6541 70.9069L68.6307 70.909L68.6074 70.9114L68.5841 70.9139L68.561 70.9167L68.538 70.9198L68.5151 70.923L68.4922 70.9266L68.4696 70.9302L68.4469 70.9342L68.4246 70.9383L68.4021 70.9427L68.38 70.9473L68.3578 70.9521L68.3359 70.9571Z" fill="white"/>
<path d="M100.592 75.5352C100.592 75.2305 100.545 74.957 100.452 74.7148C100.366 74.4648 100.202 74.2383 99.9595 74.0352C99.7173 73.8242 99.3774 73.6172 98.9399 73.4141C98.5024 73.2109 97.936 73 97.2407 72.7812C96.4673 72.5312 95.7329 72.25 95.0376 71.9375C94.3501 71.625 93.7407 71.2617 93.2095 70.8477C92.686 70.4258 92.272 69.9375 91.9673 69.3828C91.6704 68.8281 91.522 68.1836 91.522 67.4492C91.522 66.7383 91.6782 66.0938 91.9907 65.5156C92.3032 64.9297 92.7407 64.4297 93.3032 64.0156C93.8657 63.5938 94.5298 63.2695 95.2954 63.043C96.0688 62.8164 96.9165 62.7031 97.8384 62.7031C99.0962 62.7031 100.194 62.9297 101.131 63.3828C102.069 63.8359 102.795 64.457 103.311 65.2461C103.834 66.0352 104.096 66.9375 104.096 67.9531H100.604C100.604 67.4531 100.499 67.0156 100.288 66.6406C100.084 66.2578 99.772 65.957 99.3501 65.7383C98.936 65.5195 98.4126 65.4102 97.7798 65.4102C97.1704 65.4102 96.6626 65.5039 96.2563 65.6914C95.8501 65.8711 95.5454 66.1172 95.3423 66.4297C95.1392 66.7344 95.0376 67.0781 95.0376 67.4609C95.0376 67.75 95.1079 68.0117 95.2485 68.2461C95.397 68.4805 95.6157 68.6992 95.9048 68.9023C96.1938 69.1055 96.5493 69.2969 96.9712 69.4766C97.3931 69.6562 97.8813 69.832 98.436 70.0039C99.3657 70.2852 100.182 70.6016 100.885 70.9531C101.596 71.3047 102.19 71.6992 102.667 72.1367C103.143 72.5742 103.502 73.0703 103.745 73.625C103.987 74.1797 104.108 74.8086 104.108 75.5117C104.108 76.2539 103.963 76.918 103.674 77.5039C103.385 78.0898 102.967 78.5859 102.42 78.9922C101.874 79.3984 101.221 79.707 100.463 79.918C99.7056 80.1289 98.8579 80.2344 97.9204 80.2344C97.0767 80.2344 96.2446 80.125 95.4243 79.9062C94.604 79.6797 93.8579 79.3398 93.186 78.8867C92.522 78.4336 91.9907 77.8555 91.5923 77.1523C91.1938 76.4492 90.9946 75.6172 90.9946 74.6562H94.522C94.522 75.1875 94.604 75.6367 94.7681 76.0039C94.9321 76.3711 95.1626 76.668 95.4595 76.8945C95.7642 77.1211 96.1235 77.2852 96.5376 77.3867C96.9595 77.4883 97.4204 77.5391 97.9204 77.5391C98.5298 77.5391 99.0298 77.4531 99.4204 77.2812C99.8188 77.1094 100.112 76.8711 100.299 76.5664C100.495 76.2617 100.592 75.918 100.592 75.5352ZM117.877 69.8867V72.6289H108.971V69.8867H117.877ZM110.014 62.9375V80H106.499V62.9375H110.014ZM120.385 62.9375V80H116.881V62.9375H120.385ZM134.893 77.2578V80H125.811V77.2578H134.893ZM126.959 62.9375V80H123.444V62.9375H126.959ZM133.709 69.8867V72.5586H125.811V69.8867H133.709ZM134.881 62.9375V65.6914H125.811V62.9375H134.881ZM147.913 77.2578V80H139.323V77.2578H147.913ZM140.459 62.9375V80H136.944V62.9375H140.459ZM160.897 77.2578V80H152.307V77.2578H160.897ZM153.444 62.9375V80H149.928V62.9375H153.444ZM171.795 75.5352C171.795 75.2305 171.749 74.957 171.655 74.7148C171.569 74.4648 171.405 74.2383 171.163 74.0352C170.92 73.8242 170.581 73.6172 170.143 73.4141C169.706 73.2109 169.139 73 168.444 72.7812C167.67 72.5312 166.936 72.25 166.241 71.9375C165.553 71.625 164.944 71.2617 164.413 70.8477C163.889 70.4258 163.475 69.9375 163.17 69.3828C162.874 68.8281 162.725 68.1836 162.725 67.4492C162.725 66.7383 162.881 66.0938 163.194 65.5156C163.506 64.9297 163.944 64.4297 164.506 64.0156C165.069 63.5938 165.733 63.2695 166.499 63.043C167.272 62.8164 168.12 62.7031 169.042 62.7031C170.299 62.7031 171.397 62.9297 172.334 63.3828C173.272 63.8359 173.999 64.457 174.514 65.2461C175.038 66.0352 175.299 66.9375 175.299 67.9531H171.807C171.807 67.4531 171.702 67.0156 171.491 66.6406C171.288 66.2578 170.975 65.957 170.553 65.7383C170.139 65.5195 169.616 65.4102 168.983 65.4102C168.374 65.4102 167.866 65.5039 167.459 65.6914C167.053 65.8711 166.749 66.1172 166.545 66.4297C166.342 66.7344 166.241 67.0781 166.241 67.4609C166.241 67.75 166.311 68.0117 166.452 68.2461C166.6 68.4805 166.819 68.6992 167.108 68.9023C167.397 69.1055 167.752 69.2969 168.174 69.4766C168.596 69.6562 169.084 69.832 169.639 70.0039C170.569 70.2852 171.385 70.6016 172.088 70.9531C172.799 71.3047 173.393 71.6992 173.87 72.1367C174.346 72.5742 174.706 73.0703 174.948 73.625C175.19 74.1797 175.311 74.8086 175.311 75.5117C175.311 76.2539 175.167 76.918 174.877 77.5039C174.588 78.0898 174.17 78.5859 173.624 78.9922C173.077 79.3984 172.424 79.707 171.667 79.918C170.909 80.1289 170.061 80.2344 169.124 80.2344C168.28 80.2344 167.448 80.125 166.627 79.9062C165.807 79.6797 165.061 79.3398 164.389 78.8867C163.725 78.4336 163.194 77.8555 162.795 77.1523C162.397 76.4492 162.198 75.6172 162.198 74.6562H165.725C165.725 75.1875 165.807 75.6367 165.971 76.0039C166.135 76.3711 166.366 76.668 166.663 76.8945C166.967 77.1211 167.327 77.2852 167.741 77.3867C168.163 77.4883 168.624 77.5391 169.124 77.5391C169.733 77.5391 170.233 77.4531 170.624 77.2812C171.022 77.1094 171.315 76.8711 171.502 76.5664C171.698 76.2617 171.795 75.918 171.795 75.5352Z" fill="white"/>
<path d="M209.992 75.9817V84.1025C209.992 84.4138 209.868 84.7124 209.648 84.9324C209.428 85.1526 209.129 85.2762 208.818 85.2762C208.507 85.2762 208.208 85.1526 207.988 84.9324C207.768 84.7124 207.644 84.4138 207.644 84.1025V75.993C207.971 76.2317 208.363 76.3649 208.767 76.3749C209.208 76.3874 209.64 76.2487 209.992 75.9817ZM219.988 73.6343C219.69 73.6343 219.404 73.7526 219.194 73.9632C218.983 74.1738 218.865 74.4596 218.865 74.7575V76.1727C218.865 76.484 218.989 76.7826 219.209 77.0026C219.429 77.2228 219.727 77.3464 220.039 77.3464C220.35 77.3464 220.649 77.2228 220.869 77.0026C221.089 76.7826 221.212 76.484 221.212 76.1727V74.8136C221.221 74.6526 221.195 74.4915 221.136 74.3414C221.077 74.1914 220.986 74.0557 220.87 73.9438C220.754 73.8319 220.615 73.7464 220.463 73.6929C220.311 73.6395 220.149 73.6195 219.988 73.6343ZM205.094 79.0593C204.69 79.0472 204.299 78.9142 203.971 78.6774V86.8206C203.971 87.1335 204.095 87.4335 204.317 87.6546C204.538 87.8758 204.838 88 205.151 88C205.463 88 205.763 87.8758 205.985 87.6546C206.206 87.4335 206.33 87.1335 206.33 86.8206V78.7336C205.963 78.9707 205.53 79.0848 205.094 79.0593ZM216.326 71.1969C216.174 71.1893 216.022 71.2127 215.879 71.2658C215.737 71.3188 215.606 71.4003 215.496 71.5053C215.385 71.6105 215.298 71.7368 215.238 71.8769C215.178 72.017 215.147 72.1678 215.147 72.3201V78.5763C215.147 78.8892 215.271 79.1892 215.492 79.4103C215.714 79.6315 216.014 79.7557 216.326 79.7557C216.639 79.7557 216.939 79.6315 217.16 79.4103C217.382 79.1892 217.506 78.8892 217.506 78.5763V72.3987C217.515 72.2367 217.489 72.0746 217.429 71.9236C217.369 71.7727 217.277 71.6364 217.16 71.5243C217.042 71.4122 216.902 71.3269 216.749 71.2743C216.595 71.2216 216.432 71.2029 216.27 71.2194L216.326 71.1969ZM212.597 73.6006C212.174 73.5976 211.763 73.4643 211.418 73.2187V81.3843C211.418 81.6972 211.542 81.9972 211.763 82.2183C211.985 82.4395 212.285 82.5637 212.597 82.5637C212.91 82.5637 213.21 82.4395 213.431 82.2183C213.653 81.9972 213.777 81.6972 213.777 81.3843V73.2299C213.42 73.4953 212.985 73.6337 212.541 73.623L212.597 73.6006ZM202.545 79.8568V57.0446C202.542 56.7665 202.429 56.5008 202.232 56.3053C202.034 56.1097 201.767 56 201.489 56H201.242C200.964 56 200.697 56.1097 200.499 56.3053C200.302 56.5008 200.189 56.7665 200.186 57.0446V79.8568C200.186 80.1368 200.297 80.4054 200.495 80.6034C200.693 80.8014 200.962 80.9126 201.242 80.9126H201.489C201.769 80.9126 202.038 80.8014 202.236 80.6034C202.434 80.4054 202.545 80.1368 202.545 79.8568ZM205.218 78.1945H204.971C204.691 78.1945 204.422 78.0833 204.224 77.8852C204.026 77.6872 203.915 77.4187 203.915 77.1386V59.7627C203.918 59.4847 204.031 59.219 204.228 59.0234C204.426 58.8278 204.693 58.7181 204.971 58.7181H205.218C205.496 58.7181 205.763 58.8278 205.961 59.0234C206.158 59.219 206.271 59.4847 206.274 59.7627V77.1611C206.274 77.4411 206.163 77.7097 205.965 77.9077C205.767 78.1057 205.498 78.2169 205.218 78.2169V78.1945ZM208.936 75.5212H208.677C208.4 75.5212 208.135 75.4112 207.939 75.2153C207.743 75.0194 207.633 74.7538 207.633 74.4767V62.4584C207.631 62.3203 207.657 62.1832 207.709 62.0552C207.761 61.9272 207.838 61.8107 207.935 61.7125C208.032 61.6143 208.148 61.5364 208.275 61.4832C208.403 61.43 208.539 61.4026 208.677 61.4026H208.936C209.214 61.4056 209.48 61.5181 209.675 61.7158C209.871 61.9135 209.98 62.1803 209.98 62.4584V74.4767C209.98 74.7538 209.87 75.0194 209.674 75.2153C209.479 75.4112 209.213 75.5212 208.936 75.5212ZM212.654 72.7694H212.418C212.14 72.7694 211.873 72.6598 211.675 72.4641C211.477 72.2686 211.365 72.0029 211.362 71.7248V65.2552C211.353 65.111 211.373 64.9664 211.422 64.8304C211.471 64.6945 211.547 64.5699 211.646 64.4647C211.745 64.3593 211.865 64.2755 211.998 64.2182C212.13 64.1611 212.273 64.1316 212.418 64.132H212.665C212.945 64.132 213.213 64.2432 213.411 64.4412C213.609 64.6392 213.721 64.9078 213.721 65.1878V71.7024C213.722 71.842 213.696 71.9805 213.643 72.1098C213.591 72.2392 213.514 72.357 213.415 72.4562C213.317 72.5554 213.2 72.6342 213.071 72.688C212.943 72.7418 212.804 72.7694 212.665 72.7694H212.654ZM216.383 70.3545H216.135C215.855 70.3545 215.587 70.2433 215.389 70.0453C215.191 69.8473 215.08 69.5787 215.08 69.2987V67.6251C215.083 67.347 215.195 67.0814 215.393 66.8858C215.591 66.6902 215.857 66.5806 216.135 66.5806H216.383C216.661 66.5806 216.928 66.6902 217.125 66.8858C217.323 67.0814 217.435 67.347 217.438 67.6251V69.2987C217.438 69.5768 217.329 69.8437 217.133 70.0414C216.938 70.239 216.672 70.3516 216.394 70.3545H216.383Z" fill="white"/>
<path d="M234.851 77.293L238.249 62.9375H240.147L240.581 65.3281L236.96 80H234.921L234.851 77.293ZM233.104 62.9375L235.917 77.293L235.683 80H233.409L229.624 62.9375H233.104ZM243.569 77.2344L246.347 62.9375H249.827L246.054 80H243.78L243.569 77.2344ZM241.214 62.9375L244.636 77.3516L244.542 80H242.503L238.858 65.3164L239.327 62.9375H241.214ZM258.159 65.8555L253.519 80H249.78L256.12 62.9375H258.499L258.159 65.8555ZM262.015 80L257.362 65.8555L256.987 62.9375H259.39L265.765 80H262.015ZM261.804 73.6484V76.4023H252.792V73.6484H261.804ZM272.538 76.4375L276.558 62.9375H280.472L274.53 80H271.952L272.538 76.4375ZM268.835 62.9375L272.843 76.4375L273.452 80H270.851L264.944 62.9375H268.835ZM293.515 77.2578V80H284.433V77.2578H293.515ZM285.581 62.9375V80H282.065V62.9375H285.581ZM292.331 69.8867V72.5586H284.433V69.8867H292.331ZM293.503 62.9375V65.6914H284.433V62.9375H293.503ZM304.448 75.5352C304.448 75.2305 304.401 74.957 304.308 74.7148C304.222 74.4648 304.058 74.2383 303.815 74.0352C303.573 73.8242 303.233 73.6172 302.796 73.4141C302.358 73.2109 301.792 73 301.097 72.7812C300.323 72.5312 299.589 72.25 298.894 71.9375C298.206 71.625 297.597 71.2617 297.065 70.8477C296.542 70.4258 296.128 69.9375 295.823 69.3828C295.526 68.8281 295.378 68.1836 295.378 67.4492C295.378 66.7383 295.534 66.0938 295.847 65.5156C296.159 64.9297 296.597 64.4297 297.159 64.0156C297.722 63.5938 298.386 63.2695 299.151 63.043C299.925 62.8164 300.772 62.7031 301.694 62.7031C302.952 62.7031 304.05 62.9297 304.987 63.3828C305.925 63.8359 306.651 64.457 307.167 65.2461C307.69 66.0352 307.952 66.9375 307.952 67.9531H304.46C304.46 67.4531 304.354 67.0156 304.144 66.6406C303.94 66.2578 303.628 65.957 303.206 65.7383C302.792 65.5195 302.269 65.4102 301.636 65.4102C301.026 65.4102 300.519 65.5039 300.112 65.6914C299.706 65.8711 299.401 66.1172 299.198 66.4297C298.995 66.7344 298.894 67.0781 298.894 67.4609C298.894 67.75 298.964 68.0117 299.104 68.2461C299.253 68.4805 299.472 68.6992 299.761 68.9023C300.05 69.1055 300.405 69.2969 300.827 69.4766C301.249 69.6562 301.737 69.832 302.292 70.0039C303.222 70.2852 304.038 70.6016 304.741 70.9531C305.452 71.3047 306.046 71.6992 306.522 72.1367C306.999 72.5742 307.358 73.0703 307.601 73.625C307.843 74.1797 307.964 74.8086 307.964 75.5117C307.964 76.2539 307.819 76.918 307.53 77.5039C307.241 78.0898 306.823 78.5859 306.276 78.9922C305.729 79.3984 305.077 79.707 304.319 79.918C303.562 80.1289 302.714 80.2344 301.776 80.2344C300.933 80.2344 300.101 80.125 299.28 79.9062C298.46 79.6797 297.714 79.3398 297.042 78.8867C296.378 78.4336 295.847 77.8555 295.448 77.1523C295.05 76.4492 294.851 75.6172 294.851 74.6562H298.378C298.378 75.1875 298.46 75.6367 298.624 76.0039C298.788 76.3711 299.019 76.668 299.315 76.8945C299.62 77.1211 299.979 77.2852 300.394 77.3867C300.815 77.4883 301.276 77.5391 301.776 77.5391C302.386 77.5391 302.886 77.4531 303.276 77.2812C303.675 77.1094 303.968 76.8711 304.155 76.5664C304.351 76.2617 304.448 75.918 304.448 75.5352Z" fill="white"/>
<path d="M135.003 144H147.921L115.921 112H103.003L135.003 144Z" fill="white"/>
<path d="M122.558 112L153.405 142.847V112H145.057V121.739L135.318 112L122.558 112Z" fill="white"/>
<path d="M97.5952 113.071V144H105.943V134.261L115.682 144H128.524L97.5952 113.071Z" fill="white"/>
<path d="M169.866 121.855L165.225 136H161.487L167.827 118.938H170.206L169.866 121.855ZM173.721 136L169.069 121.855L168.694 118.938H171.096L177.471 136H173.721ZM173.51 129.648V132.402H164.499V129.648H173.51ZM182.217 126.086V136H178.842V123.32H182.018L182.217 126.086ZM186.038 123.238L185.979 126.367C185.815 126.344 185.616 126.324 185.381 126.309C185.155 126.285 184.948 126.273 184.76 126.273C184.284 126.273 183.87 126.336 183.518 126.461C183.174 126.578 182.885 126.754 182.651 126.988C182.424 127.223 182.252 127.508 182.135 127.844C182.026 128.18 181.963 128.562 181.948 128.992L181.268 128.781C181.268 127.961 181.35 127.207 181.514 126.52C181.678 125.824 181.917 125.219 182.229 124.703C182.549 124.188 182.94 123.789 183.401 123.508C183.862 123.227 184.389 123.086 184.983 123.086C185.17 123.086 185.362 123.102 185.557 123.133C185.752 123.156 185.913 123.191 186.038 123.238ZM194.428 123.32V125.711H187.045V123.32H194.428ZM188.874 120.191H192.249V132.18C192.249 132.547 192.295 132.828 192.389 133.023C192.491 133.219 192.639 133.355 192.834 133.434C193.03 133.504 193.276 133.539 193.573 133.539C193.784 133.539 193.971 133.531 194.135 133.516C194.307 133.492 194.452 133.469 194.569 133.445L194.581 135.93C194.292 136.023 193.979 136.098 193.643 136.152C193.307 136.207 192.936 136.234 192.53 136.234C191.788 136.234 191.139 136.113 190.584 135.871C190.038 135.621 189.616 135.223 189.319 134.676C189.022 134.129 188.874 133.41 188.874 132.52V120.191ZM202.713 132.438L206.733 118.938H210.647L204.706 136H202.127L202.713 132.438ZM199.01 118.938L203.018 132.438L203.627 136H201.026L195.12 118.938H199.01ZM217.35 136.234C216.366 136.234 215.483 136.078 214.702 135.766C213.92 135.445 213.256 135.004 212.709 134.441C212.17 133.879 211.756 133.227 211.467 132.484C211.178 131.734 211.034 130.938 211.034 130.094V129.625C211.034 128.664 211.17 127.785 211.444 126.988C211.717 126.191 212.108 125.5 212.616 124.914C213.131 124.328 213.756 123.879 214.491 123.566C215.225 123.246 216.053 123.086 216.975 123.086C217.874 123.086 218.67 123.234 219.366 123.531C220.061 123.828 220.643 124.25 221.112 124.797C221.588 125.344 221.948 126 222.19 126.766C222.432 127.523 222.553 128.367 222.553 129.297V130.703H212.475V128.453H219.237V128.195C219.237 127.727 219.151 127.309 218.979 126.941C218.815 126.566 218.565 126.27 218.229 126.051C217.893 125.832 217.463 125.723 216.94 125.723C216.495 125.723 216.112 125.82 215.792 126.016C215.471 126.211 215.209 126.484 215.006 126.836C214.811 127.188 214.663 127.602 214.561 128.078C214.467 128.547 214.42 129.062 214.42 129.625V130.094C214.42 130.602 214.491 131.07 214.631 131.5C214.78 131.93 214.987 132.301 215.252 132.613C215.526 132.926 215.854 133.168 216.237 133.34C216.627 133.512 217.069 133.598 217.561 133.598C218.17 133.598 218.737 133.48 219.26 133.246C219.792 133.004 220.249 132.641 220.631 132.156L222.272 133.938C222.006 134.32 221.643 134.688 221.182 135.039C220.729 135.391 220.182 135.68 219.542 135.906C218.901 136.125 218.17 136.234 217.35 136.234ZM227.78 126.027V136H224.405V123.32H227.569L227.78 126.027ZM227.288 129.215H226.374C226.374 128.277 226.495 127.434 226.737 126.684C226.979 125.926 227.319 125.281 227.756 124.75C228.194 124.211 228.713 123.801 229.315 123.52C229.924 123.23 230.604 123.086 231.354 123.086C231.948 123.086 232.491 123.172 232.983 123.344C233.475 123.516 233.897 123.789 234.249 124.164C234.608 124.539 234.881 125.035 235.069 125.652C235.264 126.27 235.362 127.023 235.362 127.914V136H231.963V127.902C231.963 127.34 231.885 126.902 231.729 126.59C231.573 126.277 231.342 126.059 231.038 125.934C230.741 125.801 230.374 125.734 229.936 125.734C229.483 125.734 229.088 125.824 228.752 126.004C228.424 126.184 228.151 126.434 227.932 126.754C227.721 127.066 227.561 127.434 227.452 127.855C227.342 128.277 227.288 128.73 227.288 129.215ZM245.428 132.965V123.32H248.803V136H245.627L245.428 132.965ZM245.803 130.363L246.799 130.34C246.799 131.184 246.702 131.969 246.506 132.695C246.311 133.414 246.018 134.039 245.627 134.57C245.237 135.094 244.745 135.504 244.151 135.801C243.557 136.09 242.858 136.234 242.053 136.234C241.436 136.234 240.866 136.148 240.342 135.977C239.827 135.797 239.381 135.52 239.006 135.145C238.639 134.762 238.35 134.273 238.139 133.68C237.936 133.078 237.834 132.355 237.834 131.512V123.32H241.209V131.535C241.209 131.91 241.252 132.227 241.338 132.484C241.432 132.742 241.561 132.953 241.725 133.117C241.889 133.281 242.081 133.398 242.299 133.469C242.526 133.539 242.776 133.574 243.049 133.574C243.745 133.574 244.292 133.434 244.69 133.152C245.096 132.871 245.381 132.488 245.545 132.004C245.717 131.512 245.803 130.965 245.803 130.363ZM257.217 136.234C256.233 136.234 255.35 136.078 254.569 135.766C253.788 135.445 253.124 135.004 252.577 134.441C252.038 133.879 251.624 133.227 251.334 132.484C251.045 131.734 250.901 130.938 250.901 130.094V129.625C250.901 128.664 251.038 127.785 251.311 126.988C251.584 126.191 251.975 125.5 252.483 124.914C252.999 124.328 253.624 123.879 254.358 123.566C255.092 123.246 255.92 123.086 256.842 123.086C257.741 123.086 258.538 123.234 259.233 123.531C259.928 123.828 260.51 124.25 260.979 124.797C261.456 125.344 261.815 126 262.057 126.766C262.299 127.523 262.42 128.367 262.42 129.297V130.703H252.342V128.453H259.104V128.195C259.104 127.727 259.018 127.309 258.846 126.941C258.682 126.566 258.432 126.27 258.096 126.051C257.76 125.832 257.331 125.723 256.807 125.723C256.362 125.723 255.979 125.82 255.659 126.016C255.338 126.211 255.077 126.484 254.874 126.836C254.678 127.188 254.53 127.602 254.428 128.078C254.334 128.547 254.288 129.062 254.288 129.625V130.094C254.288 130.602 254.358 131.07 254.499 131.5C254.647 131.93 254.854 132.301 255.12 132.613C255.393 132.926 255.721 133.168 256.104 133.34C256.495 133.512 256.936 133.598 257.428 133.598C258.038 133.598 258.604 133.48 259.127 133.246C259.659 133.004 260.116 132.641 260.499 132.156L262.139 133.938C261.874 134.32 261.51 134.688 261.049 135.039C260.596 135.391 260.049 135.68 259.409 135.906C258.768 136.125 258.038 136.234 257.217 136.234Z" fill="white"/>
</svg>
