<svg width="1280" height="32" viewBox="0 0 1280 32" fill="none" xmlns="http://www.w3.org/2000/svg">
<path d="M148.483 26.4845L127.07 11.714C124.9 10.2173 125.638 7.10088 128.344 6.36802L151.101 0.191307C151.584 0.0173566 152.1 -0.0391112 152.608 0.0265948C153.117 0.0923008 153.602 0.278283 154.024 0.569108C154.446 0.859932 154.793 1.24721 155.035 1.6988C155.277 2.15038 155.408 2.65326 155.417 3.16568L154.069 24.1116C153.909 26.5978 150.653 27.9812 148.483 26.4845Z" fill="white"/>
<path d="M141.691 30.1304L129.077 5.46055C128.788 4.89618 128.661 4.26312 128.71 3.63121C128.758 2.9993 128.981 2.39308 129.352 1.8794C129.723 1.36572 130.229 0.96454 130.814 0.720098C131.398 0.475655 132.039 0.397452 132.666 0.494119L156.044 4.10227C156.582 4.18535 157.093 4.395 157.535 4.71398C157.976 5.03297 158.335 5.45218 158.583 5.93714C158.831 6.4221 158.96 6.95895 158.96 7.50358C158.96 8.04819 158.831 8.58502 158.583 9.0699L147.813 30.1316C147.524 30.6943 147.085 31.1665 146.545 31.4961C146.005 31.8257 145.385 32 144.752 31.9999C144.119 31.9997 143.499 31.8252 142.959 31.4955C142.419 31.1656 141.98 30.6933 141.691 30.1304Z" fill="white"/>
<path d="M149.381 8.72693L144.892 8L139.381 9.57011L141.581 14.0856L146.732 17.8153C146.846 17.8966 146.971 17.959 147.102 18L149.059 13.9852L149.381 8.72693Z" fill="#0F172A"/>
<path d="M177.366 19.5352C177.366 19.2305 177.319 18.957 177.226 18.7148C177.14 18.4648 176.976 18.2383 176.733 18.0352C176.491 17.8242 176.151 17.6172 175.714 17.4141C175.276 17.2109 174.71 17 174.015 16.7812C173.241 16.5312 172.507 16.25 171.812 15.9375C171.124 15.625 170.515 15.2617 169.983 14.8477C169.46 14.4258 169.046 13.9375 168.741 13.3828C168.444 12.8281 168.296 12.1836 168.296 11.4492C168.296 10.7383 168.452 10.0938 168.765 9.51562C169.077 8.92969 169.515 8.42969 170.077 8.01562C170.64 7.59375 171.304 7.26953 172.069 7.04297C172.843 6.81641 173.69 6.70312 174.612 6.70312C175.87 6.70312 176.968 6.92969 177.905 7.38281C178.843 7.83594 179.569 8.45703 180.085 9.24609C180.608 10.0352 180.87 10.9375 180.87 11.9531H177.378C177.378 11.4531 177.272 11.0156 177.062 10.6406C176.858 10.2578 176.546 9.95703 176.124 9.73828C175.71 9.51953 175.187 9.41016 174.554 9.41016C173.944 9.41016 173.437 9.50391 173.03 9.69141C172.624 9.87109 172.319 10.1172 172.116 10.4297C171.913 10.7344 171.812 11.0781 171.812 11.4609C171.812 11.75 171.882 12.0117 172.022 12.2461C172.171 12.4805 172.39 12.6992 172.679 12.9023C172.968 13.1055 173.323 13.2969 173.745 13.4766C174.167 13.6562 174.655 13.832 175.21 14.0039C176.14 14.2852 176.956 14.6016 177.659 14.9531C178.37 15.3047 178.964 15.6992 179.44 16.1367C179.917 16.5742 180.276 17.0703 180.519 17.625C180.761 18.1797 180.882 18.8086 180.882 19.5117C180.882 20.2539 180.737 20.918 180.448 21.5039C180.159 22.0898 179.741 22.5859 179.194 22.9922C178.647 23.3984 177.995 23.707 177.237 23.918C176.479 24.1289 175.632 24.2344 174.694 24.2344C173.851 24.2344 173.019 24.125 172.198 23.9062C171.378 23.6797 170.632 23.3398 169.96 22.8867C169.296 22.4336 168.765 21.8555 168.366 21.1523C167.968 20.4492 167.769 19.6172 167.769 18.6562H171.296C171.296 19.1875 171.378 19.6367 171.542 20.0039C171.706 20.3711 171.937 20.668 172.233 20.8945C172.538 21.1211 172.897 21.2852 173.312 21.3867C173.733 21.4883 174.194 21.5391 174.694 21.5391C175.304 21.5391 175.804 21.4531 176.194 21.2812C176.593 21.1094 176.886 20.8711 177.073 20.5664C177.269 20.2617 177.366 19.918 177.366 19.5352ZM186.437 13.9453V24H183.05V11.3203H186.226L186.437 13.9453ZM185.968 17.2148H185.03C185.03 16.332 185.136 15.5195 185.347 14.7773C185.565 14.0273 185.882 13.3789 186.296 12.832C186.718 12.2773 187.237 11.8477 187.854 11.543C188.472 11.2383 189.187 11.0859 189.999 11.0859C190.562 11.0859 191.077 11.1719 191.546 11.3438C192.015 11.5078 192.417 11.7695 192.753 12.1289C193.097 12.4805 193.362 12.9414 193.55 13.5117C193.737 14.0742 193.831 14.75 193.831 15.5391V24H190.456V15.9141C190.456 15.3359 190.378 14.8906 190.222 14.5781C190.065 14.2656 189.843 14.0469 189.554 13.9219C189.272 13.7969 188.933 13.7344 188.534 13.7344C188.097 13.7344 187.714 13.8242 187.386 14.0039C187.065 14.1836 186.8 14.4336 186.589 14.7539C186.378 15.0664 186.222 15.4336 186.12 15.8555C186.019 16.2773 185.968 16.7305 185.968 17.2148ZM193.515 16.8281L192.308 16.9805C192.308 16.1523 192.409 15.3828 192.612 14.6719C192.823 13.9609 193.132 13.3359 193.538 12.7969C193.952 12.2578 194.464 11.8398 195.073 11.543C195.683 11.2383 196.386 11.0859 197.183 11.0859C197.792 11.0859 198.347 11.1758 198.847 11.3555C199.347 11.5273 199.772 11.8047 200.124 12.1875C200.483 12.5625 200.757 13.0547 200.944 13.6641C201.14 14.2734 201.237 15.0195 201.237 15.9023V24H197.851V15.9023C197.851 15.3164 197.772 14.8711 197.616 14.5664C197.468 14.2539 197.249 14.0391 196.96 13.9219C196.679 13.7969 196.343 13.7344 195.952 13.7344C195.546 13.7344 195.19 13.8164 194.886 13.9805C194.581 14.1367 194.327 14.3555 194.124 14.6367C193.921 14.918 193.769 15.2461 193.667 15.6211C193.565 15.9883 193.515 16.3906 193.515 16.8281ZM210.694 21.1406V15.4922C210.694 15.0859 210.628 14.7383 210.495 14.4492C210.362 14.1523 210.155 13.9219 209.874 13.7578C209.601 13.5938 209.245 13.5117 208.808 13.5117C208.433 13.5117 208.108 13.5781 207.835 13.7109C207.562 13.8359 207.351 14.0195 207.202 14.2617C207.054 14.4961 206.979 14.7734 206.979 15.0938H203.604C203.604 14.5547 203.729 14.043 203.979 13.5586C204.229 13.0742 204.593 12.6484 205.069 12.2812C205.546 11.9062 206.112 11.6133 206.769 11.4023C207.433 11.1914 208.175 11.0859 208.995 11.0859C209.979 11.0859 210.854 11.25 211.62 11.5781C212.386 11.9062 212.987 12.3984 213.425 13.0547C213.87 13.7109 214.093 14.5312 214.093 15.5156V20.9414C214.093 21.6367 214.136 22.207 214.222 22.6523C214.308 23.0898 214.433 23.4727 214.597 23.8008V24H211.187C211.022 23.6562 210.897 23.2266 210.812 22.7109C210.733 22.1875 210.694 21.6641 210.694 21.1406ZM211.14 16.2773L211.163 18.1875H209.276C208.831 18.1875 208.444 18.2383 208.116 18.3398C207.788 18.4414 207.519 18.5859 207.308 18.7734C207.097 18.9531 206.94 19.1641 206.839 19.4062C206.745 19.6484 206.698 19.9141 206.698 20.2031C206.698 20.4922 206.765 20.7539 206.897 20.9883C207.03 21.2148 207.222 21.3945 207.472 21.5273C207.722 21.6523 208.015 21.7148 208.351 21.7148C208.858 21.7148 209.3 21.6133 209.675 21.4102C210.05 21.207 210.339 20.957 210.542 20.6602C210.753 20.3633 210.862 20.082 210.87 19.8164L211.761 21.2461C211.636 21.5664 211.464 21.8984 211.245 22.2422C211.034 22.5859 210.765 22.9102 210.437 23.2148C210.108 23.5117 209.714 23.7578 209.253 23.9531C208.792 24.1406 208.245 24.2344 207.612 24.2344C206.808 24.2344 206.077 24.0742 205.421 23.7539C204.772 23.4258 204.257 22.9766 203.874 22.4062C203.499 21.8281 203.312 21.1719 203.312 20.4375C203.312 19.7734 203.437 19.1836 203.687 18.668C203.937 18.1523 204.304 17.7188 204.788 17.3672C205.28 17.0078 205.894 16.7383 206.628 16.5586C207.362 16.3711 208.214 16.2773 209.183 16.2773H211.14ZM220.069 14.0859V24H216.694V11.3203H219.87L220.069 14.0859ZM223.89 11.2383L223.831 14.3672C223.667 14.3438 223.468 14.3242 223.233 14.3086C223.007 14.2852 222.8 14.2734 222.612 14.2734C222.136 14.2734 221.722 14.3359 221.37 14.4609C221.026 14.5781 220.737 14.7539 220.503 14.9883C220.276 15.2227 220.104 15.5078 219.987 15.8438C219.878 16.1797 219.815 16.5625 219.8 16.9922L219.12 16.7812C219.12 15.9609 219.202 15.207 219.366 14.5195C219.53 13.8242 219.769 13.2188 220.081 12.7031C220.401 12.1875 220.792 11.7891 221.253 11.5078C221.714 11.2266 222.241 11.0859 222.835 11.0859C223.022 11.0859 223.214 11.1016 223.409 11.1328C223.604 11.1562 223.765 11.1914 223.89 11.2383ZM232.28 11.3203V13.7109H224.897V11.3203H232.28ZM226.726 8.19141H230.101V20.1797C230.101 20.5469 230.147 20.8281 230.241 21.0234C230.343 21.2188 230.491 21.3555 230.687 21.4336C230.882 21.5039 231.128 21.5391 231.425 21.5391C231.636 21.5391 231.823 21.5312 231.987 21.5156C232.159 21.4922 232.304 21.4688 232.421 21.4453L232.433 23.9297C232.144 24.0234 231.831 24.0977 231.495 24.1523C231.159 24.207 230.788 24.2344 230.382 24.2344C229.64 24.2344 228.991 24.1133 228.437 23.8711C227.89 23.6211 227.468 23.2227 227.171 22.6758C226.874 22.1289 226.726 21.4102 226.726 20.5195V8.19141ZM237.929 6.9375V24H234.413V6.9375H237.929ZM244.726 14.2266V16.9688H236.968V14.2266H244.726ZM245.546 6.9375V9.69141H236.968V6.9375H245.546ZM250.937 11.3203V24H247.55V11.3203H250.937ZM247.339 8.01562C247.339 7.52344 247.511 7.11719 247.854 6.79688C248.198 6.47656 248.659 6.31641 249.237 6.31641C249.808 6.31641 250.265 6.47656 250.608 6.79688C250.96 7.11719 251.136 7.52344 251.136 8.01562C251.136 8.50781 250.96 8.91406 250.608 9.23438C250.265 9.55469 249.808 9.71484 249.237 9.71484C248.659 9.71484 248.198 9.55469 247.854 9.23438C247.511 8.91406 247.339 8.50781 247.339 8.01562ZM257.03 14.0273V24H253.655V11.3203H256.819L257.03 14.0273ZM256.538 17.2148H255.624C255.624 16.2773 255.745 15.4336 255.987 14.6836C256.229 13.9258 256.569 13.2812 257.007 12.75C257.444 12.2109 257.964 11.8008 258.565 11.5195C259.175 11.2305 259.854 11.0859 260.604 11.0859C261.198 11.0859 261.741 11.1719 262.233 11.3438C262.726 11.5156 263.147 11.7891 263.499 12.1641C263.858 12.5391 264.132 13.0352 264.319 13.6523C264.515 14.2695 264.612 15.0234 264.612 15.9141V24H261.214V15.9023C261.214 15.3398 261.136 14.9023 260.979 14.5898C260.823 14.2773 260.593 14.0586 260.288 13.9336C259.991 13.8008 259.624 13.7344 259.187 13.7344C258.733 13.7344 258.339 13.8242 258.003 14.0039C257.675 14.1836 257.401 14.4336 257.183 14.7539C256.972 15.0664 256.812 15.4336 256.702 15.8555C256.593 16.2773 256.538 16.7305 256.538 17.2148ZM274.667 21.2344V6H278.065V24H275.007L274.667 21.2344ZM266.651 17.8125V17.5664C266.651 16.5977 266.761 15.7188 266.979 14.9297C267.198 14.1328 267.519 13.4492 267.94 12.8789C268.362 12.3086 268.882 11.8672 269.499 11.5547C270.116 11.2422 270.819 11.0859 271.608 11.0859C272.351 11.0859 272.999 11.2422 273.554 11.5547C274.116 11.8672 274.593 12.3125 274.983 12.8906C275.382 13.4609 275.702 14.1367 275.944 14.918C276.187 15.6914 276.362 16.5391 276.472 17.4609V18C276.362 18.8828 276.187 19.7031 275.944 20.4609C275.702 21.2188 275.382 21.8828 274.983 22.4531C274.593 23.0156 274.116 23.4531 273.554 23.7656C272.991 24.0781 272.335 24.2344 271.585 24.2344C270.796 24.2344 270.093 24.0742 269.476 23.7539C268.866 23.4336 268.351 22.9844 267.929 22.4062C267.515 21.8281 267.198 21.1484 266.979 20.3672C266.761 19.5859 266.651 18.7344 266.651 17.8125ZM270.026 17.5664V17.8125C270.026 18.3359 270.065 18.8242 270.144 19.2773C270.229 19.7305 270.366 20.1328 270.554 20.4844C270.749 20.8281 270.999 21.0977 271.304 21.293C271.616 21.4805 271.995 21.5742 272.44 21.5742C273.019 21.5742 273.495 21.4453 273.87 21.1875C274.245 20.9219 274.53 20.5586 274.726 20.0977C274.929 19.6367 275.046 19.1055 275.077 18.5039V16.9688C275.054 16.4766 274.983 16.0352 274.866 15.6445C274.757 15.2461 274.593 14.9062 274.374 14.625C274.163 14.3438 273.897 14.125 273.577 13.9688C273.265 13.8125 272.894 13.7344 272.464 13.7344C272.026 13.7344 271.651 13.8359 271.339 14.0391C271.026 14.2344 270.772 14.5039 270.577 14.8477C270.39 15.1914 270.249 15.5977 270.155 16.0664C270.069 16.5273 270.026 17.0273 270.026 17.5664ZM286.538 24.2344C285.554 24.2344 284.671 24.0781 283.89 23.7656C283.108 23.4453 282.444 23.0039 281.897 22.4414C281.358 21.8789 280.944 21.2266 280.655 20.4844C280.366 19.7344 280.222 18.9375 280.222 18.0938V17.625C280.222 16.6641 280.358 15.7852 280.632 14.9883C280.905 14.1914 281.296 13.5 281.804 12.9141C282.319 12.3281 282.944 11.8789 283.679 11.5664C284.413 11.2461 285.241 11.0859 286.163 11.0859C287.062 11.0859 287.858 11.2344 288.554 11.5312C289.249 11.8281 289.831 12.25 290.3 12.7969C290.776 13.3438 291.136 14 291.378 14.7656C291.62 15.5234 291.741 16.3672 291.741 17.2969V18.7031H281.663V16.4531H288.425V16.1953C288.425 15.7266 288.339 15.3086 288.167 14.9414C288.003 14.5664 287.753 14.2695 287.417 14.0508C287.081 13.832 286.651 13.7227 286.128 13.7227C285.683 13.7227 285.3 13.8203 284.979 14.0156C284.659 14.2109 284.397 14.4844 284.194 14.8359C283.999 15.1875 283.851 15.6016 283.749 16.0781C283.655 16.5469 283.608 17.0625 283.608 17.625V18.0938C283.608 18.6016 283.679 19.0703 283.819 19.5C283.968 19.9297 284.175 20.3008 284.44 20.6133C284.714 20.9258 285.042 21.168 285.425 21.3398C285.815 21.5117 286.257 21.5977 286.749 21.5977C287.358 21.5977 287.925 21.4805 288.448 21.2461C288.979 21.0039 289.437 20.6406 289.819 20.1562L291.46 21.9375C291.194 22.3203 290.831 22.6875 290.37 23.0391C289.917 23.3906 289.37 23.6797 288.729 23.9062C288.089 24.125 287.358 24.2344 286.538 24.2344ZM297.038 14.0859V24H293.663V11.3203H296.839L297.038 14.0859ZM300.858 11.2383L300.8 14.3672C300.636 14.3438 300.437 14.3242 300.202 14.3086C299.976 14.2852 299.769 14.2734 299.581 14.2734C299.104 14.2734 298.69 14.3359 298.339 14.4609C297.995 14.5781 297.706 14.7539 297.472 14.9883C297.245 15.2227 297.073 15.5078 296.956 15.8438C296.847 16.1797 296.784 16.5625 296.769 16.9922L296.089 16.7812C296.089 15.9609 296.171 15.207 296.335 14.5195C296.499 13.8242 296.737 13.2188 297.05 12.7031C297.37 12.1875 297.761 11.7891 298.222 11.5078C298.683 11.2266 299.21 11.0859 299.804 11.0859C299.991 11.0859 300.183 11.1016 300.378 11.1328C300.573 11.1562 300.733 11.1914 300.858 11.2383Z" fill="white"/>
<path fill-rule="evenodd" clip-rule="evenodd" d="M397.96 32C406.797 32 413.96 24.8366 413.96 16C413.96 7.16345 406.797 0 397.96 0C389.124 0 381.96 7.16345 381.96 16C381.96 24.8366 389.124 32 397.96 32ZM402.952 7.45348C403.195 6.59044 402.357 6.08011 401.592 6.62504L390.915 14.2317C390.085 14.8226 390.216 16 391.111 16H393.923V15.9782H399.402L394.937 17.5537L392.969 24.5466C392.726 25.4096 393.564 25.9199 394.328 25.375L405.006 17.7684C405.836 17.1774 405.705 16 404.81 16H400.546L402.952 7.45348Z" fill="white"/>
<path d="M435.824 21.2578V24H423.73V21.2578H435.824ZM435.648 8.89453L425.289 24H422.816V21.9844L433.257 6.9375H435.648V8.89453ZM434.441 6.9375V9.69141H422.828V6.9375H434.441ZM437.054 17.7891V17.543C437.054 16.6133 437.187 15.7578 437.453 14.9766C437.718 14.1875 438.105 13.5039 438.613 12.9258C439.121 12.3477 439.746 11.8984 440.488 11.5781C441.23 11.25 442.082 11.0859 443.042 11.0859C444.003 11.0859 444.859 11.25 445.609 11.5781C446.359 11.8984 446.988 12.3477 447.496 12.9258C448.011 13.5039 448.402 14.1875 448.667 14.9766C448.933 15.7578 449.066 16.6133 449.066 17.543V17.7891C449.066 18.7109 448.933 19.5664 448.667 20.3555C448.402 21.1367 448.011 21.8203 447.496 22.4062C446.988 22.9844 446.363 23.4336 445.621 23.7539C444.878 24.0742 444.027 24.2344 443.066 24.2344C442.105 24.2344 441.25 24.0742 440.5 23.7539C439.757 23.4336 439.128 22.9844 438.613 22.4062C438.105 21.8203 437.718 21.1367 437.453 20.3555C437.187 19.5664 437.054 18.7109 437.054 17.7891ZM440.429 17.543V17.7891C440.429 18.3203 440.476 18.8164 440.57 19.2773C440.664 19.7383 440.812 20.1445 441.015 20.4961C441.226 20.8398 441.5 21.1094 441.835 21.3047C442.171 21.5 442.582 21.5977 443.066 21.5977C443.535 21.5977 443.937 21.5 444.273 21.3047C444.609 21.1094 444.878 20.8398 445.082 20.4961C445.285 20.1445 445.433 19.7383 445.527 19.2773C445.628 18.8164 445.679 18.3203 445.679 17.7891V17.543C445.679 17.0273 445.628 16.543 445.527 16.0898C445.433 15.6289 445.281 15.2227 445.07 14.8711C444.867 14.5117 444.597 14.2305 444.261 14.0273C443.925 13.8242 443.519 13.7227 443.042 13.7227C442.566 13.7227 442.16 13.8242 441.824 14.0273C441.496 14.2305 441.226 14.5117 441.015 14.8711C440.812 15.2227 440.664 15.6289 440.57 16.0898C440.476 16.543 440.429 17.0273 440.429 17.543ZM450.601 17.7891V17.543C450.601 16.6133 450.734 15.7578 451 14.9766C451.265 14.1875 451.652 13.5039 452.16 12.9258C452.667 12.3477 453.292 11.8984 454.035 11.5781C454.777 11.25 455.628 11.0859 456.589 11.0859C457.55 11.0859 458.406 11.25 459.156 11.5781C459.906 11.8984 460.535 12.3477 461.042 12.9258C461.558 13.5039 461.949 14.1875 462.214 14.9766C462.48 15.7578 462.613 16.6133 462.613 17.543V17.7891C462.613 18.7109 462.48 19.5664 462.214 20.3555C461.949 21.1367 461.558 21.8203 461.042 22.4062C460.535 22.9844 459.91 23.4336 459.167 23.7539C458.425 24.0742 457.574 24.2344 456.613 24.2344C455.652 24.2344 454.796 24.0742 454.046 23.7539C453.304 23.4336 452.675 22.9844 452.16 22.4062C451.652 21.8203 451.265 21.1367 451 20.3555C450.734 19.5664 450.601 18.7109 450.601 17.7891ZM453.976 17.543V17.7891C453.976 18.3203 454.023 18.8164 454.117 19.2773C454.21 19.7383 454.359 20.1445 454.562 20.4961C454.773 20.8398 455.046 21.1094 455.382 21.3047C455.718 21.5 456.128 21.5977 456.613 21.5977C457.082 21.5977 457.484 21.5 457.82 21.3047C458.156 21.1094 458.425 20.8398 458.628 20.4961C458.832 20.1445 458.98 19.7383 459.074 19.2773C459.175 18.8164 459.226 18.3203 459.226 17.7891V17.543C459.226 17.0273 459.175 16.543 459.074 16.0898C458.98 15.6289 458.828 15.2227 458.617 14.8711C458.414 14.5117 458.144 14.2305 457.808 14.0273C457.472 13.8242 457.066 13.7227 456.589 13.7227C456.113 13.7227 455.707 13.8242 455.371 14.0273C455.042 14.2305 454.773 14.5117 454.562 14.8711C454.359 15.2227 454.21 15.6289 454.117 16.0898C454.023 16.543 453.976 17.0273 453.976 17.543ZM468.062 13.9453V24H464.675V11.3203H467.851L468.062 13.9453ZM467.593 17.2148H466.656C466.656 16.332 466.761 15.5195 466.972 14.7773C467.191 14.0273 467.507 13.3789 467.921 12.832C468.343 12.2773 468.863 11.8477 469.48 11.543C470.097 11.2383 470.812 11.0859 471.625 11.0859C472.187 11.0859 472.703 11.1719 473.171 11.3438C473.64 11.5078 474.042 11.7695 474.378 12.1289C474.722 12.4805 474.988 12.9414 475.175 13.5117C475.363 14.0742 475.457 14.75 475.457 15.5391V24H472.082V15.9141C472.082 15.3359 472.003 14.8906 471.847 14.5781C471.691 14.2656 471.468 14.0469 471.179 13.9219C470.898 13.7969 470.558 13.7344 470.16 13.7344C469.722 13.7344 469.339 13.8242 469.011 14.0039C468.691 14.1836 468.425 14.4336 468.214 14.7539C468.003 15.0664 467.847 15.4336 467.746 15.8555C467.644 16.2773 467.593 16.7305 467.593 17.2148ZM475.14 16.8281L473.933 16.9805C473.933 16.1523 474.035 15.3828 474.238 14.6719C474.449 13.9609 474.757 13.3359 475.164 12.7969C475.578 12.2578 476.089 11.8398 476.699 11.543C477.308 11.2383 478.011 11.0859 478.808 11.0859C479.417 11.0859 479.972 11.1758 480.472 11.3555C480.972 11.5273 481.398 11.8047 481.75 12.1875C482.109 12.5625 482.382 13.0547 482.57 13.6641C482.765 14.2734 482.863 15.0195 482.863 15.9023V24H479.476V15.9023C479.476 15.3164 479.398 14.8711 479.242 14.5664C479.093 14.2539 478.875 14.0391 478.585 13.9219C478.304 13.7969 477.968 13.7344 477.578 13.7344C477.171 13.7344 476.816 13.8164 476.511 13.9805C476.207 14.1367 475.953 14.3555 475.75 14.6367C475.546 14.918 475.394 15.2461 475.292 15.6211C475.191 15.9883 475.14 16.3906 475.14 16.8281ZM491.312 24.2344C490.328 24.2344 489.445 24.0781 488.664 23.7656C487.882 23.4453 487.218 23.0039 486.671 22.4414C486.132 21.8789 485.718 21.2266 485.429 20.4844C485.14 19.7344 484.996 18.9375 484.996 18.0938V17.625C484.996 16.6641 485.132 15.7852 485.406 14.9883C485.679 14.1914 486.07 13.5 486.578 12.9141C487.093 12.3281 487.718 11.8789 488.453 11.5664C489.187 11.2461 490.015 11.0859 490.937 11.0859C491.835 11.0859 492.632 11.2344 493.328 11.5312C494.023 11.8281 494.605 12.25 495.074 12.7969C495.55 13.3438 495.91 14 496.152 14.7656C496.394 15.5234 496.515 16.3672 496.515 17.2969V18.7031H486.437V16.4531H493.199V16.1953C493.199 15.7266 493.113 15.3086 492.941 14.9414C492.777 14.5664 492.527 14.2695 492.191 14.0508C491.855 13.832 491.425 13.7227 490.902 13.7227C490.457 13.7227 490.074 13.8203 489.753 14.0156C489.433 14.2109 489.171 14.4844 488.968 14.8359C488.773 15.1875 488.625 15.6016 488.523 16.0781C488.429 16.5469 488.382 17.0625 488.382 17.625V18.0938C488.382 18.6016 488.453 19.0703 488.593 19.5C488.742 19.9297 488.949 20.3008 489.214 20.6133C489.488 20.9258 489.816 21.168 490.199 21.3398C490.589 21.5117 491.031 21.5977 491.523 21.5977C492.132 21.5977 492.699 21.4805 493.222 21.2461C493.753 21.0039 494.21 20.6406 494.593 20.1562L496.234 21.9375C495.968 22.3203 495.605 22.6875 495.144 23.0391C494.691 23.3906 494.144 23.6797 493.503 23.9062C492.863 24.125 492.132 24.2344 491.312 24.2344ZM501.812 14.0859V24H498.437V11.3203H501.613L501.812 14.0859ZM505.632 11.2383L505.574 14.3672C505.41 14.3438 505.21 14.3242 504.976 14.3086C504.75 14.2852 504.542 14.2734 504.355 14.2734C503.878 14.2734 503.464 14.3359 503.113 14.4609C502.769 14.5781 502.48 14.7539 502.246 14.9883C502.019 15.2227 501.847 15.5078 501.73 15.8438C501.621 16.1797 501.558 16.5625 501.542 16.9922L500.863 16.7812C500.863 15.9609 500.945 15.207 501.109 14.5195C501.273 13.8242 501.511 13.2188 501.824 12.7031C502.144 12.1875 502.535 11.7891 502.996 11.5078C503.457 11.2266 503.984 11.0859 504.578 11.0859C504.765 11.0859 504.957 11.1016 505.152 11.1328C505.347 11.1562 505.507 11.1914 505.632 11.2383ZM510.601 14.0859V24H507.226V11.3203H510.402L510.601 14.0859ZM514.421 11.2383L514.363 14.3672C514.199 14.3438 514 14.3242 513.765 14.3086C513.539 14.2852 513.332 14.2734 513.144 14.2734C512.667 14.2734 512.253 14.3359 511.902 14.4609C511.558 14.5781 511.269 14.7539 511.035 14.9883C510.808 15.2227 510.636 15.5078 510.519 15.8438C510.41 16.1797 510.347 16.5625 510.332 16.9922L509.652 16.7812C509.652 15.9609 509.734 15.207 509.898 14.5195C510.062 13.8242 510.3 13.2188 510.613 12.7031C510.933 12.1875 511.324 11.7891 511.785 11.5078C512.246 11.2266 512.773 11.0859 513.367 11.0859C513.554 11.0859 513.746 11.1016 513.941 11.1328C514.136 11.1562 514.296 11.1914 514.421 11.2383Z" fill="white"/>
<path fill-rule="evenodd" clip-rule="evenodd" d="M594.96 16.3482L594.962 16.1879L594.965 16.0275L594.97 15.8671L594.976 15.7067L594.985 15.5463L594.994 15.3859L595.006 15.2256L595.019 15.0653L595.034 14.905L595.05 14.7448L595.068 14.5848L595.088 14.4248L595.109 14.265L595.132 14.1053L595.156 13.9458L595.183 13.7865L595.211 13.6273L595.24 13.4684L595.271 13.3097L595.304 13.1512L595.339 12.993L595.375 12.835L595.412 12.6774L595.452 12.5201L595.493 12.3631L595.535 12.2064L595.58 12.0501L595.625 11.8942L595.673 11.7386L595.722 11.5835L595.773 11.4288L595.825 11.2745L595.879 11.1206L595.934 10.9673L595.991 10.8144L596.05 10.662L596.11 10.5102L596.172 10.3588L596.236 10.2081L596.301 10.0578L596.367 9.90816L596.435 9.75912L596.505 9.61072L596.576 9.46288L596.649 9.31568L596.723 9.1692L596.799 9.02336L596.876 8.87816L596.955 8.73376L597.036 8.59L597.118 8.44696L597.201 8.30472L597.286 8.1632L597.372 8.02248L597.46 7.88256L597.549 7.74344L597.64 7.6052L597.732 7.46768L597.826 7.33112L597.921 7.19536L598.017 7.06048L598.115 6.92656L598.215 6.79344L598.316 6.66136L598.418 6.53016L598.521 6.39987L598.626 6.27059L598.732 6.14229L598.84 6.01498L598.949 5.88866L599.059 5.76338L599.171 5.63913L599.284 5.51592L599.398 5.39378L599.514 5.2727L599.631 5.15272L599.749 5.03383L599.868 4.91606L599.989 4.79941L600.111 4.6839L600.234 4.56954L600.358 4.45634L600.483 4.34433L600.61 4.2335L600.738 4.12386L600.867 4.01544L600.997 3.90825L601.129 3.80229L601.261 3.69758L601.395 3.59412L601.53 3.49194L601.666 3.39104L601.803 3.29144L601.941 3.19314L602.08 3.09616L602.22 3.0005L602.361 2.90618L602.503 2.81321L602.646 2.72159L602.791 2.63135L602.936 2.54249L603.082 2.45501L603.229 2.36894L603.377 2.28427L603.526 2.20102L603.676 2.11921L603.826 2.03882L603.978 1.9599L604.13 1.88242L604.284 1.80641L604.438 1.73187L604.593 1.65882L604.749 1.58726L604.905 1.5172L605.063 1.44865L605.221 1.38162L605.38 1.31611L605.539 1.25214L605.7 1.1897L605.861 1.12882L606.022 1.06948L606.185 1.01172L606.348 0.95552L606.512 0.900896L606.676 0.847864L606.841 0.796416L607.006 0.746568L607.172 0.698328L607.339 0.651696L607.506 0.606672L607.674 0.563272L607.842 0.521504L608.011 0.481376L608.18 0.442872L608.349 0.406024L608.519 0.370816L608.69 0.337264L608.861 0.305376L609.032 0.275144L609.204 0.246584L609.376 0.219696L609.548 0.19448L609.721 0.170952L609.894 0.149104L610.067 0.128944L610.24 0.110464L610.414 0.093696L610.588 0.078616L610.762 0.0652321L610.937 0.0535601L611.875 0L611.928 4.51894L611.959 4.51858L612.088 4.5184L612.218 4.51949L612.347 4.52185L612.477 4.52549L612.607 4.5304L612.736 4.53658L612.866 4.54404L612.996 4.55278L613.125 4.56279L613.255 4.57409L613.385 4.58666L613.514 4.60052L613.643 4.61565L613.773 4.63206L613.902 4.64974L614.031 4.6687L614.16 4.68895L614.289 4.71047L614.418 4.73326L614.546 4.75734L614.674 4.78268L614.803 4.8093L614.931 4.83719L615.058 4.86635L615.186 4.89678L615.313 4.92847L615.44 4.96144L615.567 4.99566L615.693 5.03115L615.819 5.0679L615.945 5.1059L616.07 5.14515L616.195 5.18566L616.32 5.22742L616.445 5.27042L616.569 5.31467L616.692 5.36015L616.815 5.40688L616.938 5.45483L617.061 5.50402L617.183 5.55444L617.304 5.60607L617.425 5.65893L617.546 5.713L617.666 5.76828L617.785 5.82476L617.904 5.88245L618.023 5.94134L618.141 6.00142L618.258 6.06268L618.375 6.12513L618.491 6.18876L618.607 6.25356L618.722 6.31953L618.836 6.38666L618.95 6.45496L619.063 6.5244L619.175 6.59496L619.287 6.66672L619.398 6.73952L619.509 6.81352L619.618 6.88864L619.727 6.9648L619.836 7.04216L619.943 7.12056L620.05 7.20008L620.156 7.28072L620.261 7.3624L620.366 7.4452L620.469 7.52896L620.572 7.61384L620.674 7.69984L620.775 7.7868L620.876 7.8748L620.975 7.96384L621.074 8.05392L621.172 8.14504L621.269 8.23712L621.365 8.33016L621.46 8.42424L621.554 8.51928L621.647 8.61536L621.739 8.71232L621.831 8.81024L621.921 8.90912L622.01 9.00896L622.099 9.10968L622.186 9.21136L622.273 9.31392L622.358 9.41736L622.442 9.52176L622.526 9.62696L622.608 9.73304L622.689 9.84L622.77 9.94784L622.849 10.0565L622.927 10.166L623.004 10.2763L623.08 10.3874L623.154 10.4993L623.228 10.612L623.301 10.7255L623.372 10.8398L623.442 10.9547L623.511 11.0705L623.579 11.187L623.646 11.3042L623.712 11.4221L623.776 11.5407L623.84 11.66L623.902 11.78L623.963 11.9006L624.022 12.0219L624.081 12.1439L624.138 12.2665L624.194 12.3897L624.249 12.5135L624.302 12.6379L624.355 12.763L624.406 12.8885L624.455 13.0146L624.504 13.1413L624.551 13.2686L624.597 13.3962L624.642 13.5246L624.685 13.6533L624.727 13.7826L624.768 13.9122L624.807 14.0424L624.845 14.173L624.882 14.3041L624.918 14.4356L624.952 14.5675L624.985 14.6998L625.016 14.8325L625.046 14.9655L625.075 15.099L625.102 15.2326L625.128 15.3668L625.153 15.5012L625.176 15.6359L625.198 15.7709L625.219 15.9062L625.238 16.0418L625.256 16.1775L625.272 16.3136L625.287 16.4498L625.301 16.5863L625.313 16.723L625.324 16.8598L625.333 16.9969L625.341 17.1341L625.348 17.2714L625.353 17.4089L625.357 17.5464L625.359 17.6841L625.36 17.8218L625.36 17.9597L625.358 18.0976L625.355 18.2356L625.35 18.3735L625.344 18.5115L625.337 18.6495L625.328 18.7875L625.317 18.9255L625.306 19.0634L625.293 19.2014L625.278 19.3392L625.262 19.4769L625.244 19.6146L625.226 19.7521L625.205 19.8895L625.184 20.0268L625.161 20.1639L625.136 20.3009L625.11 20.4377L625.083 20.5743L625.054 20.7107L625.024 20.8469L624.992 20.9829L624.959 21.1186L624.925 21.254L624.889 21.3891L624.852 21.524L624.813 21.6586L624.773 21.7928L624.731 21.9268L624.689 22.0603L624.644 22.1936L624.599 22.3264L624.552 22.4589L624.503 22.591L624.454 22.7226L624.403 22.8538L624.35 22.9846L624.296 23.1149L624.241 23.2447L624.185 23.3742L624.127 23.503L624.067 23.6314L624.007 23.7592L623.945 23.8865L623.881 24.0133L623.817 24.1394L623.751 24.2651L623.684 24.3901L623.615 24.5146L623.545 24.6383L623.474 24.7615L623.401 24.8841L623.328 25.0059L623.253 25.1272L623.176 25.2477L623.099 25.3675L623.02 25.4866L622.94 25.605L622.858 25.7227L622.776 25.8397L622.692 25.9558L622.607 26.0713L622.52 26.1859L622.433 26.2998L622.344 26.4127L622.254 26.525L622.163 26.6363L622.071 26.7468L621.977 26.8565L621.883 26.9653L621.787 27.0732L621.69 27.1802L621.592 27.2864L621.493 27.3916L621.392 27.4959L621.291 27.5992L621.188 27.7016L621.084 27.803L620.98 27.9035L620.874 28.003L620.767 28.1015L620.659 28.199L620.55 28.2954L620.44 28.3909L620.329 28.4854L620.217 28.5787L620.104 28.671L619.99 28.7622L619.874 28.8524L619.758 28.9414L619.641 29.0294L619.523 29.1162L619.404 29.202L619.285 29.2866L619.164 29.3701L619.042 29.4524L618.919 29.5335L618.796 29.6135L618.672 29.6924L618.546 29.77L618.42 29.8465L618.293 29.9217L618.166 29.9958L618.037 30.0686L617.908 30.1401L617.778 30.2105L617.647 30.2795L617.515 30.3474L617.383 30.414L617.249 30.4793L617.115 30.5433L616.981 30.6061L616.845 30.6675L616.709 30.7277L616.573 30.7865L616.435 30.844L616.297 30.9002L616.159 30.9551L616.019 31.0086L615.879 31.0609L615.739 31.1117L615.598 31.1612L615.456 31.2093L615.314 31.2561L615.171 31.3014L615.028 31.3454L614.884 31.3881L614.74 31.4293L614.595 31.4691L614.45 31.5076L614.304 31.5446L614.158 31.5802L614.012 31.6144L613.865 31.6471L613.717 31.6785L613.569 31.7084L613.421 31.7369L613.273 31.7639L613.124 31.7894L612.975 31.8136L612.825 31.8363L612.676 31.8575L612.526 31.8773L612.375 31.8956L612.225 31.9124L612.074 31.9278L611.923 31.9417L611.772 31.9541L611.62 31.965L611.469 31.9745L611.317 31.9825L611.165 31.989L611.013 31.9939L610.861 31.9974L610.708 31.9994L610.556 32L610.403 31.999L610.251 31.9966L610.098 31.9926L609.946 31.9871L609.793 31.9802L609.641 31.9718L609.488 31.9618L609.336 31.9503L609.183 31.9374L609.031 31.9229L608.879 31.907L608.726 31.8895L608.574 31.8706L608.422 31.8501L608.271 31.8281L608.119 31.8046L607.967 31.7797L607.816 31.7533L607.665 31.7253L607.514 31.6958L607.364 31.665L607.213 31.6325L607.063 31.5986L606.913 31.5632L606.764 31.5263L606.615 31.4879L606.466 31.4481L606.317 31.4068L606.169 31.364L606.021 31.3198L605.874 31.274L605.727 31.2268L605.58 31.1782L605.434 31.128L605.289 31.0764L605.143 31.0234L604.999 30.969L604.854 30.913L604.711 30.8557L604.568 30.7969L604.425 30.7366L604.283 30.675L604.141 30.612L604 30.5475L603.86 30.4816L603.72 30.4143L603.581 30.3456L603.443 30.2755L603.305 30.2041L603.168 30.1312L603.032 30.057L602.896 29.9814L602.761 29.9045L602.627 29.8262L602.493 29.7465L602.36 29.6655L602.228 29.5831L602.097 29.4995L601.967 29.4145L601.837 29.3282L601.709 29.2406L601.581 29.1517L601.454 29.0615L601.328 28.97L601.202 28.8773L601.078 28.7832L600.954 28.6879L600.832 28.5914L600.71 28.4936L600.59 28.3946L600.47 28.2944L600.351 28.193L600.234 28.0903L600.117 27.9864L600.001 27.8814L599.887 27.7752L599.773 27.6678L599.66 27.5593L599.549 27.4495L599.439 27.3387L599.329 27.2268L599.221 27.1137L599.114 26.9995L599.008 26.8842L598.903 26.7678L598.799 26.6504L598.697 26.5319L598.596 26.4123L598.495 26.2918L598.396 26.1701L598.299 26.0474L598.202 25.9238L598.107 25.7991L598.013 25.6734L597.92 25.5468L597.828 25.4192L597.738 25.2906L597.649 25.1612L597.561 25.0308L597.475 24.8994L597.39 24.7673L597.306 24.6342L597.223 24.5002L597.142 24.3654L597.063 24.2296L596.984 24.0931L596.907 23.9558L596.831 23.8176L596.757 23.6786L596.684 23.5388L596.613 23.3983L596.543 23.257L596.474 23.115L596.407 22.9722L596.341 22.8288L596.277 22.6846L596.214 22.5398L596.152 22.3942L596.092 22.248L596.034 22.1011L595.977 21.9536L595.921 21.8055L595.867 21.6568L595.815 21.5075L595.764 21.3577L595.714 21.2072L595.666 21.0562L595.62 20.9047L595.575 20.7527L595.532 20.6002L595.49 20.4471L595.45 20.2937L595.411 20.1398L595.374 19.9854L595.338 19.8306L595.304 19.6753L595.272 19.5197L595.241 19.3637L595.212 19.2074L595.184 19.0506L595.158 18.8936L595.133 18.7362L595.11 18.5786L595.089 18.4206L595.07 18.2623L595.052 18.1038L595.035 17.9451L595.02 17.7862L595.007 17.627L594.996 17.4677L594.986 17.3082L594.977 17.1485L594.971 16.9886L594.966 16.8287L594.962 16.6686L594.961 16.5085L594.96 16.3482ZM610.463 4.61359L610.426 1.53343L610.392 1.53678L610.233 1.5537L610.074 1.57217L609.916 1.5922L609.758 1.61372L609.6 1.63681L609.442 1.66144L609.285 1.68758L609.128 1.71529L608.972 1.74443L608.816 1.77521L608.66 1.80737L608.505 1.84115L608.35 1.87637L608.196 1.91315L608.042 1.95134L607.888 1.99107L607.735 2.03228L607.583 2.07498L607.431 2.1191L607.279 2.16475L607.128 2.21182L606.978 2.26038L606.828 2.31028L606.679 2.36176L606.531 2.41462L606.383 2.46887L606.235 2.52461L606.089 2.5817L605.943 2.64018L605.797 2.70015L605.653 2.76149L605.509 2.82422L605.365 2.88828L605.223 2.95373L605.081 3.0205L604.94 3.08874L604.8 3.15822L604.66 3.22906L604.522 3.30124L604.384 3.37475L604.247 3.44952L604.111 3.52567L603.975 3.60314L603.841 3.68172L603.707 3.76183L603.575 3.84301L603.443 3.92545L603.312 4.00924L603.182 4.09426L603.053 4.18051L602.925 4.26778L602.798 4.3566L602.672 4.44637L602.547 4.53738L602.422 4.62963L602.299 4.72298L602.177 4.81746L602.056 4.91326L601.936 5.00997L601.817 5.10795L601.699 5.207L601.582 5.3072L601.466 5.40836L601.352 5.5108L601.238 5.61415L601.126 5.7187L601.014 5.82412L600.904 5.93069L600.795 6.03822L600.687 6.14681L600.58 6.25652L600.475 6.36698L600.371 6.4784L600.267 6.59112L600.166 6.70456L600.065 6.8188L599.965 6.93424L599.867 7.0504L599.77 7.1676L599.674 7.2856L599.58 7.40456L599.487 7.52432L599.395 7.64488L599.304 7.76632L599.214 7.88872L599.126 8.01168L599.04 8.13568L598.954 8.26032L598.87 8.38576L598.787 8.512L598.706 8.63896L598.626 8.76656L598.547 8.89496L598.469 9.024L598.393 9.15384L598.318 9.2844L598.245 9.41544L598.173 9.5472L598.103 9.67968L598.034 9.81272L597.966 9.9464L597.899 10.0806L597.834 10.2154L597.771 10.3507L597.709 10.4867L597.648 10.6231L597.589 10.7602L597.531 10.8977L597.475 11.0356L597.42 11.1741L597.366 11.313L597.314 11.4524L597.264 11.5922L597.214 11.7324L597.167 11.8731L597.121 12.0142L597.076 12.1556L597.033 12.2973L596.991 12.4395L596.95 12.5819L596.912 12.7247L596.874 12.8678L596.838 13.0112L596.804 13.1548L596.771 13.2987L596.74 13.4429L596.71 13.5873L596.681 13.7318L596.655 13.8766L596.629 14.0216L596.605 14.1668L596.583 14.3121L596.562 14.4575L596.543 14.6031L596.525 14.7488L596.508 14.8946L596.493 15.0405L596.48 15.1864L596.468 15.3323L596.458 15.4784L596.449 15.6245L596.441 15.7705L596.435 15.9166L596.431 16.0626L596.428 16.2086L596.427 16.3545L596.427 16.5004L596.428 16.6462L596.431 16.7919L596.436 16.9375L596.442 17.083L596.45 17.2283L596.459 17.3734L596.469 17.5185L596.481 17.6633L596.495 17.8079L596.51 17.9524L596.526 18.0966L596.544 18.2406L596.563 18.3842L596.584 18.5277L596.606 18.6709L596.63 18.8137L596.655 18.9562L596.682 19.0985L596.71 19.2403L596.739 19.3819L596.77 19.523L596.803 19.6638L596.836 19.8042L596.872 19.9442L596.908 20.0838L596.946 20.2229L596.986 20.3616L597.027 20.4998L597.069 20.6376L597.112 20.7749L597.157 20.9116L597.204 21.0478L597.251 21.1835L597.301 21.3187L597.351 21.4533L597.403 21.5874L597.456 21.7208L597.51 21.8537L597.566 21.9859L597.623 22.1175L597.682 22.2486L597.742 22.379L597.803 22.5086L597.865 22.6377L597.929 22.766L597.994 22.8937L598.06 23.0206L598.127 23.1469L598.196 23.2724L598.266 23.3971L598.337 23.5211L598.41 23.6444L598.483 23.7668L598.558 23.8885L598.634 24.0094L598.712 24.1294L598.79 24.2486L598.87 24.367L598.951 24.4846L599.033 24.6013L599.116 24.7171L599.2 24.8321L599.285 24.9462L599.372 25.0593L599.46 25.1715L599.548 25.2828L599.638 25.3932L599.729 25.5027L599.821 25.6112L599.914 25.7187L600.008 25.8253L600.103 25.9309L600.199 26.0354L600.297 26.139L600.395 26.2416L600.494 26.3432L600.594 26.4438L600.695 26.5432L600.797 26.6417L600.9 26.739L601.004 26.8354L601.109 26.9307L601.215 27.0249L601.322 27.1179L601.429 27.2099L601.538 27.3008L601.647 27.3906L601.758 27.4793L601.869 27.5667L601.981 27.6531L602.093 27.7384L602.207 27.8225L602.321 27.9054L602.436 27.9871L602.552 28.0677L602.669 28.1471L602.786 28.2253L602.904 28.3023L603.023 28.3782L603.143 28.4527L603.263 28.5262L603.384 28.5983L603.506 28.6693L603.628 28.739L603.751 28.8074L603.874 28.8746L603.999 28.9406L604.123 29.0054L604.249 29.0689L604.375 29.131L604.501 29.192L604.628 29.2517L604.756 29.3101L604.884 29.3671L605.013 29.423L605.142 29.4774L605.272 29.5307L605.402 29.5826L605.532 29.6332L605.663 29.6826L605.795 29.7306L605.926 29.7772L606.059 29.8226L606.191 29.8666L606.324 29.9094L606.458 29.9507L606.592 29.9908L606.726 30.0295L606.86 30.0669L606.995 30.103L607.13 30.1377L607.265 30.171L607.4 30.203L607.536 30.2338L607.672 30.263L607.808 30.291L607.945 30.3177L608.081 30.343L608.218 30.3669L608.355 30.3894L608.492 30.4106L608.63 30.4305L608.767 30.449L608.905 30.4662L609.042 30.4819L609.18 30.4963L609.318 30.5094L609.455 30.5211L609.593 30.5315L609.731 30.5405L609.869 30.5482L610.007 30.5544L610.145 30.5594L610.283 30.563L610.42 30.5651L610.558 30.566L610.696 30.5655L610.833 30.5637L610.971 30.5606L611.108 30.556L611.245 30.5502L611.383 30.543L611.519 30.5344L611.656 30.5246L611.793 30.5134L611.929 30.5008L612.065 30.4869L612.201 30.4717L612.337 30.4552L612.473 30.4374L612.608 30.4182L612.743 30.3977L612.877 30.3759L613.012 30.3528L613.146 30.3284L613.28 30.3027L613.413 30.2758L613.546 30.2474L613.679 30.2179L613.811 30.187L613.943 30.1549L614.074 30.1215L614.205 30.0868L614.336 30.0509L614.466 30.0137L614.596 29.9752L614.725 29.9355L614.854 29.8946L614.982 29.8524L615.11 29.809L615.237 29.7644L615.364 29.7185L615.49 29.6714L615.615 29.6231L615.741 29.5737L615.865 29.523L615.989 29.4711L616.112 29.4181L616.235 29.3638L616.357 29.3085L616.478 29.2519L616.599 29.1942L616.719 29.1354L616.838 29.0753L616.957 29.0142L617.075 28.9519L617.192 28.8885L617.309 28.824L617.425 28.7584L617.54 28.6918L617.654 28.6239L617.767 28.5551L617.88 28.4851L617.992 28.4142L618.104 28.3421L618.214 28.269L618.324 28.1947L618.432 28.1197L618.54 28.0434L618.647 27.9662L618.754 27.8881L618.859 27.8088L618.963 27.7287L619.067 27.6474L619.17 27.5654L619.272 27.4823L619.373 27.3982L619.473 27.3132L619.572 27.2274L619.67 27.1405L619.767 27.0528L619.863 26.9642L619.958 26.8746L620.053 26.7843L620.146 26.693L620.238 26.6008L620.33 26.5078L620.42 26.414L620.509 26.3194L620.597 26.2241L620.685 26.1276L620.771 26.0306L620.856 25.9327L620.94 25.8342L621.023 25.7347L621.105 25.6346L621.186 25.5338L621.265 25.4321L621.344 25.3298L621.422 25.2267L621.498 25.123L621.574 25.0186L621.648 24.9134L621.721 24.8078L621.793 24.7013L621.864 24.5943L621.934 24.4866L622.002 24.3782L622.07 24.2694L622.136 24.1599L622.201 24.0496L622.265 23.9391L622.328 23.8278L622.389 23.716L622.45 23.6038L622.509 23.4909L622.567 23.3774L622.624 23.2639L622.68 23.1494L622.734 23.0346L622.787 22.9194L622.839 22.8037L622.89 22.6875L622.94 22.571L622.988 22.4539L623.035 22.3365L623.081 22.219L623.126 22.1006L623.169 21.9822L623.211 21.8632L623.252 21.744L623.292 21.6244L623.33 21.5048L623.367 21.3843L623.403 21.264L623.438 21.1433L623.471 21.0224L623.503 20.901L623.534 20.7797L623.564 20.6579L623.592 20.5359L623.619 20.4138L623.645 20.2914L623.67 20.1691L623.693 20.0462L623.715 19.9237L623.736 19.8006L623.755 19.6775L623.773 19.5544L623.79 19.431L623.806 19.3078L623.82 19.1841L623.833 19.0608L623.845 18.9371L623.856 18.8137L623.865 18.6898L623.873 18.5665L623.88 18.4427L623.885 18.3189L623.889 18.1954L623.892 18.0721L623.894 17.9483L623.894 17.8248L623.893 17.7014L623.891 17.5782L623.888 17.4549L623.883 17.3321L623.877 17.2088L623.87 17.0861L623.861 16.9634L623.852 16.841L623.841 16.7185L623.829 16.5965L623.815 16.4744L623.8 16.3527L623.785 16.2311L623.767 16.1099L623.749 15.9886L623.729 15.8679L623.709 15.7476L623.686 15.6272L623.663 15.5072L623.639 15.3877L623.613 15.2681L623.586 15.1494L623.558 15.0305L623.529 14.9124L623.498 14.7942L623.466 14.6768L623.433 14.5596L623.399 14.4426L623.364 14.3264L623.328 14.2106L623.29 14.0948L623.251 13.9799L623.211 13.8651L623.17 13.751L623.128 13.6372L623.085 13.5242L623.04 13.4113L622.995 13.299L622.948 13.1875L622.9 13.0765L622.851 12.9656L622.801 12.8558L622.75 12.746L622.698 12.6373L622.645 12.529L622.59 12.421L622.535 12.314L622.478 12.2074L622.421 12.1014L622.362 11.9963L622.302 11.8915L622.242 11.7876L622.18 11.6842L622.117 11.5818L622.053 11.4796L621.989 11.3784L621.923 11.2777L621.856 11.1778L621.789 11.0789L621.72 10.9803L621.65 10.8826L621.58 10.7857L621.508 10.6896L621.436 10.5941L621.362 10.4995L621.288 10.4056L621.213 10.3126L621.136 10.2203L621.059 10.1288L620.981 10.0382L620.902 9.94832L620.823 9.85936L620.742 9.7712L620.661 9.68376L620.579 9.59752L620.495 9.51176L620.412 9.4272L620.327 9.34328L620.241 9.2604L620.155 9.17816L620.068 9.0972L619.98 9.01688L619.891 8.93752L619.802 8.8592L619.712 8.78176L619.621 8.70504L619.529 8.62944L619.437 8.5548L619.344 8.48112L619.25 8.40832L619.156 8.33672L619.061 8.26568L618.965 8.196L618.869 8.1272L618.772 8.05928L618.674 7.99248L618.575 7.92648L618.477 7.86184L618.377 7.79792L618.277 7.73512L618.176 7.67328L618.075 7.61248L617.973 7.5528L617.871 7.49424L617.768 7.4364L617.665 7.37992L617.561 7.32432L617.457 7.26984L617.352 7.21648L617.246 7.16408L617.141 7.11272L617.034 7.06256L616.928 7.01336L616.821 6.96536L616.713 6.91832L616.601 6.87096L616.497 6.82768L616.388 6.78384L616.279 6.74136L616.169 6.69968L616.059 6.65936L615.949 6.62L615.839 6.58184L615.728 6.54464L615.617 6.50872L615.505 6.47384L615.393 6.44008L615.281 6.40752L615.169 6.37597L615.056 6.3455L614.944 6.31628L614.831 6.28817L614.717 6.26109L614.604 6.23526L614.491 6.21046L614.377 6.18686L614.263 6.16433L614.149 6.14298L614.035 6.12274L613.921 6.10368L613.806 6.08568L613.691 6.06887L613.577 6.05318L613.462 6.03861L613.347 6.02518L613.232 6.01291L613.118 6.00176L613.003 5.99174L612.888 5.98286L612.772 5.9751L612.658 5.96849L612.543 5.96301L612.427 5.95865L612.313 5.95543L612.198 5.95334L612.083 5.95238L611.968 5.95254L611.945 5.9528L611.981 9.01056L612.047 9.01024L612.131 9.01072L612.214 9.012L612.298 9.01416L612.383 9.01712L612.467 9.02096L612.551 9.0256L612.635 9.03104L612.719 9.03736L612.803 9.04448L612.887 9.05248L612.971 9.06128L613.056 9.07096L613.14 9.08144L613.224 9.09272L613.308 9.10496L613.392 9.11792L613.475 9.13176L613.559 9.14648L613.643 9.162L613.727 9.1784L613.81 9.1956L613.893 9.2136L613.977 9.23248L614.06 9.25224L614.143 9.2728L614.226 9.29416L614.308 9.3164L614.391 9.33944L614.473 9.36336L614.556 9.38808L614.638 9.4136L614.719 9.44L614.801 9.4672L614.882 9.49528L614.964 9.52416L615.045 9.55384L615.125 9.58432L615.206 9.61568L615.286 9.64784L615.366 9.6808L615.445 9.71464L615.525 9.7492L615.604 9.78464L615.682 9.8208L615.761 9.85784L615.839 9.89568L615.917 9.93432L615.994 9.97376L616.071 10.014L616.148 10.055L616.224 10.0968L616.3 10.1394L616.376 10.1827L616.451 10.2269L616.526 10.2718L616.601 10.3175L616.675 10.364L616.748 10.4113L616.821 10.4593L616.894 10.508L616.966 10.5575L617.038 10.6078L617.11 10.6588L617.181 10.7106L617.251 10.7631L617.321 10.8163L617.39 10.8703L617.459 10.925L617.528 10.9804L617.596 11.0366L617.663 11.0934L617.73 11.151L617.796 11.2092L617.862 11.2682L617.927 11.3278L617.992 11.3882L618.056 11.4492L618.119 11.5109L618.182 11.5733L618.244 11.6363L618.306 11.7001L618.367 11.7644L618.428 11.8294L618.487 11.8951L618.547 11.9614L618.605 12.0283L618.663 12.0959L618.72 12.1641L618.777 12.2329L618.833 12.3023L618.888 12.3723L618.943 12.443L618.997 12.5142L619.05 12.586L619.102 12.6583L619.154 12.7313L619.205 12.8048L619.256 12.8789L619.305 12.9535L619.354 13.0286L619.402 13.1044L619.45 13.1806L619.496 13.2574L619.542 13.3346L619.587 13.4125L619.632 13.4907L619.675 13.5695L619.718 13.6488L619.76 13.7286L619.802 13.8088L619.842 13.8895L619.882 13.9707L619.921 14.0523L619.959 14.1343L619.996 14.2169L620.032 14.2998L620.068 14.3831L620.103 14.4669L620.136 14.551L620.169 14.6356L620.202 14.7205L620.233 14.8058L620.263 14.8915L620.293 14.9776L620.322 15.064L620.35 15.1508L620.377 15.2378L620.403 15.3253L620.428 15.413L620.453 15.5011L620.476 15.5895L620.499 15.6782L620.52 15.7671L620.541 15.8563L620.561 15.9458L620.58 16.0356L620.598 16.1256L620.615 16.2158L620.632 16.3064L620.647 16.3971L620.661 16.488L620.675 16.5792L620.687 16.6705L620.699 16.762L620.71 16.8538L620.719 16.9457L620.728 17.0377L620.736 17.1299L620.743 17.2222L620.749 17.3147L620.754 17.4073L620.758 17.5L620.761 17.5929L620.763 17.6858L620.764 17.7788L620.765 17.8719L620.764 17.965L620.762 18.0582L620.76 18.1515L620.756 18.2449L620.751 18.3382L620.746 18.4315L620.739 18.525L620.732 18.6183L620.724 18.7117L620.714 18.805L620.704 18.8983L620.693 18.9917L620.68 19.0849L620.667 19.1781L620.653 19.2712L620.637 19.3642L620.621 19.4572L620.604 19.5501L620.586 19.6429L620.567 19.7355L620.547 19.8281L620.526 19.9205L620.504 20.0127L620.481 20.1048L620.457 20.1968L620.432 20.2886L620.406 20.3802L620.379 20.4715L620.352 20.5627L620.323 20.6538L620.293 20.7446L620.263 20.835L620.231 20.9254L620.199 21.0154L620.165 21.1052L620.131 21.1947L620.095 21.284L620.059 21.373L620.022 21.4617L619.983 21.55L619.944 21.6381L619.904 21.7258L619.863 21.8132L619.821 21.9002L619.778 21.987L619.734 22.0733L619.69 22.1593L619.644 22.2448L619.598 22.33L619.55 22.4148L619.502 22.4992L619.453 22.5831L619.402 22.6667L619.351 22.7498L619.299 22.8325L619.247 22.9146L619.193 22.9964L619.138 23.0776L619.083 23.1584L619.026 23.2387L618.969 23.3185L618.911 23.3978L618.852 23.4766L618.793 23.5548L618.732 23.6325L618.67 23.7096L618.608 23.7862L618.545 23.8622L618.481 23.9378L618.416 24.0126L618.351 24.087L618.284 24.1606L618.217 24.2338L618.149 24.3062L618.08 24.3782L618.011 24.4494L617.94 24.52L617.869 24.5899L617.797 24.6593L617.725 24.7279L617.651 24.7958L617.577 24.8632L617.502 24.9298L617.427 24.9957L617.35 25.061L617.273 25.1254L617.195 25.1893L617.117 25.2523L617.038 25.3146L616.958 25.3762L616.877 25.4371L616.796 25.4972L616.714 25.5566L616.631 25.6152L616.548 25.673L616.464 25.73L616.379 25.7862L616.294 25.8417L616.208 25.8963L616.122 25.9502L616.035 26.0031L615.947 26.0554L615.859 26.1067L615.77 26.1572L615.681 26.2069L615.591 26.2558L615.5 26.3038L615.409 26.3509L615.317 26.3971L615.225 26.4425L615.132 26.487L615.039 26.5306L614.945 26.5734L614.851 26.6152L614.756 26.6562L614.661 26.6962L614.565 26.7353L614.469 26.7735L614.373 26.8108L614.276 26.8472L614.178 26.8826L614.08 26.9171L613.982 26.9506L613.883 26.9833L613.784 27.0149L613.684 27.0456L613.584 27.0754L613.484 27.1041L613.383 27.1319L613.282 27.1587L613.181 27.1846L613.079 27.2094L612.977 27.2334L612.875 27.2562L612.772 27.2782L612.669 27.299L612.566 27.319L612.463 27.3379L612.359 27.3558L612.255 27.3727L612.151 27.3886L612.046 27.4034L611.942 27.4173L611.837 27.4302L611.732 27.4419L611.627 27.4527L611.521 27.4625L611.415 27.4712L611.31 27.4789L611.204 27.4855L611.098 27.4911L610.992 27.4957L610.885 27.4992L610.779 27.5017L610.672 27.5031L610.566 27.5035L610.459 27.5029L610.352 27.5011L610.246 27.4984L610.139 27.4946L610.032 27.4897L609.925 27.4838L609.818 27.4768L609.711 27.4688L609.605 27.4597L609.498 27.4495L609.391 27.4383L609.284 27.4261L609.178 27.4128L609.071 27.3984L608.965 27.383L608.858 27.3665L608.752 27.349L608.646 27.3303L608.54 27.3107L608.434 27.29L608.328 27.2682L608.222 27.2454L608.117 27.2215L608.011 27.1966L607.906 27.1706L607.801 27.1435L607.697 27.1154L607.592 27.0863L607.488 27.0562L607.384 27.025L607.28 26.9927L607.177 26.9594L607.074 26.925L606.971 26.8897L606.868 26.8533L606.766 26.8158L606.664 26.7774L606.562 26.7378L606.461 26.6974L606.36 26.6558L606.26 26.6132L606.159 26.5697L606.06 26.525L605.96 26.4794L605.861 26.4329L605.763 26.3853L605.665 26.3366L605.567 26.287L605.47 26.2365L605.373 26.1849L605.277 26.1323L605.181 26.0788L605.085 26.0242L604.99 25.9688L604.896 25.9123L604.802 25.8549L604.709 25.7966L604.616 25.7372L604.524 25.677L604.433 25.6157L604.341 25.5535L604.251 25.4905L604.161 25.4265L604.072 25.3615L603.983 25.2957L603.895 25.2289L603.808 25.1612L603.721 25.0926L603.635 25.0231L603.55 24.9528L603.465 24.8815L603.381 24.8094L603.297 24.7364L603.215 24.6626L603.133 24.5878L603.051 24.5123L602.971 24.4359L602.891 24.3586L602.812 24.2806L602.734 24.2017L602.656 24.1219L602.579 24.0414L602.503 23.9601L602.428 23.878L602.354 23.795L602.28 23.7114L602.208 23.6269L602.136 23.5417L602.065 23.4557L601.994 23.3689L601.925 23.2814L601.856 23.1932L601.789 23.1042L601.722 23.0146L601.656 22.9242L601.591 22.8331L601.527 22.7414L601.463 22.6489L601.401 22.5558L601.34 22.462L601.279 22.3675L601.22 22.2724L601.161 22.1766L601.103 22.0802L601.047 21.9833L600.991 21.8856L600.936 21.7874L600.882 21.6886L600.83 21.5892L600.778 21.4892L600.727 21.3886L600.677 21.2875L600.628 21.1858L600.581 21.0837L600.534 20.9809L600.488 20.8777L600.444 20.7739L600.4 20.6696L600.357 20.5649L600.316 20.4597L600.275 20.3539L600.236 20.2478L600.197 20.1412L600.16 20.0341L600.124 19.9266L600.089 19.8187L600.055 19.7104L600.022 19.6018L599.99 19.4926L599.959 19.3832L599.93 19.2734L599.901 19.1631L599.874 19.0526L599.847 18.9418L599.822 18.8306L599.798 18.719L599.775 18.6073L599.754 18.4952L599.733 18.3828L599.713 18.2702L599.695 18.1573L599.678 18.0442L599.662 17.9308L599.647 17.8172L599.633 17.7034L599.621 17.5894L599.609 17.4752L599.599 17.3608L599.59 17.2462L599.582 17.1316L599.575 17.0167L599.57 16.9018L599.565 16.7867L599.562 16.6715L599.56 16.5562L599.559 16.4408L599.56 16.3254L599.561 16.2098L599.564 16.0943L599.568 15.9787L599.573 15.863L599.58 15.7474L599.587 15.6318L599.596 15.5162L599.606 15.4005L599.617 15.285L599.629 15.1694L599.642 15.0539L599.657 14.9385L599.673 14.8231L599.69 14.7078L599.708 14.5927L599.728 14.4777L599.748 14.3628L599.77 14.248L599.793 14.1334L599.817 14.019L599.843 13.9046L599.869 13.7906L599.897 13.6766L599.926 13.563L599.956 13.4495L599.988 13.3362L600.02 13.2233L600.054 13.1106L600.089 12.9981L600.125 12.8858L600.162 12.774L600.2 12.6624L600.24 12.5511L600.281 12.4402L600.323 12.3295L600.366 12.2193L600.41 12.1094L600.455 11.9998L600.502 11.8907L600.549 11.7819L600.598 11.6736L600.648 11.5657L600.699 11.4582L600.751 11.3511L600.805 11.2446L600.859 11.1384L600.915 11.0328L600.971 10.9276L601.029 10.823L601.088 10.7188L601.148 10.6151L601.209 10.5121L601.271 10.4095L601.335 10.3075L601.399 10.2061L601.465 10.1052L601.531 10.005L601.599 9.90528L601.667 9.80624L601.737 9.70776L601.808 9.60992L601.88 9.5128L601.952 9.41624L602.026 9.3204L602.101 9.2252L602.177 9.13072L602.254 9.03696L602.332 8.94384L602.411 8.85144L602.491 8.75976L602.572 8.66888L602.654 8.57872L602.736 8.48928L602.82 8.40064L602.905 8.31272L602.991 8.22568L603.077 8.13936L603.165 8.05384L603.253 7.9692L603.343 7.88528L603.433 7.80232L603.525 7.72008L603.617 7.6388L603.71 7.55832L603.804 7.47872L603.898 7.4L603.994 7.32216L604.09 7.2452L604.188 7.1692L604.286 7.09408L604.385 7.01992L604.485 6.94664L604.585 6.87432L604.687 6.80296L604.789 6.73256L604.892 6.66312L604.996 6.59472L605.1 6.5272L605.205 6.46072L605.311 6.39523L605.418 6.33074L605.525 6.26727L605.634 6.20482L605.742 6.1434L605.852 6.08301L605.962 6.02367L606.073 5.96538L606.185 5.90815L606.297 5.85198L606.409 5.79689L606.523 5.74287L606.637 5.68994L606.752 5.6381L606.867 5.58736L606.983 5.53773L607.099 5.48921L607.216 5.4418L607.334 5.39552L607.452 5.35037L607.57 5.30635L607.689 5.26348L607.809 5.22175L607.929 5.18118L608.05 5.14176L608.171 5.10351L608.292 5.06642L608.414 5.03051L608.536 4.99578L608.659 4.96223L608.782 4.92987L608.906 4.8987L609.03 4.86874L609.154 4.83998L609.279 4.81241L609.404 4.78606L609.529 4.76092L609.655 4.73701L609.781 4.71431L609.907 4.69284L610.034 4.6726L610.161 4.65359L610.288 4.63582L610.415 4.61929L610.463 4.61359ZM610.517 9.14888L610.48 6.05751L610.376 6.0721L610.263 6.08893L610.151 6.10687L610.039 6.12584L609.928 6.14597L609.817 6.16713L609.706 6.18938L609.595 6.21266L609.485 6.23706L609.375 6.26253L609.265 6.28905L609.156 6.31662L609.046 6.34529L608.941 6.37392L608.83 6.40568L608.722 6.43744L608.614 6.47024L608.507 6.504L608.401 6.53888L608.295 6.5748L608.189 6.61168L608.084 6.64952L607.979 6.68848L607.875 6.72832L607.771 6.76928L607.667 6.81112L607.564 6.85408L607.462 6.89792L607.36 6.94272L607.259 6.98848L607.158 7.03528L607.058 7.08304L606.958 7.1316L606.859 7.18128L606.761 7.23176L606.663 7.28336L606.566 7.3356L606.469 7.38912L606.373 7.4432L606.277 7.49832L606.183 7.5544L606.088 7.61128L605.995 7.6692L605.902 7.72776L605.81 7.78736L605.718 7.84776L605.627 7.90896L605.537 7.97112L605.448 8.03416L605.359 8.09776L605.271 8.16248L605.184 8.22792L605.097 8.29416L605.011 8.36112L604.926 8.42904L604.842 8.4976L604.758 8.56696L604.675 8.63728L604.594 8.70808L604.512 8.77984L604.432 8.85232L604.352 8.92544L604.274 8.99928L604.195 9.074L604.118 9.1492L604.042 9.2252L603.966 9.302L603.892 9.37936L603.818 9.45752L603.745 9.53624L603.673 9.6156L603.602 9.69568L603.531 9.77648L603.462 9.85768L603.393 9.93968L603.325 10.0223L603.259 10.1054L603.193 10.1891L603.128 10.2736L603.064 10.3585L603 10.444L602.938 10.5301L602.877 10.6167L602.817 10.7038L602.757 10.7914L602.699 10.8797L602.641 10.9684L602.584 11.0575L602.529 11.1472L602.474 11.2375L602.42 11.3281L602.368 11.4192L602.316 11.5108L602.265 11.6026L602.215 11.6951L602.166 11.7881L602.118 11.8812L602.072 11.975L602.026 12.069L601.981 12.1634L601.937 12.2582L601.894 12.3534L601.852 12.4489L601.811 12.5447L601.772 12.6409L601.733 12.7374L601.695 12.8342L601.658 12.9314L601.623 13.0287L601.588 13.1265L601.554 13.2243L601.521 13.3226L601.49 13.421L601.459 13.5198L601.43 13.6186L601.401 13.7178L601.374 13.817L601.347 13.9166L601.322 14.0163L601.297 14.1162L601.274 14.2163L601.252 14.3165L601.231 14.4169L601.21 14.5174L601.191 14.6179L601.173 14.7187L601.156 14.8195L601.14 14.9205L601.125 15.0214L601.111 15.1225L601.098 15.2236L601.087 15.3248L601.076 15.426L601.066 15.5273L601.057 15.6286L601.05 15.7298L601.043 15.8311L601.038 15.9324L601.033 16.0336L601.03 16.1348L601.027 16.2359L601.026 16.337L601.026 16.4382L601.026 16.5391L601.028 16.64L601.031 16.7408L601.035 16.8414L601.04 16.9421L601.046 17.0426L601.052 17.1428L601.06 17.243L601.069 17.343L601.079 17.4429L601.09 17.5426L601.102 17.6421L601.115 17.7414L601.129 17.8405L601.144 17.9394L601.16 18.038L601.177 18.1365L601.195 18.2347L601.214 18.3326L601.234 18.4303L601.255 18.5277L601.277 18.6249L601.3 18.7216L601.324 18.8182L601.349 18.9144L601.375 19.0103L601.402 19.1058L601.43 19.2011L601.458 19.296L601.488 19.3906L601.519 19.4848L601.55 19.5786L601.583 19.6719L601.616 19.765L601.651 19.8576L601.686 19.9498L601.722 20.0416L601.76 20.133L601.798 20.2239L601.837 20.3144L601.877 20.4044L601.917 20.494L601.959 20.583L602.001 20.6717L602.045 20.7598L602.089 20.8474L602.134 20.9346L602.18 21.0213L602.227 21.1074L602.275 21.193L602.323 21.278L602.373 21.3625L602.423 21.4464L602.474 21.5298L602.526 21.6126L602.579 21.6949L602.632 21.7766L602.686 21.8576L602.741 21.9382L602.797 22.018L602.854 22.0973L602.911 22.1759L602.969 22.2539L603.028 22.3313L603.088 22.4081L603.148 22.4842L603.209 22.5596L603.271 22.6344L603.334 22.7086L603.397 22.7819L603.461 22.8548L603.526 22.9268L603.591 22.9982L603.657 23.0689L603.724 23.1389L603.791 23.2082L603.859 23.2767L603.928 23.3446L603.997 23.4117L604.067 23.4781L604.138 23.5437L604.209 23.6086L604.281 23.6727L604.353 23.7361L604.426 23.7987L604.5 23.8606L604.574 23.9217L604.649 23.9819L604.724 24.0414L604.8 24.1002L604.876 24.1582L604.953 24.2153L605.03 24.2716L605.108 24.3271L605.187 24.3818L605.266 24.4358L605.345 24.4889L605.425 24.5411L605.506 24.5926L605.586 24.6432L605.668 24.693L605.749 24.7419L605.832 24.79L605.914 24.8372L605.997 24.8836L606.081 24.9291L606.165 24.9738L606.249 25.0177L606.333 25.0606L606.419 25.1027L606.504 25.1439L606.59 25.1843L606.676 25.2238L606.762 25.2624L606.849 25.3001L606.936 25.3369L607.023 25.3729L607.111 25.4079L607.199 25.4421L607.287 25.4754L607.375 25.5078L607.464 25.5393L607.553 25.5698L607.642 25.5996L607.732 25.6283L607.821 25.6562L607.911 25.6832L608.001 25.7093L608.092 25.7345L608.182 25.7587L608.273 25.7822L608.364 25.8046L608.455 25.8261L608.546 25.8467L608.637 25.8665L608.728 25.8853L608.82 25.9031L608.911 25.9201L609.003 25.9362L609.095 25.9514L609.187 25.9655L609.279 25.9789L609.371 25.9913L609.463 26.0028L609.555 26.0134L609.647 26.023L609.739 26.0318L609.831 26.0396L609.923 26.0465L610.015 26.0526L610.108 26.0576L610.2 26.0618L610.292 26.0651L610.384 26.0675L610.476 26.069L610.568 26.0695L610.659 26.0692L610.751 26.0679L610.843 26.0658L610.934 26.0628L611.026 26.0589L611.117 26.054L611.208 26.0483L611.299 26.0417L611.39 26.0342L611.481 26.0258L611.572 26.0165L611.662 26.0063L611.753 25.9953L611.843 25.9834L611.932 25.9706L612.022 25.957L612.112 25.9424L612.201 25.927L612.29 25.9107L612.378 25.8936L612.467 25.8757L612.555 25.8568L612.643 25.8371L612.731 25.8166L612.818 25.7952L612.905 25.773L612.992 25.75L613.079 25.7261L613.165 25.7014L613.251 25.6758L613.336 25.6495L613.421 25.6223L613.506 25.5943L613.59 25.5655L613.674 25.5359L613.758 25.5055L613.841 25.4743L613.924 25.4423L614.007 25.4095L614.089 25.3759L614.171 25.3416L614.252 25.3065L614.333 25.2706L614.413 25.234L614.493 25.1966L614.573 25.1584L614.651 25.1196L614.73 25.0798L614.808 25.0395L614.886 24.9983L614.963 24.9566L615.039 24.914L615.116 24.8707L615.191 24.8267L615.266 24.782L615.341 24.7366L615.415 24.6906L615.488 24.6438L615.561 24.5964L615.633 24.5482L615.705 24.4994L615.777 24.4499L615.847 24.3999L615.917 24.349L615.987 24.2978L616.056 24.2457L616.124 24.193L616.192 24.1398L616.259 24.0858L616.326 24.0312L616.391 23.9762L616.457 23.9202L616.521 23.864L616.585 23.8072L616.649 23.7495L616.711 23.6916L616.773 23.633L616.835 23.5738L616.895 23.5141L616.955 23.4538L617.015 23.393L617.074 23.3316L617.132 23.2698L617.189 23.2074L617.246 23.1445L617.301 23.0812L617.357 23.0172L617.411 22.9529L617.465 22.8881L617.518 22.8226L617.571 22.757L617.622 22.6907L617.673 22.6241L617.723 22.5569L617.773 22.4894L617.822 22.4215L617.87 22.353L617.917 22.2842L617.963 22.215L618.009 22.1454L618.054 22.0755L618.098 22.0051L618.142 21.9343L618.184 21.8633L618.226 21.7918L618.268 21.7199L618.308 21.648L618.347 21.5754L618.386 21.5026L618.424 21.4296L618.462 21.356L618.498 21.2826L618.534 21.2083L618.568 21.1343L618.603 21.0595L618.636 20.9849L618.668 20.9096L618.7 20.8344L618.731 20.7589L618.761 20.683L618.79 20.607L618.818 20.5309L618.846 20.4543L618.873 20.3777L618.899 20.3009L618.924 20.2238L618.949 20.1466L618.972 20.0692L618.995 19.9918L619.017 19.914L619.038 19.8362L619.058 19.7582L619.078 19.6802L619.096 19.6021L619.114 19.5236L619.131 19.4452L619.147 19.3667L619.163 19.2882L619.177 19.2096L619.191 19.1306L619.204 19.052L619.216 18.9731L619.227 18.8942L619.237 18.8154L619.247 18.7364L619.256 18.6572L619.264 18.5786L619.271 18.4993L619.277 18.4203L619.283 18.3415L619.287 18.2625L619.291 18.1836L619.294 18.1048L619.296 18.0258L619.298 17.9472L619.298 17.8683L619.298 17.7897L619.297 17.711L619.295 17.6327L619.293 17.5542L619.289 17.4759L619.285 17.3979L619.28 17.3197L619.274 17.2417L619.268 17.1641L619.26 17.0862L619.252 17.0089L619.243 16.9314L619.233 16.8542L619.223 16.7772L619.211 16.7002L619.199 16.6236L619.186 16.5472L619.173 16.471L619.158 16.395L619.143 16.3189L619.127 16.2434L619.11 16.1681L619.093 16.0929L619.074 16.0178L619.055 15.9434L619.035 15.8688L619.015 15.7948L618.994 15.7209L618.972 15.6474L618.949 15.5741L618.925 15.501L618.901 15.4285L618.876 15.3562L618.851 15.2839L618.824 15.2123L618.797 15.1409L618.769 15.0699L618.741 14.9991L618.712 14.9286L618.682 14.8588L618.651 14.789L618.62 14.7198L618.588 14.651L618.556 14.5824L618.522 14.5142L618.488 14.4466L618.454 14.3791L618.418 14.3123L618.383 14.2459L618.346 14.1796L618.309 14.1141L618.271 14.0488L618.232 13.9841L618.193 13.9196L618.154 13.8558L618.113 13.7922L618.072 13.7294L618.031 13.6669L617.988 13.6049L617.946 13.5432L617.902 13.4822L617.858 13.4217L617.814 13.3614L617.769 13.3019L617.723 13.2428L617.677 13.1843L617.63 13.1262L617.583 13.0686L617.535 13.0116L617.486 12.955L617.437 12.8992L617.388 12.8437L617.338 12.7889L617.287 12.7345L617.236 12.6809L617.185 12.6275L617.133 12.575L617.08 12.5227L617.027 12.4713L616.974 12.4204L616.92 12.37L616.865 12.3202L616.811 12.271L616.755 12.2225L616.699 12.1743L616.643 12.1271L616.587 12.0802L616.53 12.034L616.472 11.9885L616.414 11.9434L616.356 11.899L616.298 11.8554L616.238 11.8122L616.179 11.7696L616.119 11.7279L616.059 11.6866L615.999 11.6462L615.938 11.6062L615.876 11.5668L615.815 11.5281L615.753 11.4902L615.691 11.4527L615.628 11.4161L615.565 11.3799L615.502 11.3446L615.439 11.3099L615.375 11.2758L615.311 11.2423L615.246 11.2097L615.182 11.1775L615.117 11.1461L615.052 11.1154L614.987 11.0854L614.921 11.0558L614.855 11.0272L614.789 10.9992L614.723 10.9718L614.656 10.9451L614.589 10.9192L614.523 10.8939L614.455 10.8692L614.388 10.8454L614.321 10.8221L614.253 10.7995L614.185 10.7777L614.117 10.7566L614.05 10.7361L613.981 10.7162L613.913 10.6972L613.844 10.6788L613.776 10.6611L613.707 10.6441L613.638 10.6278L613.569 10.6122L613.501 10.5973L613.432 10.583L613.362 10.5694L613.293 10.5567L613.224 10.5446L613.155 10.5331L613.085 10.5223L613.016 10.5123L612.947 10.5029L612.877 10.4943L612.808 10.4863L612.738 10.479L612.669 10.4725L612.6 10.4666L612.53 10.4614L612.461 10.4569L612.391 10.453L612.322 10.4499L612.253 10.4474L612.184 10.4457L612.115 10.4446L612.046 10.4442L611.998 10.4444L612.034 13.4647L612.055 13.4648L612.095 13.4654L612.135 13.4663L612.175 13.4676L612.215 13.4694L612.255 13.4716L612.294 13.4742L612.334 13.4772L612.374 13.4806L612.415 13.4845L612.455 13.4887L612.495 13.4934L612.535 13.4985L612.575 13.504L612.615 13.5099L612.655 13.5163L612.695 13.5231L612.735 13.5303L612.776 13.538L612.816 13.546L612.856 13.5546L612.896 13.5634L612.936 13.5728L612.976 13.5826L613.016 13.5927L613.056 13.6034L613.096 13.6144L613.135 13.6258L613.175 13.6378L613.215 13.6501L613.255 13.6629L613.294 13.6761L613.334 13.6897L613.373 13.7037L613.412 13.7182L613.451 13.733L613.491 13.7483L613.53 13.7641L613.569 13.7802L613.607 13.7968L613.646 13.8138L613.685 13.8313L613.723 13.8491L613.761 13.8674L613.8 13.8861L613.838 13.9052L613.875 13.9248L613.913 13.9447L613.951 13.9651L613.988 13.9859L614.026 14.0071L614.063 14.0287L614.1 14.0507L614.136 14.0732L614.173 14.0961L614.209 14.1194L614.245 14.143L614.281 14.167L614.317 14.1916L614.353 14.2165L614.388 14.2418L614.423 14.2674L614.458 14.2935L614.493 14.32L614.528 14.3469L614.562 14.3742L614.596 14.4018L614.63 14.4298L614.663 14.4583L614.697 14.4871L614.73 14.5163L614.762 14.5459L614.795 14.5759L614.827 14.6062L614.859 14.637L614.891 14.6681L614.922 14.6995L614.953 14.7314L614.984 14.7635L615.015 14.7961L615.045 14.829L615.075 14.8623L615.105 14.8959L615.134 14.9299L615.163 14.9642L615.191 14.9989L615.22 15.0339L615.248 15.0693L615.275 15.105L615.303 15.141L615.33 15.1774L615.357 15.2141L615.383 15.251L615.409 15.2884L615.434 15.3261L615.46 15.3641L615.484 15.4023L615.509 15.441L615.533 15.4798L615.557 15.519L615.58 15.5586L615.603 15.5983L615.626 15.6384L615.648 15.6788L615.67 15.7194L615.691 15.7604L615.712 15.8016L615.733 15.843L615.753 15.8848L615.773 15.9269L615.792 15.9691L615.811 16.0117L615.83 16.0545L615.848 16.0975L615.865 16.1408L615.883 16.1843L615.899 16.2281L615.916 16.2721L615.932 16.3163L615.947 16.3608L615.962 16.4054L615.977 16.4503L615.991 16.4954L616.005 16.5407L616.018 16.5862L616.03 16.632L616.043 16.6778L616.055 16.7239L616.066 16.7702L616.077 16.8167L616.087 16.8633L616.097 16.9102L616.107 16.9571L616.115 17.0042L616.124 17.0515L616.132 17.099L616.139 17.1465L616.146 17.1942L616.153 17.2421L616.159 17.2901L616.164 17.3382L616.169 17.3865L616.174 17.4348L616.178 17.4833L616.181 17.5319L616.184 17.5806L616.187 17.6294L616.189 17.6782L616.19 17.7272L616.191 17.7762L616.192 17.8254L616.191 17.8745L616.191 17.9238L616.19 17.9731L616.188 18.0225L616.186 18.0719L616.183 18.1214L616.18 18.1709L616.176 18.2204L616.172 18.27L616.167 18.3196L616.162 18.3692L616.156 18.4188L616.15 18.4685L616.143 18.5182L616.135 18.5678L616.127 18.6174L616.119 18.667L616.11 18.7166L616.1 18.7662L616.09 18.8157L616.079 18.8652L616.068 18.9146L616.056 18.9641L616.044 19.0134L616.031 19.0628L616.018 19.112L616.004 19.1612L615.99 19.2102L615.975 19.2593L615.959 19.3082L615.943 19.357L615.927 19.4058L615.91 19.4545L615.892 19.503L615.874 19.5514L615.855 19.5997L615.836 19.6479L615.816 19.6959L615.796 19.7438L615.775 19.7916L615.754 19.8393L615.732 19.8867L615.71 19.934L615.687 19.9812L615.663 20.0282L615.639 20.075L615.615 20.1216L615.59 20.168L615.564 20.2142L615.538 20.2603L615.512 20.3062L615.485 20.3518L615.457 20.3972L615.429 20.4425L615.4 20.4874L615.371 20.5322L615.341 20.5767L615.311 20.621L615.281 20.665L615.25 20.7088L615.218 20.7523L615.186 20.7956L615.153 20.8386L615.12 20.8813L615.087 20.9238L615.052 20.9659L615.018 21.0078L614.983 21.0494L614.947 21.0906L614.911 21.1316L614.875 21.1722L614.838 21.2126L614.8 21.2526L614.763 21.2923L614.724 21.3318L614.685 21.3708L614.646 21.4094L614.606 21.4478L614.566 21.4858L614.525 21.5234L614.484 21.5607L614.443 21.5977L614.401 21.6342L614.359 21.6704L614.316 21.7062L614.273 21.7416L614.229 21.7766L614.185 21.8112L614.14 21.8454L614.095 21.8793L614.05 21.9127L614.004 21.9457L613.958 21.9782L613.912 22.0105L613.865 22.0422L613.817 22.0735L613.77 22.1043L613.722 22.1348L613.673 22.1648L613.624 22.1943L613.575 22.2234L613.526 22.252L613.476 22.2802L613.425 22.3078L613.375 22.3351L613.324 22.3618L613.273 22.3882L613.221 22.4139L613.169 22.4393L613.117 22.4641L613.064 22.4884L613.011 22.5122L612.958 22.5355L612.904 22.5584L612.851 22.5807L612.796 22.6025L612.742 22.6238L612.687 22.6446L612.632 22.6648L612.577 22.6846L612.521 22.7038L612.466 22.7224L612.409 22.7406L612.353 22.7581L612.297 22.7751L612.24 22.7917L612.183 22.8076L612.125 22.823L612.068 22.8378L612.01 22.8522L611.952 22.8658L611.894 22.879L611.836 22.8916L611.777 22.9037L611.718 22.9151L611.659 22.926L611.6 22.9363L611.541 22.9461L611.481 22.9552L611.422 22.9638L611.362 22.9718L611.302 22.9792L611.242 22.986L611.182 22.9922L611.121 22.9978L611.061 23.0028L611 23.0073L610.939 23.011L610.878 23.0143L610.817 23.017L610.756 23.019L610.695 23.0203L610.634 23.0211L610.573 23.0214L610.511 23.021L610.45 23.0199L610.388 23.0182L610.327 23.016L610.265 23.0131L610.204 23.0096L610.142 23.0055L610.08 23.0008L610.019 22.9954L609.957 22.9894L609.895 22.9829L609.833 22.9756L609.772 22.9678L609.71 22.9593L609.648 22.9502L609.587 22.9405L609.525 22.9302L609.463 22.9192L609.402 22.9076L609.34 22.8954L609.279 22.8826L609.218 22.8691L609.156 22.855L609.095 22.8402L609.034 22.825L608.973 22.809L608.912 22.7923L608.851 22.7751L608.79 22.7573L608.73 22.7388L608.669 22.7197L608.609 22.7L608.549 22.6797L608.489 22.6587L608.429 22.6371L608.369 22.6149L608.31 22.5921L608.25 22.5686L608.191 22.5446L608.132 22.5199L608.073 22.4946L608.014 22.4687L607.956 22.4422L607.898 22.4151L607.84 22.3874L607.782 22.359L607.724 22.3301L607.667 22.3006L607.61 22.2704L607.553 22.2397L607.497 22.2083L607.441 22.1764L607.384 22.1438L607.329 22.1107L607.273 22.077L607.218 22.0427L607.163 22.0078L607.109 21.9724L607.055 21.9363L607.001 21.8997L606.947 21.8625L606.894 21.8247L606.841 21.7864L606.788 21.7474L606.736 21.708L606.684 21.668L606.633 21.6274L606.582 21.5862L606.531 21.5446L606.48 21.5023L606.43 21.4595L606.381 21.4162L606.332 21.3723L606.283 21.3279L606.234 21.283L606.186 21.2375L606.139 21.1915L606.092 21.145L606.045 21.098L605.999 21.0505L605.953 21.0024L605.908 20.9539L605.863 20.9048L605.818 20.8553L605.774 20.8053L605.731 20.7547L605.688 20.7038L605.645 20.6522L605.603 20.6002L605.562 20.5478L605.521 20.495L605.48 20.4416L605.44 20.3878L605.401 20.3335L605.362 20.2788L605.323 20.2236L605.285 20.168L605.248 20.112L605.211 20.0555L605.175 19.9986L605.139 19.9414L605.104 19.8837L605.069 19.8255L605.035 19.767L605.002 19.7081L604.969 19.6488L604.937 19.5891L604.905 19.529L604.874 19.4686L604.843 19.4078L604.813 19.3466L604.784 19.285L604.755 19.2232L604.727 19.161L604.7 19.0984L604.673 19.0354L604.647 18.9722L604.621 18.9086L604.596 18.8448L604.572 18.7806L604.548 18.7161L604.525 18.6513L604.503 18.5862L604.481 18.5209L604.46 18.4552L604.44 18.3893L604.42 18.3231L604.401 18.2566L604.382 18.1899L604.365 18.123L604.348 18.0558L604.331 17.9883L604.316 17.9207L604.301 17.8528L604.286 17.7847L604.273 17.7164L604.26 17.6479L604.247 17.5792L604.236 17.5103L604.225 17.4413L604.215 17.372L604.206 17.3026L604.197 17.233L604.189 17.1634L604.182 17.0934L604.175 17.0234L604.169 16.9533L604.164 16.883L604.16 16.8126L604.156 16.7422L604.153 16.6716L604.151 16.6009L604.149 16.5301L604.149 16.4593L604.149 16.3883L604.149 16.3173L604.151 16.2462L604.153 16.1751L604.156 16.1039L604.16 16.0327L604.164 15.9615L604.169 15.8902L604.175 15.819L604.182 15.7477L604.189 15.6764L604.197 15.6051L604.206 15.5338L604.216 15.4626L604.226 15.3914L604.237 15.3202L604.249 15.2491L604.262 15.178L604.275 15.107L604.289 15.036L604.304 14.9651L604.32 14.8943L604.336 14.8236L604.353 14.753L604.371 14.6825L604.39 14.6121L604.409 14.5418L604.429 14.4717L604.45 14.4016L604.471 14.3318L604.494 14.262L604.517 14.1924L604.541 14.123L604.565 14.0538L604.591 13.9847L604.617 13.9158L604.643 13.8472L604.671 13.7787L604.699 13.7104L604.728 13.6424L604.758 13.5746L604.788 13.507L604.819 13.4396L604.851 13.3725L604.884 13.3057L604.917 13.239L604.951 13.1727L604.986 13.1067L605.021 13.041L605.058 12.9755L605.095 12.9103L605.132 12.8454L605.17 12.781L605.209 12.7167L605.249 12.6528L605.29 12.5893L605.331 12.526L605.373 12.4631L605.415 12.4006L605.458 12.3385L605.502 12.2767L605.547 12.2154L605.592 12.1543L605.638 12.0937L605.684 12.0335L605.731 11.9737L605.779 11.9143L605.828 11.8553L605.877 11.7968L605.927 11.7386L605.977 11.681L606.028 11.6238L606.08 11.567L606.133 11.5107L606.186 11.4549L606.239 11.3995L606.294 11.3446L606.348 11.2902L606.404 11.2363L606.46 11.183L606.517 11.1301L606.574 11.0777L606.632 11.0258L606.69 10.9745L606.749 10.9238L606.809 10.8734L606.869 10.8238L606.93 10.7746L606.991 10.726L607.053 10.678L607.116 10.6306L607.179 10.5837L607.242 10.5374L607.306 10.4917L607.371 10.4466L607.436 10.402L607.502 10.3581L607.568 10.3148L607.634 10.2722L607.702 10.2301L607.769 10.1886L607.837 10.1478L607.906 10.1077L607.975 10.0682L608.045 10.0293L608.115 9.99104L608.185 9.95352L608.256 9.91664L608.327 9.8804L608.399 9.84488L608.471 9.81L608.544 9.77584L608.617 9.74232L608.69 9.70952L608.764 9.67744L608.839 9.646L608.913 9.61528L608.988 9.58536L609.064 9.55608L609.139 9.52752L609.215 9.49968L609.292 9.47264L609.369 9.44624L609.446 9.42064L609.523 9.39576L609.601 9.3716L609.679 9.34824L609.758 9.3256L609.836 9.30376L609.915 9.28264L609.995 9.26224L610.074 9.24264L610.154 9.22384L610.234 9.20584L610.315 9.18856L610.395 9.17208L610.476 9.1564L610.517 9.14888ZM611.51 14.9571L610.588 15.1774L610.534 10.6098L610.491 10.6196L610.425 10.635L610.36 10.6511L610.295 10.6678L610.23 10.685L610.166 10.703L610.101 10.7216L610.037 10.7406L609.974 10.7605L609.91 10.7807L609.847 10.8018L609.784 10.8234L609.722 10.8455L609.659 10.8682L609.598 10.8915L609.536 10.9155L609.475 10.94L609.414 10.965L609.353 10.9908L609.293 11.0169L609.233 11.0438L609.173 11.071L609.114 11.099L609.055 11.1274L608.996 11.1565L608.938 11.186L608.88 11.2161L608.823 11.2467L608.766 11.2778L608.709 11.3095L608.653 11.3418L608.597 11.3744L608.541 11.4078L608.486 11.4414L608.432 11.4757L608.377 11.5104L608.323 11.5457L608.27 11.5814L608.217 11.6177L608.165 11.6543L608.113 11.6914L608.061 11.7291L608.01 11.7673L607.959 11.8058L607.909 11.8449L607.859 11.8842L607.809 11.9242L607.761 11.9646L607.712 12.0054L607.664 12.0466L607.617 12.0882L607.57 12.1302L607.523 12.1727L607.477 12.2157L607.432 12.259L607.387 12.3026L607.342 12.3467L607.298 12.3911L607.255 12.436L607.212 12.4811L607.17 12.5269L607.128 12.5727L607.086 12.619L607.045 12.6658L607.005 12.7126L606.965 12.7601L606.926 12.8076L606.887 12.8558L606.849 12.904L606.812 12.9527L606.775 13.0018L606.738 13.051L606.702 13.1005L606.667 13.1503L606.632 13.2006L606.598 13.251L606.564 13.3018L606.531 13.3526L606.498 13.4038L606.466 13.4554L606.435 13.5071L606.404 13.5593L606.374 13.6114L606.344 13.6639L606.315 13.7166L606.286 13.7695L606.258 13.8226L606.231 13.876L606.204 13.9297L606.178 13.9833L606.152 14.0374L606.127 14.0914L606.103 14.1458L606.079 14.2002L606.055 14.255L606.033 14.3097L606.011 14.3647L605.989 14.4198L605.968 14.4751L605.948 14.5304L605.928 14.586L605.909 14.6417L605.891 14.6974L605.873 14.7533L605.856 14.8094L605.839 14.8654L605.823 14.9215L605.807 14.9778L605.792 15.0342L605.778 15.0906L605.765 15.1471L605.751 15.2037L605.739 15.2603L605.727 15.317L605.716 15.3737L605.705 15.4304L605.695 15.4873L605.686 15.544L605.677 15.6008L605.668 15.6578L605.661 15.7145L605.654 15.7714L605.647 15.8282L605.641 15.885L605.636 15.942L605.631 15.9987L605.627 16.0555L605.624 16.1123L605.621 16.169L605.618 16.2256L605.617 16.2822L605.615 16.3388L605.615 16.3953L605.615 16.4517L605.615 16.508L605.617 16.5643L605.618 16.6205L605.621 16.6766L605.624 16.7326L605.627 16.7884L605.631 16.8442L605.636 16.8998L605.641 16.9554L605.647 17.0109L605.653 17.066L605.66 17.1213L605.667 17.1762L605.676 17.2311L605.684 17.2858L605.693 17.3403L605.703 17.3948L605.713 17.449L605.724 17.503L605.735 17.5568L605.747 17.6106L605.76 17.664L605.773 17.7174L605.786 17.7703L605.8 17.8234L605.815 17.8759L605.83 17.9285L605.845 17.9806L605.861 18.0327L605.878 18.0845L605.895 18.1359L605.913 18.1874L605.931 18.2384L605.949 18.2891L605.969 18.3398L605.988 18.3901L606.008 18.4401L606.029 18.4898L606.05 18.5393L606.072 18.5886L606.094 18.6375L606.116 18.6862L606.139 18.7345L606.163 18.7825L606.187 18.8304L606.211 18.8778L606.236 18.9249L606.262 18.9718L606.287 19.0182L606.314 19.0645L606.34 19.1104L606.367 19.1558L606.395 19.2011L606.423 19.246L606.451 19.2905L606.48 19.3347L606.509 19.3786L606.539 19.4222L606.569 19.4651L606.6 19.508L606.63 19.5504L606.662 19.5924L606.693 19.6342L606.725 19.6754L606.758 19.7163L606.791 19.7569L606.824 19.7971L606.857 19.8368L606.891 19.8762L606.925 19.9153L606.96 19.9538L606.995 19.9921L607.03 20.0298L607.066 20.0673L607.102 20.1042L607.138 20.1408L607.175 20.177L607.212 20.2127L607.249 20.2481L607.287 20.283L607.325 20.3174L607.363 20.3515L607.401 20.3851L607.44 20.4183L607.479 20.4511L607.519 20.4834L607.558 20.5154L607.598 20.5468L607.638 20.5778L607.679 20.6083L607.72 20.6385L607.761 20.6682L607.802 20.6974L607.843 20.7262L607.885 20.7545L607.927 20.7823L607.969 20.8097L608.011 20.8366L608.054 20.8632L608.097 20.8891L608.14 20.9147L608.183 20.9398L608.226 20.9644L608.27 20.9886L608.314 21.0123L608.358 21.0355L608.402 21.0582L608.446 21.0805L608.49 21.1023L608.535 21.1236L608.58 21.1445L608.625 21.1649L608.67 21.1847L608.715 21.2042L608.76 21.2231L608.806 21.2416L608.851 21.2596L608.897 21.277L608.943 21.2941L608.989 21.3106L609.035 21.3267L609.081 21.3422L609.127 21.3574L609.173 21.372L609.22 21.3862L609.266 21.3998L609.313 21.413L609.359 21.4256L609.406 21.4378L609.452 21.4495L609.499 21.4608L609.546 21.4715L609.593 21.4818L609.64 21.4916L609.686 21.5009L609.733 21.5098L609.78 21.5181L609.827 21.526L609.874 21.5334L609.921 21.5403L609.968 21.5467L610.015 21.5526L610.062 21.5582L610.109 21.5632L610.156 21.5677L610.202 21.5718L610.249 21.5754L610.296 21.5785L610.343 21.5811L610.389 21.5833L610.436 21.585L610.483 21.5862L610.529 21.587L610.575 21.5874L610.622 21.5872L610.668 21.5866L610.714 21.5855L610.761 21.584L610.807 21.5821L610.852 21.5796L610.898 21.5767L610.944 21.5734L610.99 21.5696L611.035 21.5654L611.081 21.5607L611.126 21.5555L611.171 21.55L611.216 21.544L611.261 21.5375L611.305 21.5306L611.35 21.5234L611.395 21.5156L611.439 21.5074L611.483 21.4988L611.527 21.4898L611.571 21.4803L611.614 21.4705L611.658 21.4602L611.701 21.4494L611.744 21.4384L611.787 21.4269L611.83 21.415L611.872 21.4026L611.914 21.3898L611.956 21.3767L611.998 21.3631L612.04 21.3492L612.081 21.335L612.123 21.3202L612.164 21.3051L612.205 21.2896L612.245 21.2738L612.285 21.2575L612.325 21.241L612.365 21.2239L612.405 21.2066L612.444 21.1889L612.483 21.1708L612.522 21.1524L612.561 21.1336L612.599 21.1145L612.637 21.095L612.675 21.0752L612.712 21.055L612.749 21.0345L612.786 21.0137L612.823 20.9925L612.859 20.971L612.895 20.9491L612.931 20.927L612.967 20.9045L613.002 20.8818L613.037 20.8586L613.071 20.8353L613.106 20.8115L613.14 20.7875L613.173 20.7633L613.207 20.7386L613.24 20.7138L613.273 20.6886L613.305 20.6631L613.337 20.6374L613.369 20.6114L613.4 20.5852L613.431 20.5586L613.462 20.5318L613.492 20.5048L613.523 20.4774L613.552 20.4499L613.582 20.4222L613.611 20.3941L613.639 20.3658L613.668 20.3373L613.696 20.3086L613.723 20.2795L613.751 20.2504L613.778 20.2209L613.804 20.1914L613.831 20.1614L613.856 20.1314L613.882 20.1012L613.907 20.0706L613.932 20.0401L613.956 20.0092L613.98 19.9782L614.004 19.947L614.027 19.9156L614.05 19.8842L614.073 19.8523L614.095 19.8204L614.117 19.7885L614.138 19.7562L614.159 19.7238L614.18 19.6914L614.2 19.6587L614.22 19.6259L614.24 19.593L614.259 19.5599L614.277 19.5267L614.296 19.4934L614.314 19.4599L614.331 19.4265L614.349 19.3928L614.366 19.359L614.382 19.3252L614.398 19.2911L614.414 19.2571L614.429 19.223L614.444 19.1888L614.459 19.1544L614.473 19.1201L614.486 19.0854L614.5 19.0511L614.513 19.0162L614.525 18.9819L614.537 18.947L614.549 18.9122L614.561 18.8774L614.572 18.8426L614.582 18.8078L614.593 18.7726L614.602 18.7378L614.612 18.7026L614.621 18.6678L614.63 18.6326L614.638 18.5974L614.646 18.5625L614.654 18.5276L614.661 18.4922L614.668 18.4573L614.674 18.422L614.68 18.3871L614.686 18.3521L614.691 18.317L614.696 18.2818L614.7 18.2468L614.704 18.2119L614.708 18.1771L614.712 18.142L614.715 18.1072L614.717 18.0723L614.719 18.0375L614.721 18.0028L614.723 17.9682L614.724 17.9337L614.725 17.899L614.725 17.8643L614.725 17.83L614.725 17.7957L614.724 17.7614L614.723 17.7273L614.722 17.693L614.72 17.6593L614.718 17.6249L614.716 17.5914L614.713 17.5577L614.71 17.5238L614.706 17.4902L614.703 17.457L614.698 17.4234L614.694 17.3904L614.689 17.3572L614.684 17.3245L614.678 17.2914L614.672 17.2586L614.666 17.2262L614.66 17.1938L614.653 17.1613L614.646 17.1292L614.638 17.0971L614.63 17.0653L614.622 17.0337L614.614 17.0018L614.605 16.9706L614.596 16.9391L614.587 16.9082L614.577 16.8772L614.567 16.8465L614.557 16.8158L614.546 16.7853L614.535 16.7552L614.524 16.7252L614.513 16.6951L614.501 16.6655L614.489 16.6358L614.476 16.6067L614.464 16.5774L614.451 16.5485L614.438 16.5198L614.424 16.4912L614.411 16.4629L614.397 16.4347L614.382 16.4067L614.368 16.379L614.353 16.3515L614.338 16.3242L614.323 16.2971L614.307 16.2702L614.292 16.2436L614.276 16.2172L614.259 16.1909L614.243 16.165L614.226 16.1393L614.209 16.1138L614.192 16.0884L614.175 16.0634L614.157 16.0386L614.139 16.014L614.121 15.9897L614.103 15.9656L614.084 15.9418L614.065 15.9181L614.047 15.8948L614.027 15.8717L614.008 15.8488L613.989 15.8262L613.969 15.8038L613.949 15.7818L613.929 15.7599L613.909 15.7382L613.888 15.717L613.868 15.6959L613.847 15.675L613.826 15.6546L613.805 15.6343L613.784 15.6143L613.762 15.5945L613.741 15.575L613.719 15.5558L613.697 15.5369L613.675 15.5182L613.653 15.4998L613.631 15.4817L613.608 15.4638L613.586 15.4462L613.563 15.4289L613.54 15.4119L613.517 15.3951L613.494 15.3786L613.471 15.3625L613.448 15.3465L613.424 15.3309L613.401 15.3155L613.377 15.3004L613.353 15.2856L613.329 15.271L613.306 15.2568L613.282 15.2429L613.258 15.2292L613.233 15.2158L613.209 15.2026L613.185 15.1898L613.161 15.1772L613.136 15.165L613.112 15.1529L613.087 15.1412L613.063 15.1298L613.038 15.1186L613.013 15.1078L612.988 15.0971L612.964 15.0869L612.939 15.0769L612.914 15.0671L612.889 15.0577L612.864 15.0485L612.839 15.0396L612.814 15.031L612.789 15.0226L612.764 15.0146L612.739 15.0067L612.714 14.9992L612.689 14.992L612.663 14.985L612.638 14.9784L612.613 14.972L612.588 14.9658L612.563 14.96L612.538 14.9544L612.513 14.9491L612.488 14.9441L612.463 14.9393L612.438 14.9348L612.413 14.9306L612.388 14.9266L612.363 14.923L612.338 14.9195L612.313 14.9163L612.288 14.9134L612.264 14.9108L612.239 14.9085L612.214 14.9063L612.19 14.9045L612.165 14.9029L612.141 14.9015L612.116 14.9005L612.092 14.8997L612.067 14.899L612.043 14.8987L612.019 14.8986L611.995 14.8989L611.971 14.8993L611.947 14.8999L611.923 14.9009L611.899 14.902L611.875 14.9034L611.852 14.905L611.828 14.9069L611.805 14.909L611.782 14.9114L611.758 14.9139L611.735 14.9167L611.712 14.9198L611.689 14.923L611.667 14.9266L611.644 14.9302L611.621 14.9342L611.599 14.9383L611.576 14.9427L611.554 14.9473L611.532 14.9521L611.51 14.9571Z" fill="white"/>
<path d="M643.767 19.5352C643.767 19.2305 643.72 18.957 643.626 18.7148C643.54 18.4648 643.376 18.2383 643.134 18.0352C642.892 17.8242 642.552 17.6172 642.114 17.4141C641.677 17.2109 641.11 17 640.415 16.7812C639.642 16.5312 638.907 16.25 638.212 15.9375C637.524 15.625 636.915 15.2617 636.384 14.8477C635.86 14.4258 635.446 13.9375 635.142 13.3828C634.845 12.8281 634.696 12.1836 634.696 11.4492C634.696 10.7383 634.853 10.0938 635.165 9.51562C635.478 8.92969 635.915 8.42969 636.478 8.01562C637.04 7.59375 637.704 7.26953 638.47 7.04297C639.243 6.81641 640.091 6.70312 641.013 6.70312C642.271 6.70312 643.368 6.92969 644.306 7.38281C645.243 7.83594 645.97 8.45703 646.485 9.24609C647.009 10.0352 647.271 10.9375 647.271 11.9531H643.778C643.778 11.4531 643.673 11.0156 643.462 10.6406C643.259 10.2578 642.946 9.95703 642.524 9.73828C642.11 9.51953 641.587 9.41016 640.954 9.41016C640.345 9.41016 639.837 9.50391 639.431 9.69141C639.024 9.87109 638.72 10.1172 638.517 10.4297C638.313 10.7344 638.212 11.0781 638.212 11.4609C638.212 11.75 638.282 12.0117 638.423 12.2461C638.571 12.4805 638.79 12.6992 639.079 12.9023C639.368 13.1055 639.724 13.2969 640.146 13.4766C640.567 13.6562 641.056 13.832 641.61 14.0039C642.54 14.2852 643.356 14.6016 644.06 14.9531C644.771 15.3047 645.364 15.6992 645.841 16.1367C646.317 16.5742 646.677 17.0703 646.919 17.625C647.161 18.1797 647.282 18.8086 647.282 19.5117C647.282 20.2539 647.138 20.918 646.849 21.5039C646.56 22.0898 646.142 22.5859 645.595 22.9922C645.048 23.3984 644.396 23.707 643.638 23.918C642.88 24.1289 642.032 24.2344 641.095 24.2344C640.251 24.2344 639.419 24.125 638.599 23.9062C637.778 23.6797 637.032 23.3398 636.36 22.8867C635.696 22.4336 635.165 21.8555 634.767 21.1523C634.368 20.4492 634.169 19.6172 634.169 18.6562H637.696C637.696 19.1875 637.778 19.6367 637.942 20.0039C638.106 20.3711 638.337 20.668 638.634 20.8945C638.938 21.1211 639.298 21.2852 639.712 21.3867C640.134 21.4883 640.595 21.5391 641.095 21.5391C641.704 21.5391 642.204 21.4531 642.595 21.2812C642.993 21.1094 643.286 20.8711 643.474 20.5664C643.669 20.2617 643.767 19.918 643.767 19.5352ZM661.052 13.8867V16.6289H652.146V13.8867H661.052ZM653.188 6.9375V24H649.673V6.9375H653.188ZM663.56 6.9375V24H660.056V6.9375H663.56ZM678.067 21.2578V24H668.985V21.2578H678.067ZM670.134 6.9375V24H666.618V6.9375H670.134ZM676.884 13.8867V16.5586H668.985V13.8867H676.884ZM678.056 6.9375V9.69141H668.985V6.9375H678.056ZM691.087 21.2578V24H682.497V21.2578H691.087ZM683.634 6.9375V24H680.118V6.9375H683.634ZM704.071 21.2578V24H695.481V21.2578H704.071ZM696.618 6.9375V24H693.103V6.9375H696.618ZM714.97 19.5352C714.97 19.2305 714.923 18.957 714.829 18.7148C714.743 18.4648 714.579 18.2383 714.337 18.0352C714.095 17.8242 713.755 17.6172 713.317 17.4141C712.88 17.2109 712.313 17 711.618 16.7812C710.845 16.5312 710.11 16.25 709.415 15.9375C708.728 15.625 708.118 15.2617 707.587 14.8477C707.063 14.4258 706.649 13.9375 706.345 13.3828C706.048 12.8281 705.899 12.1836 705.899 11.4492C705.899 10.7383 706.056 10.0938 706.368 9.51562C706.681 8.92969 707.118 8.42969 707.681 8.01562C708.243 7.59375 708.907 7.26953 709.673 7.04297C710.446 6.81641 711.294 6.70312 712.216 6.70312C713.474 6.70312 714.571 6.92969 715.509 7.38281C716.446 7.83594 717.173 8.45703 717.688 9.24609C718.212 10.0352 718.474 10.9375 718.474 11.9531H714.981C714.981 11.4531 714.876 11.0156 714.665 10.6406C714.462 10.2578 714.149 9.95703 713.728 9.73828C713.313 9.51953 712.79 9.41016 712.157 9.41016C711.548 9.41016 711.04 9.50391 710.634 9.69141C710.228 9.87109 709.923 10.1172 709.72 10.4297C709.517 10.7344 709.415 11.0781 709.415 11.4609C709.415 11.75 709.485 12.0117 709.626 12.2461C709.774 12.4805 709.993 12.6992 710.282 12.9023C710.571 13.1055 710.927 13.2969 711.349 13.4766C711.771 13.6562 712.259 13.832 712.813 14.0039C713.743 14.2852 714.56 14.6016 715.263 14.9531C715.974 15.3047 716.567 15.6992 717.044 16.1367C717.521 16.5742 717.88 17.0703 718.122 17.625C718.364 18.1797 718.485 18.8086 718.485 19.5117C718.485 20.2539 718.341 20.918 718.052 21.5039C717.763 22.0898 717.345 22.5859 716.798 22.9922C716.251 23.3984 715.599 23.707 714.841 23.918C714.083 24.1289 713.235 24.2344 712.298 24.2344C711.454 24.2344 710.622 24.125 709.802 23.9062C708.981 23.6797 708.235 23.3398 707.563 22.8867C706.899 22.4336 706.368 21.8555 705.97 21.1523C705.571 20.4492 705.372 19.6172 705.372 18.6562H708.899C708.899 19.1875 708.981 19.6367 709.146 20.0039C709.31 20.3711 709.54 20.668 709.837 20.8945C710.142 21.1211 710.501 21.2852 710.915 21.3867C711.337 21.4883 711.798 21.5391 712.298 21.5391C712.907 21.5391 713.407 21.4531 713.798 21.2812C714.196 21.1094 714.489 20.8711 714.677 20.5664C714.872 20.2617 714.97 19.918 714.97 19.5352Z" fill="white"/>
<path d="M809.166 19.9817V28.1025C809.166 28.4138 809.042 28.7124 808.822 28.9324C808.602 29.1526 808.304 29.2762 807.992 29.2762C807.681 29.2762 807.382 29.1526 807.162 28.9324C806.942 28.7124 806.818 28.4138 806.818 28.1025V19.993C807.145 20.2317 807.537 20.3649 807.942 20.3749C808.383 20.3874 808.815 20.2487 809.166 19.9817ZM819.162 17.6343C818.865 17.6343 818.579 17.7526 818.368 17.9632C818.158 18.1738 818.039 18.4596 818.039 18.7575V20.1727C818.039 20.484 818.163 20.7826 818.383 21.0026C818.603 21.2228 818.902 21.3464 819.213 21.3464C819.524 21.3464 819.823 21.2228 820.043 21.0026C820.263 20.7826 820.387 20.484 820.387 20.1727V18.8136C820.395 18.6526 820.369 18.4915 820.31 18.3414C820.251 18.1914 820.161 18.0557 820.044 17.9438C819.928 17.8319 819.789 17.7464 819.637 17.6929C819.485 17.6395 819.323 17.6195 819.162 17.6343ZM804.269 23.0593C803.865 23.0472 803.473 22.9142 803.146 22.6774V30.8206C803.146 31.1335 803.27 31.4335 803.491 31.6546C803.712 31.8758 804.012 32 804.325 32C804.638 32 804.938 31.8758 805.159 31.6546C805.38 31.4335 805.504 31.1335 805.504 30.8206V22.7336C805.137 22.9707 804.705 23.0848 804.269 23.0593ZM815.501 15.1969C815.349 15.1893 815.196 15.2127 815.054 15.2658C814.911 15.3188 814.78 15.4003 814.67 15.5053C814.56 15.6105 814.472 15.7368 814.412 15.8769C814.352 16.017 814.321 16.1678 814.321 16.3201V22.5763C814.321 22.8892 814.446 23.1892 814.667 23.4103C814.888 23.6315 815.188 23.7557 815.501 23.7557C815.814 23.7557 816.114 23.6315 816.335 23.4103C816.556 23.1892 816.68 22.8892 816.68 22.5763V16.3987C816.689 16.2367 816.663 16.0746 816.603 15.9236C816.543 15.7727 816.452 15.6364 816.334 15.5243C816.217 15.4122 816.076 15.3269 815.923 15.2743C815.769 15.2216 815.606 15.2029 815.445 15.2194L815.501 15.1969ZM811.772 17.6006C811.349 17.5976 810.937 17.4643 810.592 17.2187V25.3843C810.592 25.6972 810.717 25.9972 810.938 26.2183C811.159 26.4395 811.459 26.5637 811.772 26.5637C812.085 26.5637 812.384 26.4395 812.606 26.2183C812.827 25.9972 812.951 25.6972 812.951 25.3843V17.2299C812.595 17.4953 812.16 17.6337 811.716 17.623L811.772 17.6006ZM801.719 23.8568V1.04458C801.716 0.766506 801.604 0.500847 801.406 0.305264C801.208 0.109681 800.941 -1.12311e-05 800.663 8.625e-10H800.416C800.138 -1.12311e-05 799.871 0.109681 799.674 0.305264C799.476 0.500847 799.363 0.766506 799.36 1.04458V23.8568C799.36 24.1368 799.472 24.4054 799.67 24.6034C799.868 24.8014 800.136 24.9126 800.416 24.9126H800.663C800.943 24.9126 801.212 24.8014 801.41 24.6034C801.608 24.4054 801.719 24.1368 801.719 23.8568ZM804.392 22.1945H804.145C803.865 22.1945 803.597 22.0833 803.399 21.8852C803.201 21.6872 803.089 21.4187 803.089 21.1386V3.76272C803.092 3.48466 803.205 3.21898 803.403 3.02341C803.6 2.82783 803.867 2.71814 804.145 2.71815H804.392C804.67 2.71814 804.937 2.82783 805.135 3.02341C805.333 3.21898 805.445 3.48466 805.448 3.76272V21.1611C805.448 21.4411 805.337 21.7097 805.139 21.9077C804.941 22.1057 804.672 22.2169 804.392 22.2169V22.1945ZM808.11 19.5212H807.852C807.575 19.5212 807.309 19.4112 807.113 19.2153C806.917 19.0194 806.807 18.7538 806.807 18.4767V6.45841C806.806 6.32029 806.832 6.18325 806.883 6.05521C806.935 5.92718 807.012 5.8107 807.109 5.71251C807.206 5.61432 807.322 5.53637 807.449 5.48318C807.577 5.42998 807.714 5.40259 807.852 5.4026H808.11C808.388 5.40556 808.654 5.5181 808.849 5.71578C809.045 5.91346 809.155 6.18032 809.155 6.45841V18.4767C809.155 18.7538 809.045 19.0194 808.849 19.2153C808.653 19.4112 808.387 19.5212 808.11 19.5212ZM811.828 16.7694H811.592C811.314 16.7694 811.047 16.6598 810.849 16.4641C810.652 16.2686 810.539 16.0029 810.536 15.7248V9.25518C810.527 9.11096 810.547 8.9664 810.596 8.83038C810.645 8.69448 810.722 8.56991 810.821 8.46467C810.92 8.35931 811.039 8.27552 811.172 8.21824C811.304 8.16107 811.447 8.13164 811.592 8.13198H811.839C812.119 8.13198 812.388 8.24317 812.586 8.44119C812.784 8.63921 812.895 8.90777 812.895 9.18779V15.7024C812.896 15.842 812.87 15.9805 812.818 16.1098C812.765 16.2392 812.688 16.357 812.59 16.4562C812.491 16.5554 812.375 16.6342 812.246 16.688C812.117 16.7418 811.979 16.7694 811.839 16.7694H811.828ZM815.557 14.3545H815.31C815.03 14.3545 814.761 14.2433 814.563 14.0453C814.365 13.8473 814.254 13.5787 814.254 13.2987V11.6251C814.257 11.347 814.369 11.0814 814.567 10.8858C814.765 10.6902 815.032 10.5806 815.31 10.5806H815.557C815.835 10.5806 816.102 10.6902 816.3 10.8858C816.497 11.0814 816.61 11.347 816.613 11.6251V13.2987C816.613 13.5768 816.503 13.8437 816.307 14.0414C816.112 14.239 815.846 14.3516 815.568 14.3545H815.557Z" fill="white"/>
<path d="M834.025 21.293L837.423 6.9375H839.322L839.755 9.32812L836.134 24H834.095L834.025 21.293ZM832.279 6.9375L835.091 21.293L834.857 24H832.583L828.798 6.9375H832.279ZM842.744 21.2344L845.521 6.9375H849.001L845.228 24H842.955L842.744 21.2344ZM840.388 6.9375L843.81 21.3516L843.716 24H841.677L838.033 9.31641L838.501 6.9375H840.388ZM857.333 9.85547L852.693 24H848.955L855.294 6.9375H857.673L857.333 9.85547ZM861.189 24L856.537 9.85547L856.162 6.9375H858.564L864.939 24H861.189ZM860.978 17.6484V20.4023H851.966V17.6484H860.978ZM871.712 20.4375L875.732 6.9375H879.646L873.705 24H871.126L871.712 20.4375ZM868.009 6.9375L872.017 20.4375L872.626 24H870.025L864.119 6.9375H868.009ZM892.689 21.2578V24H883.607V21.2578H892.689ZM884.755 6.9375V24H881.24V6.9375H884.755ZM891.505 13.8867V16.5586H883.607V13.8867H891.505ZM892.677 6.9375V9.69141H883.607V6.9375H892.677ZM903.623 19.5352C903.623 19.2305 903.576 18.957 903.482 18.7148C903.396 18.4648 903.232 18.2383 902.99 18.0352C902.748 17.8242 902.408 17.6172 901.97 17.4141C901.533 17.2109 900.966 17 900.271 16.7812C899.498 16.5312 898.763 16.25 898.068 15.9375C897.38 15.625 896.771 15.2617 896.24 14.8477C895.716 14.4258 895.302 13.9375 894.998 13.3828C894.701 12.8281 894.552 12.1836 894.552 11.4492C894.552 10.7383 894.708 10.0938 895.021 9.51562C895.333 8.92969 895.771 8.42969 896.333 8.01562C896.896 7.59375 897.56 7.26953 898.326 7.04297C899.099 6.81641 899.947 6.70312 900.869 6.70312C902.126 6.70312 903.224 6.92969 904.162 7.38281C905.099 7.83594 905.826 8.45703 906.341 9.24609C906.865 10.0352 907.126 10.9375 907.126 11.9531H903.634C903.634 11.4531 903.529 11.0156 903.318 10.6406C903.115 10.2578 902.802 9.95703 902.38 9.73828C901.966 9.51953 901.443 9.41016 900.81 9.41016C900.201 9.41016 899.693 9.50391 899.287 9.69141C898.88 9.87109 898.576 10.1172 898.373 10.4297C898.169 10.7344 898.068 11.0781 898.068 11.4609C898.068 11.75 898.138 12.0117 898.279 12.2461C898.427 12.4805 898.646 12.6992 898.935 12.9023C899.224 13.1055 899.58 13.2969 900.001 13.4766C900.423 13.6562 900.912 13.832 901.466 14.0039C902.396 14.2852 903.212 14.6016 903.916 14.9531C904.626 15.3047 905.22 15.6992 905.697 16.1367C906.173 16.5742 906.533 17.0703 906.775 17.625C907.017 18.1797 907.138 18.8086 907.138 19.5117C907.138 20.2539 906.994 20.918 906.705 21.5039C906.416 22.0898 905.998 22.5859 905.451 22.9922C904.904 23.3984 904.251 23.707 903.494 23.918C902.736 24.1289 901.888 24.2344 900.951 24.2344C900.107 24.2344 899.275 24.125 898.455 23.9062C897.634 23.6797 896.888 23.3398 896.216 22.8867C895.552 22.4336 895.021 21.8555 894.623 21.1523C894.224 20.4492 894.025 19.6172 894.025 18.6562H897.552C897.552 19.1875 897.634 19.6367 897.798 20.0039C897.962 20.3711 898.193 20.668 898.49 20.8945C898.794 21.1211 899.154 21.2852 899.568 21.3867C899.99 21.4883 900.451 21.5391 900.951 21.5391C901.56 21.5391 902.06 21.4531 902.451 21.2812C902.849 21.1094 903.142 20.8711 903.33 20.5664C903.525 20.2617 903.623 19.918 903.623 19.5352Z" fill="white"/>
<path d="M1025.8 32H1038.71L1006.71 0H993.796L1025.8 32Z" fill="white"/>
<path d="M1013.35 1.63716e-06L1044.2 30.8474V0H1035.85V9.73909L1026.11 0L1013.35 1.63716e-06Z" fill="white"/>
<path d="M988.389 1.07141V32H996.736V22.2608L1006.48 32H1019.32L988.389 1.07141Z" fill="white"/>
<path d="M1060.66 9.85547L1056.02 24H1052.28L1058.62 6.9375H1061L1060.66 9.85547ZM1064.51 24L1059.86 9.85547L1059.49 6.9375H1061.89L1068.26 24H1064.51ZM1064.3 17.6484V20.4023H1055.29V17.6484H1064.3ZM1073.01 14.0859V24H1069.64V11.3203H1072.81L1073.01 14.0859ZM1076.83 11.2383L1076.77 14.3672C1076.61 14.3438 1076.41 14.3242 1076.17 14.3086C1075.95 14.2852 1075.74 14.2734 1075.55 14.2734C1075.08 14.2734 1074.66 14.3359 1074.31 14.4609C1073.97 14.5781 1073.68 14.7539 1073.44 14.9883C1073.22 15.2227 1073.05 15.5078 1072.93 15.8438C1072.82 16.1797 1072.76 16.5625 1072.74 16.9922L1072.06 16.7812C1072.06 15.9609 1072.14 15.207 1072.31 14.5195C1072.47 13.8242 1072.71 13.2188 1073.02 12.7031C1073.34 12.1875 1073.73 11.7891 1074.19 11.5078C1074.66 11.2266 1075.18 11.0859 1075.78 11.0859C1075.96 11.0859 1076.16 11.1016 1076.35 11.1328C1076.55 11.1562 1076.71 11.1914 1076.83 11.2383ZM1085.22 11.3203V13.7109H1077.84V11.3203H1085.22ZM1079.67 8.19141H1083.04V20.1797C1083.04 20.5469 1083.09 20.8281 1083.18 21.0234C1083.28 21.2188 1083.43 21.3555 1083.63 21.4336C1083.82 21.5039 1084.07 21.5391 1084.37 21.5391C1084.58 21.5391 1084.76 21.5312 1084.93 21.5156C1085.1 21.4922 1085.25 21.4688 1085.36 21.4453L1085.37 23.9297C1085.08 24.0234 1084.77 24.0977 1084.44 24.1523C1084.1 24.207 1083.73 24.2344 1083.32 24.2344C1082.58 24.2344 1081.93 24.1133 1081.38 23.8711C1080.83 23.6211 1080.41 23.2227 1080.11 22.6758C1079.82 22.1289 1079.67 21.4102 1079.67 20.5195V8.19141ZM1093.51 20.4375L1097.53 6.9375H1101.44L1095.5 24H1092.92L1093.51 20.4375ZM1089.8 6.9375L1093.81 20.4375L1094.42 24H1091.82L1085.91 6.9375H1089.8ZM1108.14 24.2344C1107.16 24.2344 1106.28 24.0781 1105.5 23.7656C1104.71 23.4453 1104.05 23.0039 1103.5 22.4414C1102.96 21.8789 1102.55 21.2266 1102.26 20.4844C1101.97 19.7344 1101.83 18.9375 1101.83 18.0938V17.625C1101.83 16.6641 1101.96 15.7852 1102.24 14.9883C1102.51 14.1914 1102.9 13.5 1103.41 12.9141C1103.92 12.3281 1104.55 11.8789 1105.28 11.5664C1106.02 11.2461 1106.85 11.0859 1107.77 11.0859C1108.67 11.0859 1109.46 11.2344 1110.16 11.5312C1110.85 11.8281 1111.44 12.25 1111.91 12.7969C1112.38 13.3438 1112.74 14 1112.98 14.7656C1113.23 15.5234 1113.35 16.3672 1113.35 17.2969V18.7031H1103.27V16.4531H1110.03V16.1953C1110.03 15.7266 1109.94 15.3086 1109.77 14.9414C1109.61 14.5664 1109.36 14.2695 1109.02 14.0508C1108.69 13.832 1108.26 13.7227 1107.73 13.7227C1107.29 13.7227 1106.91 13.8203 1106.58 14.0156C1106.26 14.2109 1106 14.4844 1105.8 14.8359C1105.6 15.1875 1105.46 15.6016 1105.35 16.0781C1105.26 16.5469 1105.21 17.0625 1105.21 17.625V18.0938C1105.21 18.6016 1105.28 19.0703 1105.42 19.5C1105.57 19.9297 1105.78 20.3008 1106.05 20.6133C1106.32 20.9258 1106.65 21.168 1107.03 21.3398C1107.42 21.5117 1107.86 21.5977 1108.35 21.5977C1108.96 21.5977 1109.53 21.4805 1110.05 21.2461C1110.58 21.0039 1111.04 20.6406 1111.42 20.1562L1113.07 21.9375C1112.8 22.3203 1112.44 22.6875 1111.98 23.0391C1111.52 23.3906 1110.98 23.6797 1110.33 23.9062C1109.69 24.125 1108.96 24.2344 1108.14 24.2344ZM1118.57 14.0273V24H1115.2V11.3203H1118.36L1118.57 14.0273ZM1118.08 17.2148H1117.17C1117.17 16.2773 1117.29 15.4336 1117.53 14.6836C1117.77 13.9258 1118.11 13.2812 1118.55 12.75C1118.99 12.2109 1119.51 11.8008 1120.11 11.5195C1120.72 11.2305 1121.4 11.0859 1122.15 11.0859C1122.74 11.0859 1123.28 11.1719 1123.78 11.3438C1124.27 11.5156 1124.69 11.7891 1125.04 12.1641C1125.4 12.5391 1125.67 13.0352 1125.86 13.6523C1126.06 14.2695 1126.16 15.0234 1126.16 15.9141V24H1122.76V15.9023C1122.76 15.3398 1122.68 14.9023 1122.52 14.5898C1122.37 14.2773 1122.14 14.0586 1121.83 13.9336C1121.53 13.8008 1121.17 13.7344 1120.73 13.7344C1120.28 13.7344 1119.88 13.8242 1119.55 14.0039C1119.22 14.1836 1118.94 14.4336 1118.73 14.7539C1118.51 15.0664 1118.35 15.4336 1118.25 15.8555C1118.14 16.2773 1118.08 16.7305 1118.08 17.2148ZM1136.22 20.9648V11.3203H1139.6V24H1136.42L1136.22 20.9648ZM1136.6 18.3633L1137.59 18.3398C1137.59 19.1836 1137.5 19.9688 1137.3 20.6953C1137.1 21.4141 1136.81 22.0391 1136.42 22.5703C1136.03 23.0938 1135.54 23.5039 1134.94 23.8008C1134.35 24.0898 1133.65 24.2344 1132.85 24.2344C1132.23 24.2344 1131.66 24.1484 1131.14 23.9766C1130.62 23.7969 1130.17 23.5195 1129.8 23.1445C1129.43 22.7617 1129.14 22.2734 1128.93 21.6797C1128.73 21.0781 1128.63 20.3555 1128.63 19.5117V11.3203H1132V19.5352C1132 19.9102 1132.05 20.2266 1132.13 20.4844C1132.23 20.7422 1132.35 20.9531 1132.52 21.1172C1132.68 21.2812 1132.87 21.3984 1133.09 21.4688C1133.32 21.5391 1133.57 21.5742 1133.84 21.5742C1134.54 21.5742 1135.08 21.4336 1135.48 21.1523C1135.89 20.8711 1136.17 20.4883 1136.34 20.0039C1136.51 19.5117 1136.6 18.9648 1136.6 18.3633ZM1148.01 24.2344C1147.03 24.2344 1146.14 24.0781 1145.36 23.7656C1144.58 23.4453 1143.92 23.0039 1143.37 22.4414C1142.83 21.8789 1142.42 21.2266 1142.13 20.4844C1141.84 19.7344 1141.69 18.9375 1141.69 18.0938V17.625C1141.69 16.6641 1141.83 15.7852 1142.1 14.9883C1142.38 14.1914 1142.77 13.5 1143.28 12.9141C1143.79 12.3281 1144.42 11.8789 1145.15 11.5664C1145.89 11.2461 1146.71 11.0859 1147.64 11.0859C1148.53 11.0859 1149.33 11.2344 1150.03 11.5312C1150.72 11.8281 1151.3 12.25 1151.77 12.7969C1152.25 13.3438 1152.61 14 1152.85 14.7656C1153.09 15.5234 1153.21 16.3672 1153.21 17.2969V18.7031H1143.14V16.4531H1149.9V16.1953C1149.9 15.7266 1149.81 15.3086 1149.64 14.9414C1149.48 14.5664 1149.23 14.2695 1148.89 14.0508C1148.55 13.832 1148.12 13.7227 1147.6 13.7227C1147.16 13.7227 1146.77 13.8203 1146.45 14.0156C1146.13 14.2109 1145.87 14.4844 1145.67 14.8359C1145.47 15.1875 1145.32 15.6016 1145.22 16.0781C1145.13 16.5469 1145.08 17.0625 1145.08 17.625V18.0938C1145.08 18.6016 1145.15 19.0703 1145.29 19.5C1145.44 19.9297 1145.65 20.3008 1145.91 20.6133C1146.19 20.9258 1146.51 21.168 1146.9 21.3398C1147.29 21.5117 1147.73 21.5977 1148.22 21.5977C1148.83 21.5977 1149.4 21.4805 1149.92 21.2461C1150.45 21.0039 1150.91 20.6406 1151.29 20.1562L1152.93 21.9375C1152.67 22.3203 1152.3 22.6875 1151.84 23.0391C1151.39 23.3906 1150.84 23.6797 1150.2 23.9062C1149.56 24.125 1148.83 24.2344 1148.01 24.2344Z" fill="white"/>
</svg>
